<svg xmlns="http://www.w3.org/2000/svg" viewBox="0 0 65 132" width="65" height="132">
	<style>
		tspan { white-space:pre }
		.shp0 { fill: #ffea27 } 
		.shp1 { fill: #dfdedd } 
		.shp2 { fill: #f6be43 } 
		.shp3 { fill: #ff731b } 
		.shp4 { fill: #000000 } 
		.shp5 { fill: none } 
		.shp6 { fill: #bbb9c1 } 
		.shp7 { fill: #ffffff } 
		.shp8 { fill: #ff581f } 
		.shp9 { fill: #ff8c1b } 
		.shp10 { fill: #d94d1b } 
		.shp11 { fill: #ffc427 } 
	</style>
	<g id="Layer">
		<path id="Layer" fill="#ffea27" d="M30.75 74.45C30.43 73.35 30.11 72.26 29.8 71.22C29.92 71.25 30.04 71.27 30.16 71.29C30.28 71.32 30.41 71.33 30.53 71.35C30.65 71.36 30.78 71.37 30.9 71.38C31.03 71.38 31.15 71.39 31.27 71.39C31.63 71.39 31.98 71.37 32.33 71.32C32.68 71.27 33.03 71.19 33.37 71.08C33.71 70.97 34.03 70.84 34.35 70.67C34.66 70.51 34.97 70.33 35.25 70.12C35.44 69.99 35.61 69.83 35.77 69.66C35.92 69.49 36.05 69.3 36.16 69.09C36.27 68.89 36.36 68.68 36.42 68.46C36.48 68.23 36.51 68.01 36.52 67.78C36.52 67.73 36.52 67.68 36.52 67.63L36.9 68.96C36.9 68.98 36.91 69 36.92 69.02C37.27 70 37.56 70.92 37.8 71.79C37.48 72.11 37.14 72.4 36.78 72.66C36.42 72.93 36.04 73.17 35.65 73.38C35.25 73.59 34.84 73.78 34.42 73.93C34.01 74.09 33.58 74.21 33.14 74.31C32.94 74.35 32.75 74.38 32.55 74.4C32.35 74.43 32.15 74.45 31.95 74.46C31.75 74.47 31.55 74.48 31.35 74.48C31.15 74.48 30.95 74.47 30.75 74.45L30.75 74.45Z" />
		<path id="Layer" fill="#ffea27" d="M44.24 79.37L44.76 77.54C44.77 77.5 44.78 77.46 44.79 77.42C44.79 77.38 44.79 77.34 44.79 77.3C44.79 77.26 44.79 77.22 44.79 77.18C44.78 77.14 44.77 77.1 44.76 77.07C44.53 76.17 44.26 75.28 43.93 74.41C43.61 73.54 43.24 72.68 42.83 71.85C42.42 71.02 41.97 70.21 41.47 69.42C40.97 68.64 40.44 67.88 39.86 67.15C40.29 67.46 40.72 67.78 41.13 68.12C41.54 68.45 41.93 68.81 42.32 69.17C42.7 69.53 43.08 69.91 43.44 70.3C43.8 70.69 44.14 71.1 44.47 71.51C44.82 72.15 47.27 76.7 47.86 78.06C47.67 78.36 47.47 78.65 47.24 78.92C47.01 79.19 46.76 79.44 46.49 79.68C46.22 79.92 45.94 80.13 45.64 80.33C45.35 80.52 45.04 80.69 44.71 80.84C44.57 80.37 44.42 79.87 44.24 79.37Z" />
		<path id="Layer" fill="#dfdedd" d="M42.21 74.09C42.31 74.35 42.42 74.61 42.52 74.88C42.62 75.14 42.71 75.41 42.81 75.68C42.9 75.94 42.99 76.21 43.07 76.48C43.16 76.75 43.24 77.02 43.31 77.3L43.2 77.69L43.07 78.18L42.71 79.44L42.6 79.81L42.57 79.94L41.82 79.5L40.22 78.56C40.19 78.1 40.15 77.64 40.1 77.17C40.06 76.71 40 76.25 39.93 75.79C39.86 75.32 39.78 74.86 39.69 74.41C39.6 73.95 39.5 73.49 39.39 73.04C39.27 72.52 39.13 71.96 38.97 71.38C38.86 71.01 38.75 70.62 38.63 70.23C38.46 69.66 38.26 69.06 38.05 68.45L37.83 67.69L37.62 66.96C37.9 67.24 38.21 67.57 38.52 67.93C38.84 68.29 39.16 68.7 39.5 69.17C39.73 69.49 39.95 69.82 40.17 70.16C40.38 70.49 40.59 70.83 40.79 71.18C40.99 71.52 41.17 71.87 41.35 72.22C41.53 72.58 41.71 72.94 41.87 73.3C41.98 73.56 42.09 73.82 42.21 74.09Z" />
		<path id="Layer" fill="#ffea27" d="M37.25 125.98C41.8 123.88 43.44 120.6 45.17 117.13C45.38 116.68 45.6 116.24 45.83 115.8C46.06 115.36 46.3 114.92 46.55 114.49C46.79 114.06 47.05 113.64 47.32 113.22C47.58 112.8 47.86 112.39 48.14 111.99C48.51 111.5 48.93 111.05 49.4 110.66C49.87 110.26 50.37 109.92 50.92 109.63C51.46 109.35 52.03 109.12 52.62 108.96C53.21 108.8 53.81 108.7 54.43 108.67C54.68 108.65 54.94 108.63 55.21 108.63C55.29 108.63 55.37 108.63 55.45 108.63C55.62 108.63 55.8 108.64 55.97 108.66C56.15 108.67 56.29 108.68 56.45 108.7C56.99 108.73 57.52 108.83 58.04 108.99C58.56 109.14 59.06 109.36 59.52 109.63C59.99 109.91 60.42 110.23 60.81 110.61C61.2 110.98 61.55 111.4 61.84 111.86C63.04 114.14 62.11 116.64 61.12 118.34C60.73 118.95 60.32 119.55 59.87 120.12C59.42 120.68 58.95 121.23 58.44 121.74C57.93 122.26 57.4 122.75 56.84 123.21C56.28 123.67 55.69 124.09 55.09 124.49C54.2 125.06 53.29 125.58 52.35 126.04C51.41 126.51 50.45 126.92 49.46 127.27C48.47 127.63 47.47 127.93 46.45 128.17C45.43 128.41 44.39 128.6 43.35 128.72C43.34 128.72 43.33 128.72 43.31 128.72C43.3 128.72 43.29 128.73 43.28 128.73C43.27 128.73 43.26 128.73 43.24 128.73C43.23 128.74 43.22 128.74 43.21 128.74C42.72 128.86 42.23 128.97 41.73 129.06C41.24 129.14 40.74 129.21 40.24 129.26C39.73 129.31 39.23 129.34 38.73 129.35C38.22 129.36 37.72 129.35 37.22 129.32C37.07 129.31 36.93 129.29 36.78 129.27C36.64 129.25 36.5 129.23 36.35 129.2C36.21 129.17 36.07 129.14 35.93 129.1C35.79 129.07 35.65 129.02 35.51 128.98C34.92 128.76 34.62 128.51 34.55 128.32C34.55 128.31 34.55 128.3 34.55 128.3C34.54 128.29 34.54 128.29 34.54 128.28C34.54 128.28 34.54 128.27 34.54 128.26C34.54 128.26 34.54 128.25 34.54 128.24C34.52 127.88 35.12 126.96 37.25 125.98Z" />
		<path id="Layer" fill="#f6be43" d="M19.97 84.81L19.33 84.01L19.25 83.91C20.08 83.43 20.94 82.87 21.83 82.23L23.49 81.1L24.68 83.25L25.14 84.07L25.6 84.9L28.44 90C28.35 90.03 28.26 90.05 28.17 90.09C27.92 90.17 27.67 90.27 27.43 90.39C27.19 90.5 26.96 90.63 26.73 90.77C26.51 90.91 26.29 91.06 26.08 91.22C25.87 91.39 25.67 91.56 25.48 91.75L20.61 85.61L19.97 84.81Z" />
		<path id="Layer" fill="#f6be43" d="M28.52 100.05C28.57 100.07 28.62 100.1 28.66 100.12C28.71 100.14 28.76 100.15 28.81 100.17C28.86 100.19 28.9 100.21 28.95 100.22C29 100.24 29.05 100.25 29.1 100.27L29.69 102.42C28.82 102.37 27.98 102.11 27.23 101.66C26.48 101.22 25.85 100.61 25.38 99.87C24.92 99.14 24.64 98.3 24.56 97.44C24.48 96.57 24.61 95.7 24.93 94.89C24.98 94.78 25.03 94.67 25.08 94.56C25.11 94.5 25.13 94.45 25.16 94.4C25.19 94.35 25.21 94.3 25.24 94.25C25.27 94.2 25.3 94.15 25.33 94.1C25.36 94.05 25.39 94 25.43 93.95C25.59 93.7 25.77 93.46 25.98 93.24C26.18 93.01 26.4 92.81 26.64 92.62C26.87 92.43 27.12 92.27 27.39 92.12C27.65 91.98 27.93 91.86 28.21 91.76C28.34 91.71 28.48 91.67 28.61 91.64C28.75 91.6 28.88 91.57 29.02 91.54C29.16 91.52 29.29 91.5 29.43 91.48C29.57 91.47 29.71 91.46 29.85 91.45C29.94 91.45 30.04 91.45 30.13 91.45C30.22 91.45 30.32 91.46 30.41 91.46C30.51 91.47 30.6 91.48 30.69 91.49C30.79 91.5 30.88 91.52 30.97 91.53C31.86 91.69 32.69 92.06 33.4 92.61C34.11 93.16 34.67 93.88 35.04 94.7C35.4 95.52 35.56 96.42 35.5 97.32C35.44 98.21 35.16 99.08 34.68 99.85L33.16 98.39C33.74 97.13 33.51 95.63 32.57 94.61C31.63 93.58 30.17 93.22 28.86 93.69C27.55 94.16 26.65 95.37 26.57 96.76C26.5 98.15 27.27 99.45 28.52 100.05L28.52 100.05Z" />
		<path id="Layer" fill="#ff731b" d="M40.07 118.63C40.09 118.6 40.11 118.57 40.13 118.54C40.14 118.51 40.16 118.48 40.17 118.45C40.19 118.42 40.2 118.39 40.21 118.35C40.22 118.32 40.23 118.29 40.24 118.26C40.24 118.24 40.24 118.23 40.24 118.22C40.25 118.21 40.25 118.2 40.25 118.19C40.25 118.18 40.25 118.17 40.25 118.16C40.25 118.15 40.26 118.14 40.26 118.13C40.3 117.81 40.36 117.49 40.42 117.18C40.49 116.86 40.57 116.55 40.66 116.24C40.75 115.93 40.85 115.63 40.97 115.32C41.08 115.02 41.2 114.72 41.34 114.43C41.39 114.32 41.44 114.21 41.5 114.1C41.55 113.99 41.61 113.88 41.66 113.77C41.72 113.66 41.78 113.55 41.84 113.44C41.9 113.34 41.96 113.23 42.03 113.12C42.26 112.73 42.52 112.35 42.8 111.99C43.09 111.62 43.4 111.28 43.73 110.96C44.06 110.65 44.42 110.35 44.79 110.08C45.16 109.81 45.55 109.57 45.96 109.35C46.37 109.14 46.78 108.95 47.21 108.79C47.63 108.63 48.07 108.48 48.51 108.37C48.95 108.25 49.39 108.15 49.85 108.08C50.3 108.01 50.75 107.96 51.2 107.94C50.88 108.11 50.56 108.3 50.25 108.51C49.95 108.72 49.65 108.94 49.37 109.19C49.09 109.43 48.83 109.68 48.58 109.96C48.33 110.23 48.09 110.51 47.87 110.81C47.57 111.24 47.28 111.68 47 112.12C46.72 112.56 46.45 113 46.19 113.46C45.93 113.91 45.67 114.37 45.43 114.83C45.19 115.29 44.96 115.76 44.74 116.24C43.09 119.52 41.67 122.36 37.76 124.17C37.49 124.28 37.22 124.41 36.96 124.55C36.7 124.69 36.45 124.84 36.21 125C35.96 125.17 35.73 125.34 35.5 125.53C35.27 125.71 35.05 125.91 34.85 126.11C34.77 125.84 34.7 125.57 34.65 125.29C34.6 125.01 34.56 124.73 34.54 124.44C34.52 124.16 34.51 123.88 34.52 123.59C34.52 123.31 34.54 123.03 34.58 122.75C34.63 122.45 34.79 121.73 35.18 121.66C35.48 121.6 35.78 121.52 36.08 121.43C36.37 121.34 36.66 121.23 36.94 121.1C37.22 120.97 37.49 120.83 37.75 120.67C38.02 120.51 38.27 120.34 38.51 120.15C38.66 120.04 38.8 119.92 38.94 119.81C39.08 119.69 39.21 119.56 39.34 119.44C39.47 119.31 39.6 119.18 39.72 119.04C39.84 118.91 39.96 118.77 40.07 118.63Z" />
		<path id="Layer" fill="#f6be43" d="M39.15 106.45C39.47 108.05 39.99 110.51 40.55 112.81C40.35 113.19 40.17 113.57 40.01 113.97C39.84 114.36 39.69 114.75 39.56 115.16C39.43 115.56 39.31 115.97 39.21 116.38C39.11 116.79 39.03 117.21 38.97 117.63C38.92 117.69 38.86 117.76 38.78 117.83C38.31 117.05 37.87 116.27 37.44 115.47C37.02 114.67 36.62 113.85 36.24 113.03C35.86 112.21 35.5 111.38 35.17 110.53C34.83 109.69 34.52 108.84 34.24 107.98C34.33 107.91 34.42 107.84 34.51 107.77C34.6 107.69 34.7 107.62 34.79 107.54C34.87 107.47 34.96 107.39 35.05 107.31C35.14 107.23 35.23 107.16 35.31 107.08C35.99 106.98 37.6 106.74 39.15 106.45Z" />
		<path id="Layer" fill="#ff731b" d="M20.25 119.85C20.4 119.77 20.55 119.69 20.7 119.61C20.85 119.52 20.99 119.43 21.13 119.34C21.28 119.24 21.42 119.15 21.55 119.05C21.69 118.94 21.82 118.84 21.95 118.73C21.98 118.85 22.03 118.96 22.09 119.06C22.16 119.16 22.24 119.25 22.34 119.32C22.44 119.39 22.55 119.44 22.67 119.47C22.79 119.5 22.91 119.51 23.03 119.5C23.06 119.5 23.1 119.49 23.13 119.49C23.17 119.49 23.2 119.49 23.23 119.49C23.27 119.48 23.3 119.48 23.34 119.48C23.37 119.48 23.4 119.48 23.44 119.48C23.83 119.46 24.22 119.49 24.6 119.58C24.98 119.67 25.34 119.8 25.69 119.99C26.03 120.18 26.34 120.41 26.62 120.68C26.9 120.96 27.14 121.27 27.33 121.61C27.49 121.97 27.61 122.36 27.68 122.75C27.75 123.15 27.78 123.55 27.75 123.95C27.72 124.35 27.65 124.74 27.53 125.12C27.4 125.5 27.23 125.87 27.02 126.21C26.23 127.48 24.5 129.01 20.71 129.01C13.64 129.01 10.82 120.99 10.65 118.23C10.52 116.14 11.71 113.61 13.13 112.91C13.35 112.82 13.57 112.76 13.8 112.74C14.03 112.73 14.26 112.74 14.48 112.8C14.71 112.85 14.92 112.94 15.12 113.06C15.31 113.19 15.49 113.34 15.63 113.51L15.68 113.55L14.85 114.58C14.82 114.62 14.79 114.67 14.76 114.72C14.73 114.77 14.71 114.82 14.69 114.87C14.67 114.92 14.66 114.98 14.65 115.03C14.64 115.09 14.63 115.14 14.63 115.2C14.63 115.55 14.69 118.69 16.61 119.91C16.73 119.99 16.86 120.05 16.99 120.11C17.12 120.17 17.25 120.22 17.39 120.25C17.52 120.29 17.66 120.32 17.8 120.34C17.94 120.36 18.09 120.37 18.23 120.36C18.4 120.36 18.58 120.35 18.75 120.32C18.93 120.3 19.1 120.26 19.27 120.22C19.44 120.18 19.61 120.13 19.77 120.06C19.93 120 20.1 119.93 20.25 119.85Z" />
		<path id="Layer" fill="#f6be43" d="M26.12 111.1C25.12 112.31 24.1 113.5 23.12 114.55C22.89 114.8 22.66 115.05 22.43 115.28C22.19 115.53 21.95 115.76 21.71 115.99C21.52 116.19 21.32 116.39 21.11 116.58C20.9 116.77 20.68 116.95 20.46 117.12C20.23 117.29 20 117.46 19.77 117.61C19.53 117.77 19.29 117.92 19.05 118.05C18.92 118.14 18.79 118.21 18.65 118.26C18.51 118.31 18.36 118.34 18.21 118.36C18.06 118.37 17.91 118.37 17.76 118.35C17.61 118.33 17.46 118.29 17.32 118.23C16.63 117.79 16.35 116.39 16.28 115.53L16.9 114.76L17.53 113.98L18.15 113.19L20.63 110.1C21.07 110.25 21.52 110.38 21.97 110.5C22.42 110.62 22.88 110.72 23.34 110.8C23.8 110.88 24.26 110.95 24.72 111C25.19 111.05 25.66 111.08 26.12 111.1Z" />
		<path id="Layer" fill-rule="evenodd" fill="#000000" d="M16.83 65.51C17.49 65.14 18.17 64.79 18.87 64.47C19.56 64.15 20.27 63.86 20.99 63.6C21.7 63.33 22.43 63.1 23.17 62.9C23.91 62.69 24.65 62.52 25.4 62.37C26.24 62.21 27.09 62.07 27.94 61.96C28.79 61.86 29.64 61.78 30.5 61.73C31.35 61.68 32.21 61.66 33.06 61.67C33.92 61.68 34.78 61.72 35.63 61.79C35.93 61.81 36.11 61.84 36.17 61.84C36.21 61.85 36.25 61.86 36.29 61.87C36.33 61.88 36.37 61.9 36.4 61.91C36.44 61.93 36.48 61.95 36.51 61.98C36.55 62 36.58 62.03 36.61 62.05C36.75 62.19 36.89 62.34 37.03 62.48C37.16 62.63 37.29 62.78 37.42 62.93C37.55 63.09 37.67 63.25 37.79 63.41C37.91 63.57 38.02 63.73 38.13 63.9C39.8 64.44 42.69 66 46.05 70.44C46.06 70.46 46.06 70.47 46.07 70.48C46.08 70.49 46.09 70.5 46.09 70.51C46.1 70.52 46.11 70.54 46.12 70.55C46.12 70.56 46.13 70.57 46.14 70.58C46.25 70.81 48.89 76.1 49.41 77.48C49.95 78.92 47.98 80.73 47.37 81.25C47.22 81.38 47.06 81.51 46.91 81.62C46.75 81.74 46.59 81.86 46.42 81.97C46.26 82.08 46.09 82.19 45.92 82.29C45.75 82.39 45.57 82.48 45.4 82.57C45.5 83.02 45.59 83.47 45.68 83.92C45.76 84.37 45.84 84.83 45.91 85.28C45.98 85.73 46.04 86.19 46.09 86.65C46.14 87.1 46.18 87.56 46.22 88.02C48.47 90.54 49.72 96.12 47.97 99.75C46.4 102.99 43.96 105.27 41.28 105.99L41.12 106.04C41.33 107.21 41.65 108.85 42 110.54C42.22 110.24 42.46 109.95 42.72 109.68C42.97 109.4 43.24 109.14 43.52 108.89C43.8 108.64 44.1 108.41 44.4 108.19C44.7 107.98 45.02 107.77 45.34 107.59C46.19 107.13 47.08 106.77 48 106.49C48.92 106.22 49.87 106.04 50.83 105.96C51.78 105.88 52.75 105.9 53.7 106.02C54.65 106.14 55.59 106.36 56.5 106.66C56.59 106.67 56.68 106.67 56.77 106.68C57.48 106.71 58.18 106.82 58.85 107.03C59.53 107.24 60.17 107.53 60.77 107.9C61.38 108.27 61.93 108.72 62.41 109.23C62.9 109.74 63.32 110.32 63.66 110.94C64.84 113.38 64.6 116.29 62.96 119.35C62.58 120.01 62.16 120.66 61.71 121.29C61.27 121.91 60.78 122.51 60.27 123.08C59.76 123.65 59.21 124.19 58.64 124.71C58.07 125.22 57.47 125.7 56.84 126.15C55.99 126.76 55.1 127.31 54.17 127.81C53.25 128.31 52.3 128.76 51.32 129.14C50.34 129.52 49.34 129.85 48.33 130.11C47.31 130.37 46.28 130.57 45.24 130.7C44.84 130.8 44.44 130.89 44.04 130.97C43.63 131.05 43.23 131.11 42.82 131.17C42.41 131.22 42.01 131.26 41.6 131.29C41.19 131.32 40.78 131.34 40.37 131.35C37.92 131.35 36.16 130.71 35.44 129.5C34.25 128.01 33.66 124.7 33.88 122.72C34.13 120.4 35.28 119.83 35.94 119.7C36.08 119.67 36.22 119.63 36.36 119.59C36.5 119.55 36.63 119.5 36.77 119.45C36.9 119.4 37.03 119.34 37.16 119.27C37.28 119.21 37.41 119.14 37.53 119.06C37.09 118.27 36.67 117.47 36.27 116.66C35.87 115.85 35.49 115.03 35.13 114.2C34.77 113.37 34.43 112.54 34.11 111.69C33.79 110.84 33.49 109.99 33.22 109.13C32.86 109.36 32.49 109.57 32.11 109.76C31.73 109.95 31.34 110.13 30.95 110.28C30.55 110.43 30.15 110.57 29.74 110.68C29.33 110.79 28.92 110.89 28.5 110.96C27.11 112.85 25.54 114.88 24.05 116.54C24.05 116.62 24.06 116.71 24.06 116.79C24.06 116.87 24.06 116.96 24.06 117.04C24.06 117.13 24.05 117.21 24.04 117.29C24.04 117.38 24.03 117.46 24.01 117.54C24.49 117.58 24.96 117.69 25.41 117.86C25.85 118.02 26.28 118.25 26.67 118.52C27.06 118.8 27.41 119.13 27.71 119.5C28.01 119.87 28.26 120.28 28.46 120.72C28.68 121.24 28.84 121.78 28.94 122.34C29.04 122.89 29.07 123.46 29.04 124.03C29.01 124.59 28.91 125.15 28.75 125.69C28.6 126.24 28.37 126.76 28.1 127.25C26.25 130.51 22.69 130.99 20.73 130.99C19.89 130.97 19.05 130.83 18.24 130.6C17.43 130.36 16.65 130.03 15.92 129.6C15.2 129.17 14.53 128.65 13.93 128.05C13.33 127.45 12.82 126.78 12.39 126.05C12.01 125.48 11.67 124.88 11.36 124.26C11.05 123.65 10.78 123.02 10.55 122.37C10.32 121.72 10.13 121.06 9.98 120.39C9.83 119.72 9.72 119.04 9.65 118.35C9.46 115.07 11.22 112.04 12.96 111.12C13.76 110.69 15.39 110.24 17.24 111.99L19.23 109.29C18.91 109.12 18.6 108.93 18.29 108.73C17.99 108.53 17.69 108.32 17.41 108.1C17.12 107.87 16.85 107.64 16.58 107.39C16.31 107.14 16.06 106.88 15.81 106.62C15.56 106.36 15.31 106.08 15.09 105.8C14.86 105.51 14.65 105.21 14.45 104.9C14.26 104.6 14.08 104.28 13.91 103.95C13.75 103.62 13.61 103.29 13.48 102.95C12.85 102.71 12.27 102.36 11.77 101.91C11.27 101.46 10.85 100.93 10.54 100.33C10.23 99.74 10.03 99.09 9.95 98.43C9.87 97.76 9.91 97.08 10.07 96.43C10.29 95.58 10.53 94.74 10.8 93.9C11.06 93.06 11.36 92.23 11.68 91.41C11.99 90.59 12.34 89.79 12.71 88.99C13.08 88.19 13.47 87.41 13.89 86.63C13.61 86.71 13.32 86.78 13.04 86.84C12.75 86.89 12.46 86.94 12.17 86.98C11.88 87.02 11.58 87.06 11.29 87.08C11 87.1 10.7 87.11 10.41 87.11C10.3 87.12 10.19 87.12 10.08 87.11C9.97 87.11 9.86 87.1 9.75 87.1C9.64 87.09 9.53 87.08 9.42 87.06C9.31 87.05 9.2 87.03 9.09 87.01C9 86.99 8.91 86.95 8.83 86.9C8.75 86.85 8.68 86.79 8.62 86.72C8.56 86.64 8.51 86.56 8.48 86.47C8.45 86.38 8.43 86.29 8.43 86.2C8.41 85.85 8 77.75 8.82 73.06C9.67 68.22 15.93 65.84 16.83 65.51ZM25.18 64.26C24.61 64.38 24.04 64.52 23.48 64.68C23.98 64.58 24.56 64.46 25.18 64.31L25.18 64.26L25.18 64.26ZM27.05 63.79L27.05 63.8L27.1 63.78L27.05 63.79ZM27.85 67.94C27.58 66.96 27.35 66.15 27.2 65.59L26.89 65.68C26.58 65.77 26.27 65.85 25.95 65.93C25.63 66.01 25.31 66.09 25.01 66.15C24.31 66.31 23.68 66.44 23.18 66.52C23.33 66.96 23.46 67.39 23.59 67.83C23.72 68.27 23.85 68.71 23.97 69.15C24.09 69.59 24.2 70.03 24.31 70.47C24.41 70.91 24.51 71.36 24.61 71.81C24.75 72.46 24.82 72.79 24.82 72.79C24.89 73.11 24.95 73.43 25.01 73.75C25.21 73.99 25.39 74.23 25.57 74.46C26.74 75.95 27.52 77.13 27.59 77.23C27.62 77.28 27.65 77.33 27.67 77.39C27.7 77.44 27.71 77.5 27.73 77.55C27.74 77.61 27.75 77.67 27.75 77.73C27.75 77.79 27.74 77.84 27.73 77.9C27.73 77.96 27.71 78.01 27.69 78.07C27.67 78.12 27.65 78.18 27.62 78.22C27.59 78.27 27.55 78.32 27.52 78.36C27.48 78.41 27.44 78.45 27.39 78.48L25.98 79.52C26.12 80.48 26.21 81.22 26.27 81.66L27.83 82.79L28.85 83.53L29.45 83.96L29.7 83.39L30.12 82.43L31.15 80.1C30.83 78.92 30.49 77.62 30.13 76.3L29.84 75.23L29.54 74.13C29.21 72.89 28.87 71.68 28.56 70.55L28.22 69.28L27.85 67.94L27.85 67.94ZM16.13 86.4C15.44 87.67 12.59 93.04 11.86 96.83C11.76 97.23 11.72 97.65 11.76 98.06C11.8 98.48 11.91 98.88 12.09 99.26C12.27 99.63 12.52 99.97 12.82 100.26C13.12 100.55 13.47 100.78 13.85 100.95C13.87 100.95 13.9 100.95 13.92 100.96C13.94 100.96 13.96 100.97 13.99 100.97C14.01 100.98 14.03 100.98 14.05 100.99C14.07 101 14.1 101.01 14.12 101.02C14.08 101.01 14.13 101.03 14.16 101.05C14.18 101.06 14.22 101.08 14.25 101.09L14.45 101.19C14.47 101.19 14.49 101.2 14.51 101.2C14.52 101.21 14.54 101.22 14.56 101.23C14.58 101.23 14.6 101.24 14.62 101.25C14.63 101.26 14.65 101.27 14.67 101.28C14.74 101.31 14.81 101.34 14.88 101.37C15.17 101.49 15.47 101.61 15.77 101.72C16.37 101.95 16.98 102.17 17.59 102.38C18.81 102.81 20.05 103.21 21.28 103.61C20 103.54 18.71 103.46 17.42 103.36C16.82 103.31 16.22 103.25 15.62 103.19C15.72 103.37 15.83 103.55 15.94 103.73C16.06 103.9 16.18 104.07 16.3 104.24C16.42 104.41 16.55 104.57 16.69 104.73C16.82 104.89 16.96 105.05 17.1 105.2C17.34 105.46 17.58 105.7 17.84 105.93C18.09 106.17 18.36 106.39 18.64 106.59C18.91 106.8 19.2 107 19.49 107.18C19.78 107.36 20.09 107.53 20.39 107.69C20.68 107.83 20.97 107.97 21.27 108.09C21.57 108.21 21.88 108.33 22.2 108.43C22.52 108.53 22.86 108.62 23.19 108.7C23.52 108.78 23.86 108.85 24.2 108.9C24.54 108.96 24.88 109.01 25.22 109.04C25.56 109.08 25.91 109.1 26.25 109.11C26.36 109.11 26.46 109.12 26.57 109.12C26.68 109.12 26.78 109.12 26.89 109.11C27 109.11 27.1 109.11 27.21 109.1C27.32 109.09 27.42 109.08 27.53 109.07C27.64 109.06 27.75 109.05 27.86 109.04C27.97 109.02 28.08 109.01 28.19 108.99C28.3 108.97 28.41 108.95 28.52 108.93C28.63 108.91 28.74 108.88 28.84 108.86C28.97 108.83 29.1 108.79 29.22 108.76C29.35 108.73 29.47 108.69 29.59 108.65C29.72 108.61 29.84 108.57 29.96 108.53C30.09 108.48 30.21 108.44 30.33 108.39C30.54 108.3 30.74 108.21 30.95 108.12C31.15 108.02 31.35 107.92 31.55 107.82C31.75 107.71 31.95 107.6 32.14 107.48C32.33 107.37 32.52 107.25 32.71 107.12C33.01 106.92 33.29 106.71 33.53 106.52C33.88 106.23 34.16 105.98 34.36 105.79C34.58 105.58 34.69 105.45 34.7 105.45L34.72 105.43C34.73 105.41 34.75 105.39 34.76 105.37C34.78 105.35 34.79 105.33 34.81 105.31C34.82 105.29 34.84 105.27 34.86 105.25C34.88 105.24 34.9 105.22 34.92 105.21C35.21 104.98 35.53 104.71 35.83 104.44L36 104.29C36.27 104.04 36.53 103.8 36.79 103.54C36.88 103.45 36.97 103.37 37.06 103.28C37.25 103.09 37.43 102.9 37.62 102.7C37.77 102.53 37.92 102.37 38.07 102.2C38.4 101.83 38.71 101.44 39.02 101.04C38.85 101.53 38.66 102.01 38.45 102.48C38.39 102.61 38.33 102.74 38.27 102.87C38.13 103.17 37.99 103.47 37.84 103.77C37.82 103.81 37.8 103.84 37.78 103.88C37.65 104.14 37.51 104.41 37.37 104.67L37.3 104.79L37.63 104.73C38.25 104.62 38.92 104.49 39.54 104.36C39.97 104.27 40.37 104.18 40.72 104.08L40.83 104.05C41.86 103.77 44.46 102.7 46.34 98.81C47.85 95.7 46.39 90.83 44.71 89.19C44.67 89.14 44.62 89.09 44.59 89.04C44.55 88.98 44.52 88.93 44.49 88.87C44.47 88.81 44.45 88.74 44.43 88.68C44.42 88.62 44.41 88.55 44.41 88.49C44.38 88.04 44.35 87.6 44.3 87.16C44.25 86.72 44.2 86.28 44.14 85.84C44.07 85.4 44 84.96 43.92 84.53C43.84 84.09 43.75 83.66 43.65 83.23C43.58 82.95 43.52 82.67 43.45 82.38C43.42 82.29 43.4 82.21 43.38 82.13C43.36 82.13 43.34 82.14 43.32 82.14C43.31 82.14 43.3 82.15 43.29 82.15C43.28 82.15 43.26 82.15 43.25 82.15C43.24 82.15 43.23 82.15 43.22 82.15C43.21 82.16 43.2 82.16 43.19 82.16C43.15 82.16 43.11 82.15 43.08 82.15C43.04 82.14 43.01 82.14 42.97 82.12C42.94 82.11 42.9 82.1 42.87 82.09C42.84 82.07 42.8 82.05 42.77 82.03L42.14 81.63L41.9 81.47L40.77 80.76L39.76 80.11L39.32 79.82C39.26 79.78 39.2 79.73 39.15 79.68C39.1 79.62 39.05 79.56 39.02 79.49C38.98 79.42 38.96 79.35 38.94 79.28C38.92 79.21 38.92 79.13 38.92 79.06C38.9 78.63 38.88 78.2 38.85 77.77C38.82 77.34 38.77 76.92 38.72 76.49C38.67 76.07 38.61 75.64 38.54 75.22C38.47 74.8 38.39 74.37 38.29 73.96C37.98 74.23 37.66 74.49 37.31 74.73C36.97 74.96 36.61 75.18 36.24 75.37C35.87 75.56 35.49 75.73 35.1 75.88C34.71 76.02 34.31 76.14 33.9 76.24C33.74 76.28 33.57 76.31 33.4 76.33C33.23 76.36 33.06 76.39 32.89 76.4C32.72 76.42 32.55 76.43 32.38 76.44C32.2 76.45 32.03 76.46 31.86 76.45C32.19 77.67 32.5 78.85 32.79 79.93C32.8 79.98 32.81 80.03 32.81 80.08C32.82 80.14 32.82 80.19 32.82 80.24C32.81 80.3 32.8 80.35 32.79 80.4C32.78 80.45 32.76 80.5 32.74 80.55L32.05 82.12L31.2 84.04L30.5 85.63C30.48 85.69 30.45 85.74 30.42 85.79C30.38 85.84 30.34 85.89 30.3 85.93C30.25 85.97 30.2 86 30.15 86.03C30.1 86.06 30.04 86.09 29.99 86.11C29.97 86.11 29.95 86.11 29.93 86.12C29.92 86.12 29.9 86.13 29.88 86.13C29.86 86.13 29.84 86.13 29.82 86.13C29.81 86.14 29.79 86.14 29.77 86.14C29.73 86.14 29.69 86.13 29.65 86.13C29.61 86.12 29.57 86.11 29.53 86.1C29.49 86.09 29.46 86.07 29.42 86.05C29.39 86.03 29.35 86.01 29.32 85.99L27.91 84.97L30.32 89.67C30.57 89.67 30.83 89.68 31.08 89.71C31.33 89.74 31.58 89.79 31.82 89.85C32.07 89.91 32.31 89.99 32.55 90.08C32.79 90.17 33.02 90.27 33.24 90.39C33.8 90.7 34.31 91.08 34.77 91.52C35.23 91.97 35.63 92.47 35.96 93.01C36.29 93.56 36.55 94.14 36.73 94.76C36.9 95.37 37 96 37.01 96.64C37.02 96.93 37.02 97.23 37 97.52C36.98 97.82 36.94 98.11 36.88 98.4C36.83 98.69 36.76 98.97 36.67 99.25C36.58 99.53 36.48 99.81 36.36 100.08C36.29 100.23 36.22 100.38 36.15 100.52C36.07 100.67 35.99 100.81 35.9 100.95C35.82 101.09 35.73 101.22 35.63 101.36C35.54 101.49 35.44 101.62 35.34 101.75C35.3 101.79 35.26 101.83 35.22 101.87C35.18 101.9 35.13 101.93 35.08 101.96C35.03 101.98 34.98 102 34.93 102.02C34.87 102.03 34.82 102.04 34.76 102.05C34.71 102.05 34.66 102.04 34.61 102.04C34.56 102.03 34.52 102.02 34.47 102C34.42 101.98 34.38 101.96 34.33 101.93C34.29 101.91 34.25 101.88 34.21 101.85C34.2 101.83 34.18 101.82 34.17 101.81L31.63 99.17C31.56 99.09 31.5 99 31.46 98.9C31.42 98.8 31.39 98.7 31.38 98.59C31.38 98.48 31.39 98.38 31.42 98.27C31.45 98.17 31.49 98.07 31.56 97.99C31.58 97.96 31.59 97.94 31.61 97.91C31.63 97.88 31.64 97.86 31.66 97.83C31.67 97.81 31.69 97.78 31.7 97.75C31.72 97.72 31.73 97.7 31.74 97.67C31.83 97.47 31.88 97.26 31.9 97.04C31.91 96.83 31.88 96.61 31.82 96.4C31.75 96.2 31.64 96 31.51 95.83C31.37 95.67 31.21 95.52 31.02 95.42C30.83 95.32 30.63 95.27 30.42 95.26C30.21 95.24 30 95.28 29.81 95.35C29.61 95.43 29.43 95.54 29.28 95.69C29.14 95.83 29.02 96.01 28.94 96.2C28.85 96.4 28.8 96.61 28.79 96.83C28.78 97.05 28.8 97.26 28.87 97.47C28.94 97.68 29.04 97.87 29.18 98.04C29.31 98.21 29.48 98.35 29.67 98.46C29.71 98.48 29.75 98.5 29.8 98.52C29.84 98.53 29.89 98.55 29.93 98.56C29.98 98.58 30.02 98.59 30.07 98.6C30.12 98.61 30.16 98.61 30.21 98.62C30.3 98.63 30.38 98.65 30.46 98.69C30.53 98.72 30.61 98.77 30.67 98.83C30.73 98.88 30.79 98.95 30.83 99.02C30.87 99.1 30.91 99.18 30.92 99.26L31.87 103.02C31.88 103.04 31.88 103.06 31.88 103.08C31.89 103.1 31.89 103.12 31.89 103.14C31.9 103.16 31.9 103.18 31.9 103.2C31.9 103.22 31.9 103.24 31.9 103.26C31.9 103.31 31.9 103.35 31.89 103.39C31.88 103.43 31.88 103.47 31.86 103.51C31.85 103.55 31.84 103.59 31.82 103.63C31.81 103.67 31.79 103.71 31.76 103.75C31.73 103.8 31.7 103.85 31.66 103.89C31.62 103.93 31.57 103.97 31.52 104C31.47 104.04 31.42 104.07 31.36 104.09C31.31 104.11 31.25 104.12 31.19 104.13C30.92 104.17 30.65 104.19 30.37 104.19C30.1 104.19 29.83 104.18 29.55 104.14C29.28 104.11 29.01 104.05 28.75 103.98C28.49 103.91 28.23 103.82 27.97 103.72C27.79 103.64 27.62 103.56 27.44 103.47C27.04 103.26 26.66 103 26.3 102.71C25.95 102.42 25.62 102.09 25.33 101.74C25.04 101.38 24.79 101 24.57 100.6C24.35 100.19 24.18 99.77 24.04 99.33C23.9 98.88 23.79 98.42 23.73 97.95C23.67 97.48 23.65 97 23.68 96.53C23.7 96.06 23.77 95.59 23.88 95.13C23.99 94.67 24.14 94.22 24.33 93.79C24.39 93.65 24.46 93.51 24.53 93.38L19.09 85.94L18.5 85.14L18.3 84.87C18.05 85 17.81 85.13 17.56 85.25L17.51 85.29L16.18 86.3L16.13 86.4L16.13 86.4ZM25.68 91.75C25.85 91.57 26.03 91.39 26.22 91.23C26.41 91.07 26.61 90.92 26.82 90.78C27.03 90.64 27.24 90.51 27.47 90.39C27.69 90.28 27.92 90.18 28.15 90.09C28.23 90.06 28.32 90.03 28.4 90L25.79 84.9L25.37 84.07L24.94 83.25L23.84 81.1L22.32 82.23C21.5 82.87 20.71 83.43 19.94 83.92L20.01 84.02L21.19 85.62L25.68 91.75ZM34.72 66.69C34.68 66.33 34.63 65.97 34.58 65.61C34.53 65.26 34.47 64.9 34.4 64.54C34.34 64.19 34.26 63.83 34.18 63.48L34.16 63.38L32.82 63.46L28.57 63.7L28.14 63.72C28.15 63.73 28.16 63.74 28.17 63.75C28.21 63.78 28.25 63.81 28.29 63.84C28.33 63.88 28.36 63.92 28.39 63.96C28.42 64 28.45 64.05 28.47 64.09C28.49 64.14 28.51 64.19 28.52 64.24C28.53 64.28 29.08 66.25 29.82 68.95C29.9 68.98 29.98 69.01 30.07 69.04C30.15 69.07 30.23 69.1 30.31 69.13C30.39 69.15 30.47 69.18 30.56 69.2C30.64 69.23 30.72 69.25 30.8 69.27C31.11 69.35 31.41 69.39 31.73 69.4C32.04 69.4 32.35 69.38 32.65 69.31C32.96 69.25 33.25 69.16 33.54 69.03C33.82 68.9 34.09 68.74 34.34 68.55C34.4 68.51 34.46 68.46 34.51 68.4C34.56 68.34 34.61 68.28 34.65 68.21C34.69 68.14 34.72 68.07 34.75 68C34.78 67.93 34.8 67.85 34.81 67.77C34.78 67.41 34.75 67.05 34.72 66.69ZM37.81 71.79C37.59 70.92 37.32 69.99 37 69.02C37 69 36.99 68.98 36.99 68.97L36.64 67.63C36.64 67.68 36.64 67.73 36.64 67.78C36.63 68 36.6 68.23 36.55 68.45C36.49 68.67 36.41 68.88 36.31 69.08C36.21 69.28 36.09 69.47 35.95 69.65C35.81 69.82 35.65 69.98 35.47 70.12C35.12 70.4 34.74 70.63 34.34 70.82C33.94 71.01 33.52 71.16 33.09 71.25C32.65 71.35 32.21 71.39 31.77 71.39C31.32 71.38 30.88 71.33 30.45 71.22C30.73 72.26 31.03 73.35 31.33 74.45C31.51 74.47 31.69 74.47 31.88 74.48C32.06 74.48 32.25 74.47 32.43 74.46C32.61 74.45 32.8 74.43 32.98 74.4C33.16 74.38 33.34 74.34 33.52 74.31C33.93 74.21 34.33 74.08 34.72 73.92C35.11 73.76 35.49 73.58 35.85 73.36C36.21 73.15 36.56 72.91 36.89 72.65C37.21 72.39 37.52 72.1 37.81 71.79L37.81 71.79ZM39.87 69.17C39.56 68.7 39.27 68.29 38.98 67.93C38.69 67.57 38.41 67.24 38.15 66.96L38.34 67.69L38.54 68.45C38.74 69.06 38.92 69.66 39.08 70.23C39.19 70.62 39.3 71.01 39.39 71.38C39.54 71.96 39.67 72.52 39.78 73.04C39.88 73.5 39.98 73.95 40.06 74.41C40.14 74.87 40.21 75.33 40.28 75.79C40.34 76.25 40.39 76.71 40.44 77.17C40.48 77.64 40.52 78.1 40.54 78.56L42.01 79.5L42.7 79.94L42.74 79.81L42.84 79.44L43.16 78.18L43.29 77.69L43.39 77.3C43.32 77.02 43.25 76.75 43.17 76.48C43.09 76.21 43.01 75.95 42.92 75.68C42.84 75.41 42.75 75.15 42.66 74.88C42.57 74.62 42.47 74.35 42.37 74.09C42.27 73.82 42.16 73.56 42.06 73.3C41.91 72.94 41.75 72.58 41.59 72.23C41.42 71.87 41.25 71.53 41.07 71.18C40.88 70.84 40.69 70.5 40.49 70.16C40.3 69.83 40.09 69.49 39.87 69.17L39.87 69.17ZM44.97 80.84C44.97 80.84 44.97 80.84 44.97 80.84C44.97 80.84 44.97 80.84 44.97 80.84L44.97 80.84ZM44.97 80.84C45.27 80.69 45.56 80.51 45.84 80.31C46.12 80.11 46.38 79.9 46.62 79.66C46.87 79.43 47.09 79.17 47.3 78.9C47.51 78.64 47.7 78.35 47.87 78.06C47.33 76.7 45.07 72.15 44.75 71.51C44.45 71.1 44.13 70.7 43.8 70.31C43.48 69.92 43.13 69.55 42.78 69.18C42.42 68.82 42.06 68.46 41.68 68.13C41.3 67.79 40.91 67.46 40.51 67.15C41.04 67.89 41.54 68.66 42 69.45C42.46 70.24 42.88 71.05 43.26 71.88C43.64 72.71 43.97 73.56 44.27 74.43C44.56 75.29 44.81 76.17 45.02 77.06C45.03 77.1 45.04 77.14 45.04 77.18C45.05 77.22 45.05 77.26 45.05 77.3C45.05 77.34 45.05 77.38 45.04 77.42C45.04 77.46 45.03 77.5 45.02 77.54L44.54 79.37C44.7 79.87 44.84 80.36 44.97 80.84ZM36.92 128.25C36.92 128.26 36.92 128.26 36.92 128.27C36.92 128.27 36.92 128.28 36.92 128.28C36.93 128.29 36.93 128.29 36.93 128.3C36.93 128.31 36.93 128.31 36.94 128.32C37 128.51 37.28 128.77 37.82 128.98C37.95 129.02 38.07 129.06 38.2 129.1C38.33 129.14 38.46 129.17 38.59 129.2C38.73 129.23 38.86 129.25 38.99 129.27C39.12 129.29 39.26 129.31 39.39 129.32C39.85 129.35 40.32 129.36 40.78 129.35C41.25 129.34 41.71 129.31 42.17 129.26C42.63 129.21 43.09 129.14 43.55 129.06C44.01 128.97 44.46 128.86 44.9 128.74C44.92 128.74 44.93 128.74 44.94 128.73C44.95 128.73 44.96 128.73 44.97 128.73C44.98 128.73 44.99 128.72 45 128.72C45.01 128.72 45.02 128.72 45.03 128.72C46 128.59 46.96 128.41 47.91 128.16C48.85 127.92 49.78 127.62 50.69 127.26C51.6 126.91 52.49 126.5 53.35 126.03C54.21 125.57 55.04 125.05 55.84 124.49C56.4 124.08 56.95 123.65 57.47 123.19C57.98 122.72 58.48 122.23 58.95 121.72C59.41 121.2 59.85 120.66 60.26 120.09C60.67 119.53 61.04 118.94 61.39 118.34C62.3 116.64 63.15 114.14 62.05 111.86C61.8 111.41 61.49 111 61.14 110.63C60.79 110.26 60.39 109.94 59.96 109.66C59.53 109.39 59.07 109.17 58.59 109.01C58.1 108.84 57.6 108.74 57.09 108.7C56.94 108.68 56.81 108.67 56.65 108.66C56.49 108.64 56.33 108.63 56.17 108.63C56.1 108.63 56.02 108.63 55.95 108.63C55.7 108.63 55.47 108.65 55.23 108.67C54.65 108.71 54.09 108.81 53.53 108.98C52.98 109.14 52.45 109.37 51.95 109.66C51.45 109.95 50.99 110.29 50.56 110.68C50.14 111.07 49.77 111.51 49.44 111.99C49.18 112.4 48.93 112.81 48.68 113.23C48.44 113.65 48.2 114.07 47.97 114.5C47.75 114.93 47.53 115.36 47.32 115.8C47.11 116.24 46.91 116.68 46.71 117.13C45.12 120.6 43.61 123.88 39.42 125.98C37.46 126.96 36.91 127.88 36.92 128.25L36.92 128.25ZM39.34 120.15C39.12 120.33 38.89 120.51 38.65 120.66C38.41 120.82 38.16 120.97 37.9 121.09C37.65 121.22 37.38 121.33 37.11 121.42C36.84 121.52 36.56 121.6 36.28 121.65C35.92 121.72 35.78 122.44 35.73 122.75C35.7 123.03 35.68 123.31 35.67 123.59C35.66 123.87 35.67 124.16 35.69 124.44C35.71 124.72 35.75 125 35.79 125.28C35.84 125.56 35.9 125.84 35.98 126.11C36.16 125.91 36.36 125.71 36.57 125.53C36.78 125.35 36.99 125.17 37.22 125.01C37.44 124.85 37.68 124.69 37.92 124.55C38.16 124.41 38.4 124.28 38.66 124.17C42.26 122.36 43.57 119.52 45.08 116.23C45.28 115.76 45.49 115.3 45.72 114.83C45.94 114.37 46.17 113.92 46.41 113.46C46.65 113.01 46.9 112.56 47.16 112.12C47.42 111.68 47.69 111.24 47.96 110.81C48.16 110.52 48.37 110.23 48.6 109.96C48.83 109.7 49.07 109.44 49.33 109.2C49.59 108.96 49.86 108.73 50.14 108.52C50.43 108.31 50.72 108.11 51.03 107.94C50.61 107.96 50.19 108.01 49.77 108.08C49.35 108.15 48.94 108.25 48.54 108.37C48.13 108.49 47.73 108.63 47.34 108.79C46.95 108.95 46.57 109.14 46.2 109.35C45.82 109.57 45.46 109.82 45.11 110.09C44.76 110.37 44.44 110.67 44.13 110.98C43.83 111.3 43.54 111.64 43.28 112C43.02 112.36 42.79 112.73 42.58 113.12C42.52 113.23 42.47 113.34 42.41 113.44C42.35 113.55 42.3 113.66 42.25 113.77C42.19 113.88 42.14 113.99 42.09 114.1C42.04 114.21 42 114.32 41.95 114.43C41.82 114.72 41.71 115.02 41.61 115.33C41.5 115.63 41.41 115.94 41.32 116.24C41.24 116.55 41.17 116.87 41.1 117.18C41.04 117.49 40.99 117.81 40.95 118.13C40.95 118.17 40.94 118.22 40.93 118.26C40.92 118.3 40.91 118.35 40.89 118.39C40.88 118.43 40.86 118.47 40.84 118.51C40.82 118.55 40.8 118.59 40.78 118.63C40.67 118.77 40.57 118.91 40.46 119.04C40.34 119.18 40.23 119.31 40.11 119.44C39.99 119.56 39.87 119.69 39.74 119.81C39.61 119.93 39.48 120.04 39.34 120.15L39.34 120.15ZM34.81 107.99C35.07 108.84 35.35 109.69 35.66 110.53C35.97 111.36 36.29 112.2 36.64 113.02C36.99 113.84 37.36 114.65 37.76 115.46C38.15 116.26 38.56 117.05 38.99 117.83C39.06 117.76 39.12 117.69 39.16 117.63C39.22 117.22 39.3 116.8 39.39 116.39C39.48 115.98 39.58 115.57 39.71 115.17C39.83 114.77 39.97 114.37 40.12 113.98C40.27 113.58 40.44 113.2 40.62 112.82C40.11 110.51 39.63 108.05 39.33 106.45C37.9 106.74 36.42 106.98 35.8 107.08C35.72 107.16 35.64 107.24 35.56 107.32C35.48 107.39 35.4 107.47 35.32 107.55C35.23 107.62 35.15 107.7 35.07 107.77C34.98 107.84 34.9 107.92 34.81 107.99L34.81 107.99ZM15.14 115.2C15.14 115.14 15.14 115.09 15.15 115.03C15.16 114.98 15.17 114.93 15.19 114.87C15.21 114.82 15.23 114.77 15.25 114.72C15.28 114.67 15.31 114.62 15.34 114.58L16.1 113.55L16.06 113.51C15.23 112.72 14.48 112.52 13.76 112.91C12.44 113.61 11.36 116.14 11.48 118.23C11.63 120.99 14.22 129.01 20.73 129.01C24.22 129.01 25.81 127.48 26.54 126.21C26.74 125.86 26.89 125.49 27 125.11C27.12 124.73 27.19 124.34 27.21 123.94C27.24 123.54 27.22 123.14 27.15 122.75C27.09 122.36 26.98 121.97 26.82 121.61C26.66 121.28 26.45 120.97 26.2 120.7C25.96 120.43 25.67 120.2 25.35 120.01C25.04 119.82 24.69 119.68 24.34 119.59C23.98 119.5 23.61 119.46 23.24 119.48C23.21 119.48 23.18 119.48 23.15 119.48C23.12 119.48 23.09 119.48 23.05 119.48C23.02 119.49 22.99 119.49 22.96 119.49C22.93 119.49 22.9 119.5 22.87 119.5C22.78 119.51 22.7 119.5 22.61 119.49C22.53 119.47 22.45 119.45 22.37 119.41C22.29 119.37 22.22 119.32 22.16 119.26C22.1 119.2 22.05 119.13 22 119.06C21.99 119.03 21.97 119.01 21.96 118.98C21.95 118.95 21.94 118.93 21.92 118.9C21.91 118.87 21.9 118.84 21.9 118.81C21.89 118.79 21.88 118.76 21.87 118.73C21.76 118.84 21.63 118.94 21.51 119.04C21.38 119.14 21.25 119.24 21.12 119.34C20.99 119.43 20.86 119.52 20.72 119.61C20.59 119.69 20.45 119.77 20.31 119.85C20.16 119.93 20.02 120 19.87 120.06C19.72 120.12 19.56 120.18 19.41 120.22C19.25 120.26 19.09 120.3 18.93 120.32C18.77 120.34 18.61 120.36 18.44 120.36C18.31 120.36 18.18 120.35 18.05 120.34C17.92 120.32 17.79 120.29 17.67 120.25C17.54 120.21 17.42 120.16 17.3 120.11C17.18 120.05 17.07 119.98 16.96 119.91C15.19 118.69 15.14 115.55 15.14 115.2ZM18.7 113.19L17.54 114.76L16.98 115.53C17.04 116.39 17.3 117.79 17.94 118.23C18.29 118.47 18.82 118.41 19.52 118.05C19.75 117.91 19.98 117.77 20.19 117.61C20.41 117.45 20.62 117.29 20.83 117.11C21.03 116.94 21.23 116.76 21.42 116.57C21.62 116.39 21.8 116.19 21.98 115.99C22.19 115.76 22.41 115.53 22.64 115.28C22.85 115.05 23.06 114.8 23.27 114.55C24.18 113.5 25.12 112.32 26.04 111.1C25.61 111.09 25.18 111.05 24.75 111C24.32 110.95 23.89 110.88 23.47 110.8C23.04 110.72 22.62 110.62 22.21 110.5C21.79 110.38 21.38 110.25 20.97 110.1L18.7 113.19ZM27.35 98.08C27.28 97.86 27.23 97.64 27.2 97.42C27.17 97.2 27.16 96.97 27.17 96.75C27.18 96.52 27.21 96.3 27.26 96.08C27.32 95.86 27.39 95.65 27.48 95.44C27.64 95.04 27.88 94.68 28.18 94.38C28.48 94.08 28.85 93.85 29.25 93.7C29.65 93.55 30.07 93.48 30.5 93.5C30.93 93.52 31.34 93.63 31.73 93.83C31.92 93.93 32.1 94.05 32.27 94.19C32.44 94.33 32.59 94.48 32.73 94.65C32.87 94.82 32.99 95 33.09 95.2C33.2 95.39 33.28 95.59 33.35 95.8C33.41 96.01 33.46 96.23 33.49 96.44C33.52 96.66 33.53 96.88 33.52 97.1C33.51 97.33 33.48 97.54 33.43 97.76C33.39 97.98 33.32 98.19 33.23 98.39L34.63 99.85C35.01 99.19 35.25 98.47 35.35 97.72C35.44 96.98 35.39 96.22 35.2 95.49C35 94.76 34.67 94.08 34.21 93.48C33.76 92.88 33.19 92.38 32.54 92C32.43 91.94 32.33 91.89 32.22 91.84C32.11 91.8 32.01 91.75 31.9 91.72C31.79 91.68 31.67 91.64 31.56 91.61C31.45 91.58 31.33 91.56 31.22 91.53C31.13 91.52 31.05 91.5 30.96 91.49C30.88 91.48 30.79 91.47 30.7 91.46C30.62 91.46 30.53 91.45 30.44 91.45C30.35 91.45 30.27 91.45 30.18 91.45C30.05 91.46 29.93 91.47 29.8 91.48C29.67 91.5 29.54 91.52 29.42 91.54C29.29 91.57 29.17 91.6 29.05 91.64C28.92 91.67 28.8 91.71 28.68 91.76C28.41 91.86 28.16 91.99 27.91 92.13C27.66 92.28 27.43 92.45 27.21 92.64C26.99 92.82 26.79 93.03 26.61 93.25C26.42 93.47 26.26 93.7 26.12 93.95C26.09 94 26.06 94.05 26.03 94.1C26 94.15 25.97 94.2 25.95 94.25C25.92 94.3 25.89 94.35 25.87 94.4C25.84 94.45 25.82 94.5 25.8 94.56C25.75 94.67 25.7 94.78 25.66 94.89C25.55 95.2 25.46 95.51 25.4 95.84C25.34 96.16 25.3 96.49 25.3 96.81C25.29 97.14 25.31 97.47 25.36 97.79C25.4 98.12 25.48 98.44 25.58 98.75C25.68 99.08 25.81 99.4 25.98 99.71C26.14 100.02 26.34 100.3 26.56 100.57C26.78 100.84 27.02 101.09 27.29 101.31C27.56 101.53 27.85 101.72 28.15 101.89C28.3 101.96 28.45 102.03 28.6 102.09C28.76 102.15 28.91 102.21 29.07 102.25C29.23 102.3 29.39 102.33 29.55 102.36C29.71 102.39 29.88 102.41 30.04 102.42L29.5 100.27C29.45 100.26 29.41 100.24 29.36 100.22C29.32 100.21 29.27 100.19 29.23 100.17C29.18 100.16 29.14 100.14 29.1 100.12C29.05 100.1 29.01 100.08 28.97 100.05C28.78 99.95 28.59 99.83 28.42 99.69C28.26 99.55 28.1 99.4 27.96 99.23C27.82 99.06 27.7 98.88 27.6 98.68C27.5 98.49 27.41 98.29 27.35 98.08L27.35 98.08ZM9.97 78.94C9.9 81.58 9.97 84.11 10.02 85.34C10.32 85.34 10.62 85.34 10.92 85.32C11.22 85.31 11.52 85.28 11.82 85.24C12.11 85.21 12.41 85.16 12.7 85.1C13 85.04 13.29 84.97 13.58 84.89C13.87 84.81 14.17 84.72 14.49 84.62C14.77 84.52 15.07 84.42 15.37 84.3C15.55 84.23 15.73 84.16 15.92 84.08C16.35 83.9 16.8 83.69 17.26 83.45L17.32 83.42C17.58 83.29 17.83 83.15 18.1 83L18.34 82.86C18.53 82.75 18.72 82.64 18.92 82.51C19.13 82.38 19.34 82.25 19.55 82.11C19.76 81.97 19.96 81.83 20.17 81.69C20.37 81.54 20.57 81.4 20.77 81.25C20.98 81.1 21.17 80.95 21.37 80.79L21.39 80.78L23.05 79.55L23.81 78.99L24.21 78.7L24.57 78.43L24.95 78.15L25.69 77.6L25.76 77.54L25.65 77.38C25.37 76.99 25.01 76.49 24.58 75.93C24.25 75.51 23.89 75.05 23.5 74.57L23.37 74.42C23.15 74.16 22.93 73.89 22.7 73.63C22.47 73.37 22.24 73.11 22 72.86C21.82 72.66 21.65 72.48 21.47 72.29C21.28 72.11 21.1 71.93 20.91 71.75C20.72 71.57 20.53 71.4 20.34 71.23C20.14 71.06 19.94 70.9 19.74 70.73C19.66 70.66 19.58 70.57 19.53 70.47C19.47 70.37 19.43 70.26 19.42 70.15C19.4 70.04 19.4 69.92 19.43 69.81C19.45 69.7 19.5 69.59 19.56 69.5C19.57 69.49 19.58 69.47 19.59 69.46C19.6 69.45 19.61 69.44 19.61 69.43C19.62 69.41 19.63 69.4 19.65 69.39C19.66 69.38 19.67 69.37 19.68 69.36C19.74 69.29 19.82 69.24 19.91 69.2C19.99 69.16 20.08 69.14 20.18 69.13C20.27 69.13 20.36 69.14 20.45 69.17C20.54 69.2 20.62 69.24 20.7 69.3C20.88 69.45 21.06 69.6 21.25 69.75C21.43 69.91 21.6 70.07 21.78 70.23C21.95 70.39 22.13 70.55 22.3 70.72C22.47 70.89 22.63 71.06 22.8 71.23C22.7 70.8 22.6 70.37 22.49 69.94C22.38 69.52 22.26 69.09 22.13 68.67C22.01 68.25 21.88 67.83 21.74 67.41C21.6 66.99 21.45 66.58 21.3 66.16C21.28 66.1 21.26 66.04 21.25 65.97C21.24 65.9 21.24 65.84 21.24 65.77C21.24 65.7 21.25 65.63 21.27 65.57C21.29 65.5 21.31 65.44 21.34 65.38C21.35 65.37 21.36 65.36 21.37 65.35C21.05 65.46 20.74 65.58 20.43 65.71C20.13 65.83 19.82 65.96 19.52 66.1C19.22 66.24 18.92 66.38 18.62 66.54C18.32 66.69 18.03 66.84 17.74 67.01L17.72 66.98C17.7 67 17.67 67.02 17.65 67.04C17.63 67.06 17.6 67.08 17.58 67.09C17.55 67.11 17.53 67.12 17.5 67.13C17.47 67.15 17.45 67.16 17.42 67.17C17.13 67.27 16.84 67.39 16.56 67.51C16.28 67.63 16 67.76 15.72 67.89C15.45 68.03 15.18 68.17 14.91 68.32C14.64 68.47 14.38 68.63 14.12 68.8C13.97 68.89 13.83 68.98 13.68 69.08C13.54 69.18 13.4 69.28 13.26 69.39C13.12 69.49 12.99 69.6 12.86 69.71C12.72 69.82 12.59 69.94 12.46 70.06C12.21 70.27 11.97 70.5 11.75 70.75C11.54 71 11.34 71.27 11.17 71.55C10.99 71.84 10.85 72.13 10.72 72.44C10.6 72.75 10.5 73.06 10.42 73.39C10.35 73.85 10.29 74.31 10.24 74.77C10.18 75.23 10.14 75.69 10.1 76.16C10.06 76.62 10.03 77.08 10.01 77.55C9.99 78.01 9.97 78.48 9.97 78.94L9.97 78.94Z" />
		<path id="Layer" fill-rule="evenodd" fill="#000000" d="M31.12 89.15C31.04 89.14 30.96 89.12 30.88 89.08C30.8 89.05 30.73 89 30.67 88.94C30.62 88.87 30.57 88.8 30.54 88.72C30.51 88.64 30.49 88.56 30.5 88.47L30.61 84.38C30.61 84.31 30.62 84.24 30.65 84.17C30.67 84.11 30.71 84.04 30.75 83.99C30.8 83.93 30.85 83.88 30.91 83.84C30.98 83.81 31.04 83.78 31.11 83.76C32.92 83.32 36.69 82.63 39.21 82.18L40.31 81.98C41.09 81.84 41.61 81.75 41.69 81.74C41.78 81.72 41.87 81.73 41.95 81.75C42.04 81.77 42.12 81.81 42.19 81.86C42.27 81.91 42.33 81.98 42.37 82.06C42.42 82.13 42.45 82.22 42.46 82.31C42.47 82.38 42.48 82.45 42.49 82.52C42.53 82.83 42.59 83.12 42.65 83.4C42.69 83.57 42.74 83.74 42.78 83.92C42.83 84.09 42.88 84.26 42.93 84.43C42.99 84.6 43.04 84.77 43.1 84.94C43.16 85.11 43.23 85.28 43.29 85.44C43.32 85.51 43.34 85.58 43.35 85.66C43.35 85.73 43.34 85.81 43.32 85.88C43.3 85.95 43.27 86.02 43.23 86.08C43.19 86.14 43.14 86.19 43.08 86.24L38.88 89.33C38.85 89.35 38.82 89.37 38.79 89.39C38.76 89.4 38.72 89.42 38.69 89.43C38.66 89.44 38.62 89.45 38.59 89.45C38.55 89.46 38.52 89.46 38.48 89.46L38.46 89.46L31.12 89.15ZM38.28 88.12L41.88 85.47C41.82 85.29 41.76 85.11 41.7 84.93C41.64 84.75 41.59 84.57 41.54 84.39C41.49 84.21 41.44 84.02 41.39 83.84C41.35 83.66 41.31 83.47 41.27 83.29C41.26 83.24 41.25 83.2 41.25 83.15L40.95 83.21C38.95 83.56 34.29 84.38 31.91 84.92L31.83 87.84L38.28 88.12Z" />
		<path id="Layer" fill="none" d="M21.07 103.62C19.72 103.55 18.38 103.47 17.03 103.37C16.97 103.14 16.94 102.99 16.94 102.99C16.9 102.93 16.86 102.87 16.83 102.81C16.79 102.74 16.75 102.68 16.72 102.61C16.68 102.55 16.65 102.48 16.61 102.41C16.58 102.35 16.55 102.28 16.52 102.21L17.06 102.39C18.39 102.82 19.73 103.22 21.07 103.62Z" />
		<path id="Layer" fill="none" d="M30.49 88.47L30.6 84.38C30.6 84.31 30.62 84.23 30.64 84.17C30.67 84.1 30.7 84.04 30.75 83.98C30.79 83.92 30.85 83.88 30.91 83.84C30.97 83.8 31.04 83.77 31.11 83.75C32.91 83.31 36.68 82.62 39.2 82.17L40.3 81.97C41.08 81.84 41.6 81.75 41.68 81.73C41.77 81.72 41.86 81.72 41.95 81.74C42.03 81.76 42.12 81.8 42.19 81.85C42.26 81.9 42.32 81.97 42.37 82.05C42.41 82.13 42.44 82.21 42.45 82.3L42.45 82.3C42.46 82.37 42.47 82.45 42.48 82.52C42.53 82.82 42.58 83.11 42.65 83.39C42.69 83.56 42.73 83.74 42.78 83.91C42.82 84.08 42.87 84.25 42.93 84.43C42.98 84.6 43.04 84.77 43.1 84.93C43.16 85.1 43.22 85.27 43.29 85.44C43.32 85.5 43.33 85.58 43.34 85.65C43.34 85.72 43.34 85.8 43.32 85.87C43.3 85.94 43.27 86.01 43.22 86.07C43.18 86.13 43.13 86.19 43.07 86.23L38.87 89.32C38.84 89.34 38.81 89.36 38.78 89.38C38.75 89.39 38.72 89.41 38.68 89.42C38.65 89.43 38.62 89.44 38.58 89.44C38.55 89.45 38.51 89.45 38.48 89.45L38.45 89.45L31.12 89.14C31.03 89.13 30.95 89.11 30.87 89.08C30.8 89.04 30.73 88.99 30.67 88.93C30.61 88.87 30.56 88.79 30.53 88.71C30.5 88.63 30.49 88.55 30.49 88.47L30.49 88.47Z" />
		<g id="Layer">
			<path id="Layer" fill="#bbb9c1" d="M16.92 105.22C16.77 105.07 16.62 104.91 16.47 104.75C16.33 104.59 16.19 104.43 16.05 104.26C15.92 104.09 15.79 103.92 15.66 103.74C15.54 103.57 15.42 103.39 15.31 103.21C15.96 103.27 16.61 103.32 17.26 103.37L17.42 103.38C17.48 103.66 17.55 103.93 17.63 104.21C17.71 104.48 17.8 104.75 17.89 105.02C17.99 105.28 18.09 105.55 18.2 105.81C18.31 106.07 18.43 106.33 18.56 106.59C18.41 106.48 18.27 106.38 18.12 106.27C17.98 106.16 17.84 106.05 17.71 105.94C17.57 105.82 17.44 105.71 17.31 105.59C17.17 105.46 17.05 105.34 16.92 105.22L16.92 105.22Z" />
			<path id="Layer" fill="#bbb9c1" d="M11.23 96.84C12.02 93.04 15.11 87.67 15.86 86.4L15.92 86.3L17.36 85.3L17.42 85.25C17.64 85.15 17.87 85.04 18.1 84.93C17.28 88.03 14.97 97.77 16.92 102.22C16.43 102.06 15.95 101.9 15.47 101.73C15.15 101.62 14.82 101.5 14.51 101.38C14.43 101.36 14.35 101.32 14.28 101.29C14.26 101.28 14.24 101.27 14.22 101.27C14.2 101.26 14.18 101.25 14.16 101.24C14.14 101.23 14.12 101.23 14.1 101.22C14.08 101.21 14.06 101.21 14.04 101.2L13.82 101.11C13.78 101.09 13.74 101.07 13.72 101.06C13.69 101.04 13.63 101.02 13.67 101.03C13.65 101.02 13.63 101.01 13.6 101.01C13.58 101 13.56 100.99 13.53 100.99C13.51 100.98 13.48 100.98 13.46 100.97C13.43 100.97 13.41 100.97 13.38 100.96C12.98 100.82 12.61 100.6 12.29 100.32C11.97 100.03 11.71 99.7 11.51 99.32C11.31 98.94 11.19 98.53 11.14 98.11C11.09 97.68 11.12 97.26 11.23 96.84Z" />
		</g>
		<path id="Layer" fill="none" d="M30.49 88.47L30.6 84.38C30.6 84.31 30.62 84.23 30.64 84.17C30.67 84.1 30.7 84.04 30.75 83.98C30.79 83.92 30.85 83.88 30.91 83.84C30.97 83.8 31.04 83.77 31.11 83.75C32.91 83.31 36.68 82.62 39.2 82.17L40.3 81.97C41.08 81.84 41.6 81.75 41.68 81.73C41.77 81.72 41.86 81.72 41.95 81.74C42.03 81.76 42.12 81.8 42.19 81.85C42.26 81.9 42.32 81.97 42.37 82.05C42.41 82.13 42.44 82.21 42.45 82.3L42.45 82.3C42.46 82.37 42.47 82.45 42.48 82.52C42.53 82.82 42.58 83.11 42.65 83.39C42.69 83.56 42.73 83.74 42.78 83.91C42.82 84.08 42.87 84.25 42.93 84.43C42.98 84.6 43.04 84.77 43.1 84.93C43.16 85.1 43.22 85.27 43.29 85.44C43.32 85.5 43.33 85.58 43.34 85.65C43.34 85.72 43.34 85.8 43.32 85.87C43.3 85.94 43.27 86.01 43.22 86.07C43.18 86.13 43.13 86.19 43.07 86.23L38.87 89.32C38.84 89.34 38.81 89.36 38.78 89.38C38.75 89.39 38.72 89.41 38.68 89.42C38.65 89.43 38.62 89.44 38.58 89.44C38.55 89.45 38.51 89.45 38.48 89.45L38.45 89.45L31.12 89.14C31.03 89.13 30.95 89.11 30.87 89.08C30.8 89.04 30.73 88.99 30.67 88.93C30.61 88.87 30.56 88.79 30.53 88.71C30.5 88.63 30.49 88.55 30.49 88.47L30.49 88.47Z" />
		<path id="Layer" fill-rule="evenodd" fill="#dfdedd" d="M15.68 102.22C13.74 97.77 16.05 88.03 16.86 84.93L16.99 84.87L17.2 85.14L17.84 85.94L23.75 93.38C23.68 93.51 23.6 93.65 23.54 93.79C23.12 94.65 22.88 95.58 22.83 96.53C22.78 97.48 22.91 98.43 23.22 99.33C23.54 100.23 24.03 101.06 24.66 101.77C25.3 102.48 26.06 103.06 26.92 103.48C27.11 103.57 27.3 103.65 27.5 103.72C27.7 103.8 27.91 103.87 28.12 103.93C28.33 103.99 28.55 104.03 28.76 104.07C28.98 104.11 29.19 104.14 29.41 104.16C29.63 104.18 29.85 104.19 30.07 104.2C30.14 104.19 30.22 104.19 30.3 104.19C30.38 104.19 30.45 104.18 30.53 104.18C30.61 104.17 30.69 104.17 30.77 104.16C30.84 104.15 30.92 104.14 31 104.14C31.1 104.12 31.2 104.09 31.3 104.04C31.39 103.99 31.47 103.92 31.54 103.85C31.61 103.77 31.67 103.67 31.71 103.58C31.74 103.48 31.76 103.37 31.76 103.27C31.76 103.24 31.76 103.22 31.76 103.2C31.76 103.18 31.76 103.16 31.76 103.14C31.76 103.12 31.75 103.1 31.75 103.08C31.75 103.06 31.74 103.04 31.74 103.03L30.71 99.27C30.68 99.18 30.65 99.1 30.6 99.02C30.55 98.94 30.49 98.88 30.42 98.82C30.35 98.76 30.27 98.72 30.19 98.68C30.11 98.65 30.02 98.63 29.93 98.62C29.88 98.61 29.83 98.61 29.78 98.6C29.73 98.59 29.68 98.58 29.63 98.57C29.58 98.55 29.53 98.54 29.48 98.52C29.43 98.5 29.39 98.48 29.34 98.46C28.69 98.15 28.32 97.46 28.4 96.75C28.48 96.04 29 95.46 29.7 95.3C30.39 95.13 31.12 95.43 31.5 96.04C31.88 96.65 31.84 97.43 31.39 97.99C31.33 98.07 31.28 98.17 31.24 98.27C31.21 98.38 31.2 98.49 31.21 98.6C31.21 98.71 31.24 98.81 31.29 98.91C31.33 99.01 31.4 99.1 31.48 99.17L34.23 101.81C34.25 101.82 34.26 101.84 34.28 101.85C34.37 101.92 34.47 101.98 34.58 102.01C34.68 102.05 34.8 102.06 34.91 102.05C35.02 102.04 35.13 102.01 35.23 101.96C35.33 101.91 35.43 101.84 35.5 101.76C36.43 100.71 37.04 99.41 37.25 98.03C37.46 96.64 37.26 95.23 36.69 93.95C36.11 92.67 35.18 91.59 34 90.83C32.82 90.08 31.45 89.68 30.05 89.68L27.43 84.98L28.96 86C29 86.02 29.03 86.05 29.07 86.06C29.11 86.08 29.15 86.1 29.19 86.11C29.23 86.12 29.28 86.13 29.32 86.14C29.36 86.14 29.41 86.15 29.45 86.15C29.47 86.15 29.49 86.15 29.51 86.15C29.53 86.14 29.55 86.14 29.57 86.14C29.59 86.14 29.61 86.13 29.63 86.13C29.64 86.13 29.66 86.12 29.68 86.12C29.74 86.1 29.8 86.08 29.86 86.05C29.91 86.02 29.97 85.98 30.02 85.94C30.06 85.9 30.11 85.86 30.15 85.81C30.19 85.76 30.22 85.7 30.25 85.64L31.01 84.05L31.47 83.09L31.92 82.13L32.68 80.56C32.7 80.51 32.72 80.46 32.73 80.41C32.75 80.36 32.75 80.31 32.76 80.26C32.76 80.2 32.76 80.15 32.76 80.1C32.75 80.04 32.74 79.99 32.73 79.94C32.42 78.86 32.08 77.68 31.72 76.46C31.91 76.47 32.09 76.46 32.28 76.45C32.47 76.45 32.65 76.43 32.84 76.41C33.02 76.4 33.21 76.37 33.39 76.35C33.57 76.32 33.76 76.29 33.94 76.25C34.38 76.16 34.81 76.04 35.23 75.9C35.65 75.75 36.06 75.58 36.46 75.39C36.86 75.2 37.25 74.98 37.63 74.75C38.01 74.51 38.37 74.25 38.71 73.97C38.81 74.38 38.9 74.8 38.98 75.23C39.05 75.65 39.12 76.07 39.18 76.5C39.23 76.93 39.28 77.35 39.32 77.78C39.35 78.21 39.38 78.64 39.39 79.07C39.39 79.14 39.4 79.22 39.42 79.29C39.44 79.37 39.47 79.44 39.5 79.51C39.54 79.58 39.59 79.64 39.64 79.69C39.7 79.75 39.76 79.8 39.82 79.83L40.31 80.12L41.41 80.77L42.63 81.48L42.89 81.64L43.58 82.04C43.63 82.07 43.67 82.09 43.72 82.11C43.77 82.13 43.82 82.14 43.87 82.15C43.92 82.16 43.97 82.17 44.02 82.17C44.08 82.17 44.13 82.16 44.18 82.15C44.2 82.15 44.22 82.14 44.25 82.14C44.27 82.22 44.29 82.3 44.31 82.39C44.39 82.68 44.46 82.96 44.53 83.24C44.63 83.67 44.73 84.1 44.82 84.54C44.91 84.97 44.99 85.41 45.06 85.85C45.13 86.29 45.19 86.73 45.24 87.17C45.29 87.61 45.33 88.05 45.36 88.5C45.36 88.56 45.37 88.63 45.39 88.69C45.4 88.76 45.42 88.82 45.45 88.88C45.48 88.94 45.51 89 45.55 89.05C45.59 89.1 45.64 89.15 45.69 89.2C45.72 89.23 45.75 89.26 45.78 89.29C45.81 89.32 45.84 89.35 45.87 89.38C45.9 89.41 45.93 89.44 45.96 89.47C45.99 89.5 46.02 89.53 46.04 89.56C46.02 92.25 45.44 99.63 40.11 104.36L40.07 104.37C39.4 104.51 38.67 104.63 38 104.75L37.63 104.81L37.71 104.68C37.86 104.42 38.01 104.16 38.16 103.89C38.18 103.86 38.2 103.82 38.22 103.78C38.38 103.48 38.54 103.18 38.69 102.88C38.75 102.75 38.82 102.62 38.88 102.49C39.11 102.02 39.31 101.54 39.5 101.06C39.17 101.45 38.83 101.84 38.47 102.21C38.31 102.38 38.15 102.55 37.98 102.71C37.78 102.91 37.58 103.1 37.37 103.29C37.28 103.38 37.18 103.47 37.08 103.55C36.8 103.81 36.51 104.06 36.22 104.3L36.04 104.45C35.71 104.72 35.37 104.99 35.04 105.22C35.02 105.23 35 105.25 34.98 105.27C34.96 105.29 34.94 105.3 34.92 105.32C34.91 105.34 34.89 105.36 34.87 105.38C34.85 105.4 34.84 105.42 34.82 105.44L34.8 105.46C34.8 105.47 34.67 105.6 34.44 105.8C34.22 105.99 33.92 106.25 33.53 106.53C33.27 106.72 32.97 106.93 32.64 107.13C32.44 107.26 32.23 107.38 32.02 107.5C31.81 107.62 31.6 107.73 31.38 107.83C31.16 107.94 30.94 108.04 30.72 108.14C30.5 108.23 30.28 108.32 30.05 108.4C29.92 108.45 29.79 108.5 29.66 108.54C29.52 108.58 29.39 108.62 29.25 108.66C29.12 108.7 28.98 108.74 28.85 108.77C28.71 108.81 28.58 108.84 28.44 108.87C28.32 108.9 28.2 108.92 28.09 108.94C27.97 108.96 27.85 108.98 27.73 109C27.61 109.02 27.49 109.04 27.37 109.05C27.25 109.06 27.13 109.08 27.01 109.09C26.9 109.1 26.78 109.11 26.66 109.11C26.55 109.12 26.43 109.12 26.32 109.13C26.2 109.13 26.08 109.13 25.97 109.13C25.85 109.13 25.74 109.13 25.62 109.12C25.25 109.11 24.88 109.09 24.51 109.06C24.14 109.02 23.77 108.98 23.4 108.92C23.03 108.86 22.67 108.79 22.3 108.71C21.94 108.63 21.58 108.54 21.22 108.44C20.88 108.34 20.55 108.23 20.22 108.1C19.89 107.98 19.58 107.85 19.27 107.7C19.1 107.62 18.93 107.54 18.76 107.46C18.6 107.37 18.43 107.28 18.27 107.19C18.11 107.09 17.95 107 17.79 106.9C17.63 106.8 17.48 106.69 17.32 106.59C17.2 106.33 17.08 106.07 16.97 105.81C16.86 105.55 16.75 105.28 16.66 105.02C16.56 104.75 16.48 104.48 16.4 104.21C16.32 103.93 16.25 103.66 16.19 103.38C17.54 103.48 18.88 103.56 20.23 103.63C18.89 103.23 17.55 102.82 16.22 102.39L15.68 102.22ZM39.15 89.45L39.18 89.45C39.21 89.45 39.25 89.45 39.28 89.44C39.32 89.44 39.35 89.43 39.38 89.42C39.42 89.41 39.45 89.39 39.48 89.38C39.51 89.36 39.54 89.34 39.57 89.32L43.77 86.23C43.83 86.19 43.88 86.13 43.92 86.07C43.96 86.01 44 85.94 44.02 85.87C44.03 85.8 44.04 85.72 44.04 85.65C44.03 85.58 44.01 85.5 43.99 85.44C43.92 85.27 43.85 85.1 43.79 84.93C43.73 84.77 43.68 84.6 43.62 84.43C43.57 84.25 43.52 84.08 43.47 83.91C43.43 83.74 43.38 83.56 43.35 83.39C43.28 83.11 43.23 82.82 43.18 82.52C43.17 82.45 43.16 82.37 43.15 82.3C43.14 82.21 43.11 82.13 43.06 82.05C43.02 81.97 42.96 81.9 42.89 81.85C42.81 81.8 42.73 81.76 42.65 81.74C42.56 81.72 42.47 81.72 42.38 81.73C42.3 81.75 41.78 81.84 41 81.97L39.9 82.17C37.38 82.62 33.61 83.31 31.8 83.75C31.73 83.77 31.67 83.8 31.61 83.84C31.55 83.88 31.49 83.92 31.45 83.98C31.4 84.04 31.36 84.1 31.34 84.17C31.31 84.23 31.3 84.31 31.3 84.38L31.19 88.47C31.19 88.55 31.2 88.64 31.23 88.72C31.26 88.8 31.31 88.87 31.37 88.93C31.42 89 31.5 89.05 31.57 89.08C31.65 89.12 31.74 89.14 31.82 89.15L39.15 89.45Z" />
		<path id="Layer" fill="#ffffff" d="M44.87 89.57C46.54 91.48 47.82 95.93 46.29 98.83C44.24 102.72 41.42 103.79 40.3 104.07L40.18 104.1C39.81 104.19 39.38 104.28 38.94 104.37C44.27 99.63 44.85 92.25 44.87 89.57Z" />
		<path id="Layer" fill="#dfdedd" d="M34.27 64.59C34.33 64.85 34.38 65.12 34.43 65.38C34.48 65.64 34.52 65.91 34.56 66.17C34.6 66.44 34.63 66.71 34.65 66.97C34.68 67.24 34.7 67.51 34.71 67.77C34.7 67.85 34.68 67.93 34.65 68.01C34.62 68.08 34.58 68.15 34.54 68.22C34.49 68.29 34.44 68.35 34.39 68.4C34.33 68.46 34.27 68.51 34.2 68.56C33.92 68.75 33.63 68.91 33.32 69.03C33.01 69.16 32.69 69.26 32.36 69.32C32.03 69.38 31.69 69.41 31.36 69.4C31.02 69.39 30.69 69.35 30.36 69.27C30.27 69.25 30.18 69.23 30.09 69.2C30 69.18 29.91 69.15 29.83 69.13C29.74 69.1 29.65 69.07 29.56 69.04C29.47 69.01 29.39 68.98 29.3 68.95C29.09 68.25 28.9 67.6 28.72 67.02C29.24 67.02 29.76 66.96 30.27 66.86C30.77 66.75 31.27 66.59 31.75 66.38C32.22 66.18 32.68 65.92 33.1 65.62C33.53 65.32 33.92 64.97 34.27 64.59Z" />
		<path id="Layer" fill="#bbb9c1" d="M27.57 63.75C27.56 63.74 27.55 63.73 27.53 63.72L28.01 63.7L32.62 63.46L34.08 63.38L34.1 63.48C34.18 63.81 34.26 64.19 34.34 64.59C33.99 64.97 33.59 65.32 33.17 65.62C32.75 65.92 32.29 66.18 31.82 66.38C31.34 66.59 30.84 66.75 30.33 66.86C29.82 66.96 29.31 67.02 28.79 67.02C28.29 65.36 27.96 64.27 27.95 64.24C27.94 64.19 27.91 64.14 27.89 64.09C27.87 64.05 27.84 64 27.8 63.96C27.77 63.92 27.74 63.88 27.7 63.84C27.66 63.81 27.61 63.78 27.57 63.75Z" />
		<path id="Layer" fill="#bbb9c1" d="M24.61 66.16C24.94 66.09 25.28 66.01 25.63 65.93C25.98 65.85 26.31 65.77 26.65 65.68L26.99 65.59L27.53 67.4C27.19 67.6 26.86 67.81 26.53 68.03C26.2 68.26 25.88 68.49 25.57 68.73C25.26 68.97 24.95 69.22 24.65 69.48C24.36 69.75 24.07 70.02 23.79 70.3C23.44 68.97 23.05 67.69 22.62 66.53C23.16 66.44 23.85 66.31 24.61 66.16Z" />
		<path id="Layer" fill="#dfdedd" d="M27.36 67.4L27.52 67.94L27.92 69.28L28.3 70.55C28.63 71.68 29 72.89 29.36 74.13L29.69 75.23L30 76.3C30.39 77.62 30.76 78.92 31.1 80.1L29.98 82.43L29.53 83.39L29.25 83.96L28.6 83.52L27.5 82.79L25.8 81.66C25.74 81.22 25.64 80.48 25.49 79.52L27.02 78.48C27.12 78.41 27.2 78.33 27.27 78.23C27.33 78.13 27.37 78.02 27.39 77.9C27.41 77.78 27.41 77.66 27.38 77.55C27.36 77.43 27.31 77.33 27.24 77.23C27.17 77.13 26.31 75.95 25.04 74.46C24.85 74.23 24.64 73.99 24.43 73.75C24.37 73.43 24.3 73.11 24.22 72.79C24.22 72.79 24.15 72.46 24 71.81C23.88 71.3 23.75 70.79 23.62 70.29C23.9 70.01 24.18 69.74 24.48 69.48C24.78 69.22 25.08 68.97 25.4 68.73C25.71 68.49 26.03 68.25 26.36 68.03C26.69 67.81 27.02 67.6 27.36 67.4L27.36 67.4Z" />
		<path id="Layer" fill="#000000" d="M24.64 62.38C24.68 62.31 24.73 62.23 24.79 62.17C24.85 62.11 24.91 62.05 24.99 62C25.06 61.96 25.14 61.92 25.22 61.89C25.3 61.87 25.38 61.85 25.47 61.85L34.88 61.35C34.96 61.35 35.05 61.35 35.13 61.37C35.22 61.39 35.3 61.42 35.38 61.46C35.45 61.49 35.52 61.54 35.59 61.6C35.65 61.66 35.71 61.72 35.76 61.79C34.83 61.73 33.9 61.69 32.97 61.68C32.04 61.67 31.11 61.69 30.18 61.74C29.25 61.78 28.32 61.86 27.4 61.97C26.48 62.08 25.56 62.22 24.64 62.38L24.64 62.38Z" />
		<path id="Layer" fill="#ffea27" d="M26.66 63.79L26.71 63.79L26.66 63.8L26.66 63.79Z" />
		<path id="Layer" fill="#ffea27" d="M22.99 64.68C23.62 64.52 24.24 64.38 24.85 64.26L24.84 64.31C24.17 64.46 23.54 64.58 22.99 64.68Z" />
		<g id="Layer">
			<g id="Layer">
				<path id="Layer" fill="#ffffff" d="M44.58 49.05C43.6 49.05 42.81 47.43 42.81 45.41C42.81 43.39 43.6 41.77 44.58 41.77C45.56 41.77 46.35 43.39 46.35 45.41C46.35 47.43 45.56 49.05 44.58 49.05Z" />
				<path id="Layer" fill="#ffffff" d="M28.67 49.72C27.52 49.72 26.59 47.79 26.59 45.41C26.59 43.03 27.52 41.1 28.67 41.1C29.83 41.1 30.76 43.03 30.76 45.41C30.76 47.79 29.83 49.72 28.67 49.72Z" />
				<path id="Layer" fill="#dfdedd" d="M24.5 21.57C24.23 19.34 23.66 14.64 23.28 11.91C23.48 11.91 23.68 11.9 23.88 11.88C24.08 11.86 24.28 11.83 24.48 11.79C24.67 11.74 24.87 11.69 25.06 11.63C25.25 11.57 25.44 11.5 25.63 11.42C26.02 12.25 26.41 13.09 26.78 13.94C27.16 14.78 27.52 15.63 27.86 16.49C28.21 17.34 28.55 18.2 28.87 19.07C29.19 19.94 29.5 20.81 29.79 21.68C29.35 21.63 28.91 21.58 28.47 21.55C28.03 21.52 27.59 21.49 27.15 21.48C26.7 21.48 26.26 21.48 25.82 21.49C25.38 21.51 24.94 21.53 24.5 21.57Z" />
				<path id="Layer" fill-rule="evenodd" fill="#ffffff" d="M19.6 37.16C19.64 37.13 19.69 37.1 19.74 37.08C19.79 37.06 19.85 37.04 19.9 37.03C19.95 37.02 20.01 37.02 20.06 37.01L20.07 37.01L52.06 37.44C52.17 37.44 52.28 37.47 52.38 37.51C52.48 37.56 52.57 37.62 52.65 37.7C52.72 37.79 52.78 37.88 52.82 37.99C52.85 38.09 52.87 38.2 52.86 38.31L51.99 50C51.99 50.07 51.97 50.14 51.95 50.2C51.93 50.27 51.9 50.33 51.86 50.39C51.82 50.45 51.78 50.5 51.73 50.55C51.68 50.59 51.62 50.63 51.56 50.66L37.77 57.88C37.72 57.9 37.66 57.93 37.6 57.94C37.55 57.96 37.49 57.97 37.43 57.97C37.37 57.97 37.31 57.97 37.26 57.96C37.2 57.95 37.14 57.93 37.09 57.91L20.34 51.19C20.27 51.16 20.2 51.12 20.14 51.07C20.08 51.03 20.02 50.97 19.98 50.91C19.93 50.84 19.9 50.77 19.87 50.7C19.85 50.63 19.83 50.55 19.83 50.47L19.25 37.87C19.24 37.82 19.25 37.76 19.26 37.71C19.26 37.65 19.28 37.6 19.3 37.55C19.32 37.5 19.34 37.45 19.37 37.4C19.4 37.35 19.44 37.31 19.48 37.27C19.51 37.23 19.55 37.2 19.6 37.16ZM20.98 49.37C20.98 49.49 21 49.61 21.04 49.72C21.08 49.84 21.14 49.94 21.21 50.04C21.28 50.14 21.36 50.23 21.45 50.3C21.55 50.37 21.65 50.43 21.76 50.48L36.83 56.53C36.92 56.56 37 56.59 37.09 56.6C37.18 56.61 37.27 56.62 37.36 56.62C37.45 56.61 37.54 56.6 37.63 56.57C37.71 56.55 37.8 56.52 37.88 56.47L50.19 50.03C50.29 49.98 50.38 49.92 50.46 49.85C50.53 49.78 50.6 49.7 50.66 49.61C50.72 49.52 50.77 49.43 50.8 49.33C50.83 49.23 50.86 49.12 50.86 49.01L51.54 39.97C51.55 39.8 51.53 39.63 51.47 39.46C51.42 39.3 51.33 39.15 51.21 39.03C51.1 38.9 50.96 38.8 50.8 38.73C50.64 38.66 50.47 38.62 50.3 38.62L21.79 38.24C21.62 38.24 21.45 38.27 21.29 38.34C21.14 38.41 20.99 38.5 20.87 38.63C20.76 38.75 20.66 38.89 20.6 39.05C20.54 39.21 20.52 39.38 20.52 39.55L20.98 49.37Z" />
				<path id="Layer" fill="#ff581f" d="M43.13 18C41.54 18.8 39.6 18.24 38.69 16.71C37.78 15.18 38.2 13.2 39.67 12.19C41.13 11.17 43.13 11.46 44.25 12.84C45.36 14.23 45.21 16.25 43.91 17.46C43.85 17.51 43.79 17.56 43.73 17.61C43.67 17.66 43.6 17.71 43.54 17.76C43.47 17.8 43.41 17.84 43.34 17.89C43.27 17.93 43.2 17.96 43.13 18L43.13 18Z" />
				<path id="Layer" fill="#dfdedd" d="M42.99 19.94C43.2 20.7 43.39 21.46 43.56 22.23C43.72 22.99 43.86 23.76 43.97 24.54C44.08 25.32 44.16 26.1 44.22 26.88C44.28 27.66 44.31 28.45 44.31 29.23L40.88 29.12C41.09 28.39 41.27 27.66 41.42 26.91C41.57 26.17 41.68 25.42 41.77 24.66C41.85 23.91 41.9 23.15 41.92 22.4C41.94 21.64 41.93 20.88 41.89 20.12C41.98 20.12 42.07 20.11 42.16 20.1C42.26 20.09 42.35 20.08 42.44 20.06C42.53 20.05 42.62 20.03 42.72 20.01C42.81 19.99 42.9 19.97 42.99 19.94Z" />
				<path id="Layer" fill="#ff581f" d="M25.5 9.48C25.34 9.59 25.16 9.68 24.98 9.77C24.8 9.85 24.62 9.92 24.43 9.97C24.24 10.03 24.04 10.07 23.85 10.1C23.65 10.13 23.45 10.14 23.25 10.14C23.17 10.14 23.09 10.14 23 10.13C21.03 10.01 19.41 8.53 19.11 6.58C18.82 4.62 19.93 2.73 21.78 2.03C23.63 1.33 25.71 2.03 26.78 3.69C27.85 5.36 27.6 7.54 26.19 8.93C26.14 8.98 26.09 9.03 26.03 9.08C25.98 9.13 25.92 9.18 25.86 9.23C25.81 9.27 25.75 9.32 25.69 9.36C25.63 9.4 25.57 9.44 25.5 9.48Z" />
				<path id="Layer" fill="#ff8c1b" d="M3.14 33.15L13.22 31.25C13.17 31.39 13.12 31.54 13.08 31.68C13.04 31.83 13 31.98 12.98 32.13C12.95 32.28 12.94 32.44 12.93 32.59C12.92 32.74 12.92 32.89 12.92 33.05L14.03 61.91C14.03 61.99 14.04 62.08 14.05 62.16C14.05 62.25 14.06 62.33 14.08 62.42C14.09 62.5 14.11 62.59 14.13 62.67C14.14 62.75 14.16 62.84 14.19 62.92L5.16 59.7C5.04 59.66 4.92 59.59 4.81 59.52C4.7 59.44 4.61 59.34 4.52 59.24C4.44 59.13 4.37 59.01 4.32 58.89C4.27 58.77 4.24 58.64 4.23 58.5L2 34.66C1.98 34.49 2 34.32 2.05 34.15C2.09 33.98 2.17 33.82 2.28 33.68C2.38 33.54 2.51 33.43 2.66 33.33C2.81 33.24 2.97 33.18 3.14 33.15Z" />
				<path id="Layer" fill="#ff581f" d="M9.64 18.25C9.59 18.3 9.54 18.36 9.48 18.4C9.43 18.45 9.37 18.5 9.31 18.55C9.26 18.59 9.2 18.64 9.14 18.68C9.07 18.72 9.01 18.76 8.95 18.8C8.82 18.87 8.68 18.94 8.55 19C8.41 19.06 8.26 19.11 8.12 19.15C7.97 19.19 7.83 19.22 7.68 19.24C7.53 19.26 7.38 19.27 7.23 19.27C7.19 19.27 7.16 19.27 7.13 19.27C7.09 19.27 7.06 19.27 7.03 19.27C7 19.27 6.96 19.26 6.93 19.26C6.9 19.26 6.87 19.25 6.83 19.25C5.36 19.08 4.16 17.96 3.9 16.5C3.63 15.03 4.36 13.57 5.68 12.89C7 12.21 8.61 12.47 9.65 13.54C10.68 14.61 10.9 16.23 10.18 17.53C10.14 17.59 10.11 17.66 10.06 17.72C10.02 17.79 9.98 17.85 9.94 17.91C9.89 17.97 9.84 18.03 9.8 18.09C9.75 18.14 9.7 18.2 9.64 18.25Z" />
				<path id="Layer" fill="#dfdedd" d="M7.91 21C8.08 20.97 8.25 20.94 8.42 20.9C8.58 20.86 8.74 20.82 8.91 20.76C9.07 20.7 9.22 20.64 9.38 20.57C9.53 20.5 9.68 20.42 9.83 20.33C10.16 21.02 10.46 21.73 10.74 22.44C11.03 23.15 11.29 23.87 11.53 24.59C11.78 25.32 12 26.05 12.2 26.79C12.4 27.53 12.57 28.27 12.73 29.02L8.65 29.68C8.41 26.04 8.11 22.9 7.91 21Z" />
				<path id="Layer" fill-rule="evenodd" fill="#f6be43" d="M15.64 31.1C15.68 31.06 15.72 31.02 15.76 30.99C15.87 30.89 16 30.8 16.13 30.72C16.26 30.64 16.39 30.57 16.54 30.52C16.68 30.46 16.83 30.42 16.98 30.39C17.13 30.36 17.28 30.35 17.43 30.35L17.52 30.35L34.69 30.91L54.19 31.54C54.54 31.55 54.87 31.63 55.18 31.78C55.49 31.92 55.77 32.13 56 32.39C56.23 32.64 56.4 32.94 56.51 33.27C56.62 33.6 56.66 33.94 56.63 34.28L54.62 58.56C54.6 58.85 54.52 59.14 54.4 59.41C54.28 59.67 54.11 59.92 53.9 60.13C53.7 60.33 53.46 60.51 53.19 60.63C52.93 60.76 52.64 60.84 52.35 60.87L19.86 64.15L18.79 64.26C18.77 64.26 18.74 64.27 18.71 64.27C18.68 64.27 18.65 64.27 18.63 64.27C18.6 64.27 18.57 64.27 18.54 64.27C18.51 64.27 18.49 64.27 18.46 64.27C18.34 64.27 18.21 64.26 18.09 64.23C17.97 64.21 17.85 64.18 17.74 64.14C17.62 64.11 17.51 64.06 17.4 64C17.29 63.95 17.19 63.89 17.08 63.81C17.07 63.8 17.05 63.79 17.03 63.78C17.01 63.76 17 63.75 16.98 63.74C16.96 63.72 16.95 63.71 16.93 63.69C16.91 63.68 16.89 63.67 16.88 63.65C16.75 63.54 16.63 63.41 16.52 63.28C16.42 63.14 16.33 62.99 16.25 62.84C16.18 62.68 16.12 62.52 16.08 62.35C16.04 62.18 16.02 62.01 16.01 61.84L14.91 32.98C14.9 32.82 14.91 32.66 14.93 32.5C14.95 32.35 14.99 32.19 15.05 32.04C15.1 31.89 15.17 31.75 15.25 31.61C15.33 31.47 15.42 31.34 15.52 31.22C15.56 31.18 15.6 31.14 15.64 31.1ZM18.5 50.54C18.52 50.75 18.56 50.95 18.62 51.14C18.69 51.33 18.79 51.51 18.9 51.68C19.02 51.85 19.16 51.99 19.32 52.12C19.48 52.25 19.66 52.35 19.84 52.43L36.59 59.15C36.74 59.21 36.88 59.25 37.04 59.28C37.19 59.3 37.34 59.31 37.5 59.3C37.65 59.3 37.8 59.27 37.95 59.23C38.1 59.19 38.25 59.13 38.38 59.06L52.17 51.85C52.33 51.77 52.48 51.66 52.62 51.54C52.75 51.42 52.87 51.28 52.97 51.13C53.07 50.98 53.15 50.81 53.21 50.64C53.27 50.47 53.3 50.29 53.32 50.11L54.19 38.42C54.21 38.13 54.17 37.84 54.07 37.56C53.98 37.29 53.83 37.03 53.63 36.82C53.43 36.6 53.19 36.43 52.93 36.31C52.66 36.19 52.37 36.13 52.08 36.12L20.09 35.7L20.06 35.7C19.92 35.7 19.78 35.71 19.64 35.74C19.5 35.77 19.36 35.81 19.23 35.87C19.1 35.93 18.97 35.99 18.85 36.07C18.73 36.16 18.62 36.25 18.52 36.35C18.5 36.38 18.48 36.4 18.46 36.43C18.37 36.53 18.29 36.64 18.22 36.76C18.15 36.88 18.09 37 18.04 37.13C18 37.26 17.97 37.39 17.95 37.53C17.93 37.66 17.92 37.8 17.92 37.94L18.5 50.54Z" />
				<path id="Layer" fill-rule="evenodd" fill="#000000" d="M0.12 33.61C0.24 33.2 0.43 32.82 0.68 32.48C0.93 32.15 1.25 31.86 1.61 31.64C1.97 31.42 2.36 31.27 2.78 31.19L6.93 30.41C6.68 26.36 6.34 22.87 6.13 20.92C3.89 20.43 2.24 18.51 2.1 16.21C1.96 13.91 3.36 11.8 5.53 11.04C7.7 10.28 10.11 11.06 11.44 12.94C12.76 14.82 12.67 17.35 11.22 19.14C11.57 19.86 11.9 20.58 12.21 21.32C12.51 22.06 12.8 22.81 13.06 23.56C13.33 24.32 13.57 25.08 13.78 25.85C14 26.62 14.19 27.39 14.37 28.17L16.37 23.71C16.39 23.64 16.43 23.58 16.47 23.53C16.51 23.47 16.55 23.42 16.6 23.38C16.66 23.33 16.71 23.29 16.77 23.25C16.83 23.22 16.89 23.19 16.95 23.17C17.43 23.01 17.9 22.86 18.38 22.72C18.85 22.58 19.33 22.46 19.82 22.34C20.3 22.22 20.78 22.12 21.27 22.02C21.76 21.93 22.25 21.84 22.74 21.77C22.46 19.39 21.82 14.17 21.46 11.63C18.87 10.81 17.17 8.35 17.31 5.64C17.46 2.93 19.41 0.67 22.07 0.13C24.72 -0.41 27.41 0.91 28.6 3.34C29.79 5.78 29.19 8.71 27.13 10.48C27.58 11.41 28.01 12.36 28.43 13.31C28.85 14.26 29.26 15.22 29.65 16.19C30.03 17.15 30.41 18.12 30.77 19.1C31.12 20.07 31.46 21.06 31.79 22.04C32.17 22.12 32.55 22.22 32.92 22.32C33.29 22.43 33.66 22.55 34.02 22.69C34.39 22.83 34.74 22.98 35.1 23.15C35.45 23.31 35.79 23.49 36.13 23.68C36.16 23.7 36.2 23.73 36.23 23.75C36.26 23.78 36.29 23.81 36.32 23.83C36.34 23.86 36.37 23.89 36.39 23.93C36.42 23.96 36.44 23.99 36.46 24.03L39.14 28.75C39.35 28.03 39.53 27.31 39.68 26.58C39.82 25.85 39.94 25.11 40.02 24.37C40.1 23.63 40.15 22.88 40.16 22.14C40.18 21.39 40.16 20.65 40.11 19.9C37.82 19.2 36.32 17.02 36.49 14.63C36.65 12.25 38.44 10.29 40.79 9.91C43.15 9.53 45.46 10.82 46.37 13.03C47.28 15.24 46.54 17.79 44.6 19.17C44.84 19.99 45.06 20.82 45.25 21.66C45.43 22.49 45.59 23.33 45.71 24.18C45.84 25.02 45.93 25.88 45.99 26.73C46.05 27.58 46.08 28.44 46.08 29.29L54.26 29.56C54.87 29.58 55.48 29.72 56.03 29.98C56.59 30.24 57.08 30.61 57.49 31.07C57.9 31.53 58.21 32.06 58.4 32.64C58.6 33.22 58.67 33.84 58.62 34.45L56.61 58.73C56.56 59.25 56.43 59.76 56.21 60.24C55.99 60.71 55.69 61.15 55.33 61.52C54.96 61.89 54.53 62.2 54.06 62.43C53.58 62.66 53.08 62.8 52.56 62.85L19 66.24C18.96 66.25 18.92 66.25 18.89 66.25C18.85 66.25 18.81 66.26 18.77 66.26C18.74 66.26 18.7 66.26 18.66 66.26C18.62 66.26 18.59 66.26 18.55 66.27C18.37 66.26 18.2 66.25 18.03 66.23C17.85 66.21 17.68 66.18 17.51 66.14C17.34 66.1 17.17 66.05 17.01 65.99C16.84 65.93 16.68 65.86 16.53 65.79C16.46 65.78 16.4 65.77 16.34 65.76C16.28 65.75 16.22 65.74 16.16 65.72C16.1 65.71 16.04 65.69 15.98 65.67C15.92 65.66 15.86 65.64 15.8 65.62L4.5 61.59C4.19 61.48 3.91 61.33 3.65 61.14C3.38 60.95 3.15 60.72 2.95 60.47C2.75 60.21 2.59 59.93 2.47 59.63C2.35 59.33 2.28 59.02 2.25 58.69L0.01 34.86C-0.03 34.44 0.01 34.01 0.12 33.61ZM26.2 8.93C27.61 7.54 27.85 5.36 26.78 3.69C25.72 2.03 23.63 1.34 21.78 2.03C19.93 2.73 18.82 4.62 19.12 6.58C19.41 8.53 21.03 10.01 23.01 10.13C23.09 10.14 23.17 10.15 23.26 10.15C23.46 10.14 23.65 10.13 23.85 10.1C24.05 10.07 24.24 10.03 24.43 9.97C24.62 9.92 24.81 9.85 24.99 9.77C25.17 9.69 25.34 9.59 25.51 9.49C25.57 9.45 25.63 9.4 25.69 9.36C25.75 9.32 25.81 9.27 25.87 9.23C25.92 9.18 25.98 9.14 26.04 9.09C26.09 9.04 26.15 8.99 26.2 8.94L26.2 8.93ZM29.8 21.68C29.8 21.68 29.79 21.68 29.79 21.68C29.79 21.68 29.79 21.68 29.79 21.68L29.8 21.68ZM29.79 21.68C29.5 20.81 29.19 19.94 28.87 19.07C28.55 18.21 28.21 17.34 27.87 16.49C27.52 15.63 27.16 14.78 26.79 13.94C26.41 13.09 26.03 12.25 25.63 11.42C25.44 11.5 25.25 11.57 25.06 11.63C24.87 11.69 24.68 11.74 24.48 11.79C24.28 11.83 24.08 11.86 23.88 11.88C23.68 11.9 23.48 11.91 23.28 11.91C23.66 14.64 24.23 19.34 24.5 21.57C24.94 21.53 25.38 21.51 25.82 21.49C26.27 21.48 26.71 21.47 27.15 21.48C27.59 21.49 28.04 21.52 28.48 21.55C28.92 21.58 29.36 21.63 29.79 21.68ZM34.87 25.25C34.53 25.07 34.18 24.91 33.83 24.77C33.48 24.62 33.12 24.49 32.76 24.37C32.4 24.25 32.03 24.15 31.66 24.06C31.29 23.96 30.92 23.89 30.54 23.82C29.95 23.72 29.36 23.64 28.76 23.58C28.17 23.52 27.57 23.49 26.97 23.48C26.37 23.47 25.77 23.48 25.18 23.52C24.58 23.55 23.98 23.61 23.39 23.69C22.93 23.75 22.48 23.83 22.02 23.91C21.57 23.99 21.12 24.08 20.67 24.18C20.22 24.29 19.77 24.4 19.33 24.52C18.88 24.65 18.44 24.78 18 24.92L16.4 28.49C16.5 28.46 16.6 28.44 16.7 28.43C16.79 28.41 16.89 28.4 16.99 28.39C17.09 28.38 17.19 28.37 17.29 28.36C17.39 28.36 17.49 28.36 17.59 28.36L34.73 28.92L36.95 28.91L34.87 25.25ZM44.25 12.84C43.13 11.46 41.13 11.17 39.67 12.19C38.21 13.2 37.78 15.18 38.69 16.71C39.6 18.24 41.54 18.8 43.13 18C43.2 17.96 43.27 17.93 43.34 17.89C43.41 17.84 43.48 17.8 43.54 17.76C43.61 17.71 43.67 17.66 43.73 17.61C43.8 17.56 43.86 17.51 43.91 17.46C45.22 16.25 45.37 14.23 44.25 12.84ZM41.89 20.12C41.93 20.88 41.94 21.64 41.93 22.4C41.91 23.15 41.85 23.91 41.77 24.66C41.69 25.42 41.57 26.17 41.42 26.91C41.28 27.66 41.1 28.39 40.89 29.12L44.32 29.23C44.31 28.45 44.29 27.66 44.23 26.88C44.17 26.1 44.09 25.32 43.98 24.54C43.87 23.76 43.73 22.99 43.56 22.23C43.4 21.46 43.21 20.7 42.99 19.94C42.9 19.97 42.81 19.99 42.72 20.01C42.63 20.03 42.54 20.05 42.45 20.06C42.36 20.08 42.26 20.09 42.17 20.1C42.08 20.11 41.99 20.12 41.89 20.12L41.89 20.12ZM16.02 61.84C16.02 62.01 16.04 62.18 16.09 62.35C16.13 62.52 16.18 62.68 16.26 62.84C16.33 62.99 16.42 63.14 16.53 63.28C16.63 63.41 16.75 63.54 16.88 63.65C16.9 63.67 16.92 63.68 16.93 63.69C16.95 63.71 16.97 63.72 16.98 63.74C17 63.75 17.02 63.76 17.04 63.78C17.05 63.79 17.07 63.8 17.09 63.81C17.19 63.88 17.3 63.95 17.4 64C17.51 64.06 17.63 64.11 17.74 64.14C17.86 64.18 17.98 64.21 18.1 64.23C18.22 64.25 18.34 64.27 18.46 64.27C18.49 64.27 18.52 64.27 18.55 64.27C18.58 64.27 18.6 64.27 18.63 64.27C18.66 64.27 18.69 64.27 18.72 64.27C18.74 64.27 18.77 64.26 18.8 64.26L19.86 64.15L52.36 60.87C52.65 60.84 52.93 60.76 53.2 60.63C53.46 60.51 53.7 60.33 53.91 60.12C54.11 59.91 54.28 59.67 54.4 59.4C54.53 59.14 54.6 58.85 54.62 58.56L56.64 34.28C56.67 33.94 56.63 33.59 56.52 33.27C56.41 32.94 56.23 32.64 56.01 32.39C55.78 32.13 55.5 31.92 55.19 31.78C54.88 31.63 54.54 31.55 54.2 31.54L34.7 30.91L17.52 30.35L17.44 30.35C17.29 30.35 17.13 30.36 16.98 30.39C16.83 30.42 16.68 30.46 16.54 30.51C16.4 30.57 16.26 30.64 16.13 30.72C16 30.8 15.88 30.89 15.76 30.99C15.72 31.02 15.69 31.05 15.65 31.1C15.61 31.14 15.57 31.18 15.53 31.22C15.43 31.34 15.33 31.47 15.25 31.61C15.17 31.75 15.1 31.89 15.05 32.04C15 32.19 14.96 32.35 14.94 32.5C14.91 32.66 14.9 32.82 14.91 32.98L16.02 61.84ZM10.61 15.9C10.61 14.57 9.83 13.36 8.62 12.82C7.41 12.27 5.99 12.49 4.99 13.37C4 14.26 3.62 15.64 4.01 16.91C4.41 18.18 5.52 19.09 6.84 19.25C6.87 19.25 6.91 19.26 6.94 19.26C6.97 19.26 7 19.27 7.04 19.27C7.07 19.27 7.1 19.27 7.14 19.27C7.17 19.27 7.2 19.27 7.23 19.27C7.38 19.27 7.54 19.26 7.68 19.24C7.83 19.22 7.98 19.19 8.13 19.15C8.27 19.11 8.41 19.06 8.55 19C8.69 18.94 8.83 18.87 8.96 18.8C9.09 18.72 9.21 18.64 9.33 18.54C9.44 18.45 9.55 18.35 9.66 18.24C9.76 18.14 9.86 18.02 9.95 17.9C10.04 17.78 10.12 17.66 10.19 17.53C10.26 17.4 10.32 17.28 10.37 17.14C10.42 17.01 10.47 16.88 10.5 16.74C10.54 16.6 10.57 16.46 10.58 16.32C10.6 16.18 10.61 16.04 10.61 15.9ZM12.73 29.02C12.58 28.27 12.4 27.53 12.2 26.79C12 26.05 11.78 25.32 11.54 24.59C11.3 23.87 11.03 23.15 10.75 22.44C10.47 21.73 10.16 21.02 9.84 20.33C9.69 20.42 9.54 20.5 9.39 20.57C9.23 20.64 9.07 20.7 8.91 20.76C8.75 20.82 8.59 20.86 8.42 20.9C8.26 20.94 8.09 20.97 7.92 21C8.12 22.9 8.42 26.04 8.66 29.68L12.74 29.02L12.73 29.02ZM3.14 33.15C2.97 33.18 2.81 33.24 2.66 33.33C2.51 33.43 2.38 33.55 2.27 33.69C2.17 33.83 2.09 33.98 2.04 34.15C2 34.32 1.98 34.5 2 34.67L4.24 58.5C4.25 58.64 4.28 58.77 4.33 58.89C4.38 59.01 4.45 59.13 4.53 59.24C4.61 59.34 4.71 59.44 4.82 59.52C4.92 59.59 5.04 59.66 5.17 59.7L14.19 62.92C14.17 62.84 14.15 62.75 14.13 62.67C14.11 62.59 14.1 62.5 14.08 62.42C14.07 62.33 14.06 62.25 14.05 62.16C14.04 62.08 14.04 61.99 14.03 61.91L12.93 33.05C12.92 32.89 12.92 32.74 12.93 32.59C12.94 32.44 12.96 32.28 12.99 32.13C13.01 31.98 13.04 31.83 13.08 31.68C13.13 31.54 13.17 31.39 13.23 31.25L3.15 33.15L3.14 33.15Z" />
				<path id="Layer" fill-rule="evenodd" fill="#000000" d="M18.52 36.35C18.62 36.24 18.73 36.15 18.85 36.07C18.97 35.99 19.09 35.92 19.23 35.86C19.36 35.81 19.5 35.77 19.64 35.74C19.78 35.71 19.92 35.69 20.06 35.69L20.09 35.69L52.08 36.12C52.37 36.12 52.66 36.19 52.92 36.3C53.19 36.42 53.43 36.6 53.63 36.81C53.83 37.03 53.98 37.28 54.07 37.56C54.17 37.83 54.21 38.13 54.18 38.42L53.32 50.11C53.3 50.29 53.27 50.46 53.21 50.64C53.15 50.81 53.07 50.97 52.97 51.12C52.87 51.28 52.75 51.41 52.62 51.54C52.48 51.66 52.33 51.76 52.17 51.84L38.38 59.06C38.25 59.13 38.1 59.19 37.95 59.23C37.8 59.27 37.65 59.29 37.5 59.3C37.34 59.31 37.19 59.3 37.04 59.27C36.89 59.25 36.74 59.2 36.59 59.15L19.85 52.43C19.66 52.35 19.48 52.24 19.32 52.12C19.16 51.99 19.02 51.84 18.91 51.67C18.79 51.51 18.69 51.33 18.63 51.13C18.56 50.94 18.52 50.74 18.5 50.54L17.92 37.94C17.92 37.8 17.92 37.66 17.94 37.53C17.96 37.39 18 37.26 18.04 37.13C18.09 37 18.15 36.88 18.22 36.76C18.29 36.64 18.37 36.53 18.46 36.43C18.48 36.4 18.5 36.37 18.52 36.35ZM19.83 50.48C19.83 50.56 19.85 50.64 19.87 50.71C19.9 50.78 19.93 50.85 19.98 50.92C20.02 50.98 20.08 51.04 20.14 51.08C20.2 51.13 20.27 51.17 20.34 51.2L37.09 57.92C37.14 57.94 37.2 57.96 37.25 57.97C37.31 57.98 37.37 57.98 37.43 57.98C37.49 57.98 37.55 57.97 37.6 57.95C37.66 57.93 37.71 57.91 37.77 57.89L51.56 50.67C51.62 50.64 51.67 50.6 51.73 50.56C51.78 50.51 51.82 50.46 51.86 50.4C51.9 50.34 51.93 50.28 51.95 50.21C51.97 50.15 51.99 50.08 51.99 50.01L52.86 38.32C52.87 38.21 52.85 38.1 52.82 38C52.78 37.89 52.72 37.8 52.65 37.71C52.57 37.63 52.48 37.57 52.38 37.52C52.28 37.47 52.17 37.45 52.06 37.45L20.07 37.02L20.06 37.02C19.95 37.02 19.84 37.05 19.74 37.09C19.64 37.13 19.55 37.2 19.47 37.28C19.4 37.36 19.34 37.45 19.3 37.55C19.26 37.66 19.24 37.77 19.25 37.88L19.83 50.48Z" />
				<path id="Layer" fill-rule="evenodd" fill="#000000" d="M20.52 39.55C20.52 39.38 20.54 39.21 20.6 39.05C20.66 38.89 20.76 38.75 20.87 38.63C20.99 38.5 21.14 38.41 21.29 38.34C21.45 38.27 21.62 38.24 21.79 38.24L50.3 38.62C50.47 38.62 50.64 38.66 50.8 38.73C50.96 38.8 51.1 38.9 51.21 39.03C51.33 39.15 51.42 39.3 51.47 39.46C51.53 39.63 51.55 39.8 51.54 39.97L50.86 49.02C50.86 49.12 50.83 49.23 50.8 49.33C50.77 49.43 50.72 49.52 50.66 49.61C50.6 49.7 50.53 49.78 50.46 49.85C50.38 49.92 50.29 49.98 50.2 50.03L37.88 56.47C37.8 56.52 37.71 56.55 37.63 56.57C37.54 56.6 37.45 56.61 37.36 56.62C37.27 56.62 37.18 56.61 37.09 56.6C37 56.59 36.92 56.56 36.83 56.53L21.76 50.48C21.65 50.43 21.55 50.37 21.45 50.3C21.36 50.23 21.28 50.14 21.21 50.04C21.14 49.94 21.08 49.84 21.04 49.72C21 49.61 20.98 49.49 20.98 49.37L20.52 39.55ZM42.81 45.41C42.81 47.42 43.6 49.06 44.58 49.06C45.56 49.06 46.35 47.42 46.35 45.41C46.35 43.4 45.56 41.77 44.58 41.77C43.6 41.77 42.81 43.4 42.81 45.41L42.81 45.41ZM26.59 45.41C26.59 47.79 27.52 49.72 28.67 49.72C29.83 49.72 30.76 47.79 30.76 45.41C30.76 43.03 29.83 41.1 28.67 41.1C27.52 41.1 26.59 43.03 26.59 45.41L26.59 45.41Z" />
				<path id="Layer" fill="#ff731b" d="M30.53 23.82C30.91 23.89 31.28 23.96 31.65 24.05C32.02 24.15 32.39 24.25 32.75 24.37C33.11 24.49 33.47 24.62 33.82 24.77C34.18 24.91 34.52 25.07 34.86 25.24L36.95 28.91L34.73 28.92L21.98 28.51L23.74 23.65C24.3 23.58 24.87 23.53 25.44 23.5C26.01 23.47 26.57 23.47 27.14 23.48C27.71 23.5 28.28 23.53 28.84 23.59C29.41 23.65 29.97 23.72 30.53 23.82L30.53 23.82Z" />
				<path id="Layer" fill="#d94d1b" d="M16.4 28.48L18 24.92C18.44 24.78 18.88 24.64 19.32 24.52C19.77 24.4 20.21 24.28 20.66 24.18C21.11 24.08 21.56 23.99 22.02 23.9C22.47 23.82 22.93 23.75 23.39 23.69C23.51 23.67 23.62 23.66 23.74 23.65L21.98 28.5L17.58 28.36C17.48 28.36 17.38 28.36 17.29 28.36C17.19 28.37 17.09 28.37 16.99 28.38C16.89 28.39 16.79 28.41 16.69 28.42C16.59 28.44 16.5 28.46 16.4 28.48L16.4 28.48Z" />
			</g>
			<path id="Layer" fill="#ffffff" d="M42.79 14.64C42.45 14.64 42.17 14.36 42.17 14.02C42.17 13.67 42.45 13.39 42.79 13.39C43.14 13.39 43.42 13.67 43.42 14.02C43.42 14.36 43.14 14.64 42.79 14.64Z" />
			<path id="Layer" fill="#ffffff" d="M7.91 15.61C7.57 15.61 7.29 15.33 7.29 14.98C7.29 14.64 7.57 14.36 7.91 14.36C8.26 14.36 8.54 14.64 8.54 14.98C8.54 15.33 8.26 15.61 7.91 15.61Z" />
			<path id="Layer" fill="#ffffff" d="M24.26 5.07C23.78 5.07 23.39 4.68 23.39 4.2C23.39 3.73 23.78 3.34 24.26 3.34C24.74 3.34 25.13 3.73 25.13 4.2C25.13 4.68 24.74 5.07 24.26 5.07Z" />
		</g>
		<path id="Layer" fill="#dfdedd" d="M31.98 87.85L32.06 84.93C32.46 84.83 32.94 84.73 33.45 84.63C33.91 84.93 34.38 85.21 34.86 85.48C35.34 85.75 35.83 86 36.32 86.23C36.82 86.47 37.33 86.68 37.84 86.88C38.35 87.07 38.87 87.25 39.4 87.4L38.42 88.12L31.98 87.85Z" />
		<path id="Layer" fill="#ffffff" d="M40.93 83.21L41.22 83.16C41.23 83.2 41.24 83.25 41.25 83.29C41.29 83.48 41.33 83.66 41.37 83.84C41.41 84.03 41.46 84.21 41.51 84.39C41.56 84.57 41.62 84.76 41.67 84.93C41.73 85.11 41.79 85.29 41.86 85.47L39.23 87.41C38.7 87.25 38.18 87.07 37.67 86.88C37.16 86.68 36.65 86.47 36.15 86.24C35.66 86 35.17 85.75 34.69 85.49C34.21 85.22 33.74 84.93 33.28 84.63C35.78 84.12 39.27 83.5 40.93 83.21Z" />
		<path id="Layer" fill="#ffea27" d="M13.51 68.72C13.78 68.56 14.06 68.41 14.34 68.27C14.62 68.12 14.9 67.99 15.19 67.86C15.48 67.73 15.77 67.61 16.06 67.49C16.36 67.38 16.65 67.27 16.95 67.17C16.98 67.16 17.01 67.15 17.04 67.14C17.07 67.13 17.1 67.11 17.12 67.1C17.15 67.08 17.18 67.06 17.2 67.04C17.23 67.03 17.25 67.01 17.28 66.98L17.3 67.01C17.62 66.84 17.94 66.69 18.26 66.54C18.58 66.39 18.91 66.24 19.24 66.1C19.57 65.96 19.9 65.83 20.23 65.71C20.57 65.58 20.91 65.46 21.24 65.35C21.24 65.36 21.23 65.37 21.22 65.38C21.19 65.44 21.16 65.51 21.14 65.57C21.12 65.64 21.11 65.7 21.11 65.77C21.1 65.84 21.11 65.91 21.12 65.97C21.13 66.04 21.15 66.1 21.17 66.17C21.34 66.58 21.5 66.99 21.65 67.41C21.8 67.83 21.94 68.25 22.08 68.67C22.21 69.09 22.34 69.52 22.46 69.94C22.58 70.37 22.69 70.8 22.8 71.23C22.62 71.06 22.44 70.89 22.25 70.72C22.07 70.55 21.88 70.39 21.69 70.23C21.5 70.07 21.31 69.91 21.11 69.76C20.92 69.6 20.72 69.45 20.52 69.3C20.33 69.17 20.09 69.11 19.86 69.15C19.63 69.18 19.42 69.31 19.28 69.5C19.14 69.69 19.09 69.93 19.12 70.16C19.16 70.39 19.29 70.6 19.48 70.73C19.69 70.9 19.91 71.06 20.12 71.23C20.33 71.4 20.54 71.57 20.74 71.75C20.95 71.93 21.15 72.11 21.35 72.29C21.54 72.48 21.74 72.67 21.93 72.86C22.19 73.11 22.44 73.37 22.69 73.63C22.94 73.89 23.18 74.16 23.42 74.42L23.56 74.58C23.98 75.05 24.37 75.51 24.73 75.94C25.19 76.49 25.59 76.99 25.9 77.38L26.02 77.54L25.93 77.6L25.13 78.15L24.71 78.43L24.32 78.7L23.89 78.99L23.06 79.55L21.26 80.78L21.24 80.79C21.03 80.95 20.81 81.1 20.59 81.25C20.38 81.4 20.15 81.54 19.93 81.69C19.71 81.83 19.49 81.97 19.26 82.11C19.03 82.25 18.81 82.38 18.58 82.51C18.36 82.64 18.15 82.75 17.95 82.86L17.69 83C17.41 83.15 17.12 83.29 16.85 83.42L16.78 83.45C16.55 83.56 16.33 83.66 16.11 83.75C12.9 78.24 13.23 71.34 13.51 68.72Z" />
		<path id="Layer" fill="#ffc427" d="M10.11 78.94C10.12 78.48 10.13 78.01 10.16 77.55C10.18 77.08 10.21 76.62 10.25 76.16C10.29 75.69 10.34 75.23 10.4 74.77C10.46 74.31 10.53 73.85 10.6 73.39C10.69 73.06 10.8 72.74 10.94 72.43C11.08 72.12 11.24 71.82 11.43 71.53C11.62 71.25 11.83 70.98 12.06 70.74C12.3 70.49 12.55 70.26 12.82 70.06C12.96 69.94 13.11 69.82 13.25 69.71C13.4 69.6 13.54 69.49 13.69 69.39C13.85 69.28 14 69.18 14.15 69.08C14.31 68.98 14.46 68.89 14.62 68.8L14.76 68.71C14.49 71.34 14.15 78.23 17.37 83.75C17.1 83.87 16.84 83.97 16.58 84.08C16.38 84.15 16.17 84.23 15.98 84.3C15.65 84.42 15.33 84.52 15.03 84.61C14.68 84.72 14.36 84.81 14.04 84.88C13.72 84.97 13.41 85.04 13.09 85.1C12.77 85.15 12.45 85.2 12.12 85.24C11.8 85.28 11.47 85.31 11.15 85.32C10.82 85.34 10.5 85.34 10.17 85.33C10.12 84.11 10.04 81.58 10.11 78.94Z" />
	</g>
</svg>