<svg version="1.1" xmlns="http://www.w3.org/2000/svg" xmlns:xlink="http://www.w3.org/1999/xlink" width="7.86074" height="7.63793" viewBox="0,0,7.86074,7.63793"><g transform="translate(-236.06963,-176.18103)"><g data-paper-data="{&quot;isPaintingLayer&quot;:true}" fill="#ff0000" fill-rule="nonzero" stroke="none" stroke-width="0.5" stroke-linecap="butt" stroke-linejoin="miter" stroke-miterlimit="10" stroke-dasharray="" stroke-dashoffset="0" style="mix-blend-mode: normal"><path d="M238.99324,177.02964c0.4489,0.07299 0.77803,0.3363 0.77803,0.3363l0.39352,0.43326c0.6619,0.23144 1.2549,0.61889 1.79131,1.09157l0.25174,-0.29369l1.19131,1.02112c0.32494,0.27515 0.53122,0.6861 0.53122,1.14523c0,0.73733 -0.53199,1.3504 -1.23307,1.47632l-1.68095,0.33619c-1.31013,0.27535 -2.69245,1.72469 -3.86306,1.07886c-1.47105,-0.81159 -1.01776,-4.57376 -1.01776,-5.97376c0,0 0,-1.5 1.5,-1.5c0.81592,0 1.18802,0.44382 1.35772,0.84862z"/></g></g></svg>