<svg version="1.1" xmlns="http://www.w3.org/2000/svg" xmlns:xlink="http://www.w3.org/1999/xlink" width="7.86074" height="157.71809" viewBox="0,0,7.86074,157.71809"><g transform="translate(-236.06963,-101.14095)"><g data-paper-data="{&quot;isPaintingLayer&quot;:true}" fill="#ff0000" fill-rule="nonzero" stroke="none" stroke-width="0.5" stroke-linecap="butt" stroke-linejoin="miter" stroke-miterlimit="10" stroke-dasharray="" stroke-dashoffset="0" style="mix-blend-mode: normal"><path d="M241.00675,118.66439c0.1697,-8.35885 0.5418,-17.52344 1.35772,-17.52344c1.5,0 1.5,30.974 1.5,30.974c0,28.90907 0.45329,106.59537 -1.01776,123.35416c-1.17061,13.33596 -2.55293,-16.59195 -3.86306,-22.27774l-1.68095,-6.9421c-0.70108,-2.60016 -1.23307,-15.25965 -1.23307,-30.48502c0,-9.48073 0.20628,-17.96657 0.53122,-23.64824l1.19131,-21.08545l0.25174,6.0645c0.53641,-9.76053 1.12941,-17.76111 1.79131,-22.54019l0.39352,-8.94653c0,0 0.32913,-5.43718 0.77803,-6.94437z" data-paper-data="{&quot;index&quot;:null}"/></g></g></svg>