<svg version="1.1" xmlns="http://www.w3.org/2000/svg" xmlns:xlink="http://www.w3.org/1999/xlink" width="399.3994" height="444.60469" viewBox="0,0,399.3994,444.60469"><defs><linearGradient x1="240.75" y1="42.46893" x2="240.75" y2="60.66717" gradientUnits="userSpaceOnUse" id="color-1"><stop offset="0" stop-color="#fff000" stop-opacity="0"/><stop offset="1" stop-color="#fff000"/></linearGradient><linearGradient x1="239.92281" y1="35.02418" x2="239.92281" y2="56.53121" gradientUnits="userSpaceOnUse" id="color-2"><stop offset="0" stop-color="#fff000" stop-opacity="0"/><stop offset="1" stop-color="#fff000"/></linearGradient><radialGradient cx="239.85923" cy="54.69501" r="199.6997" gradientUnits="userSpaceOnUse" id="color-3"><stop offset="0" stop-color="#f9ff00"/><stop offset="1" stop-color="#f9ff00" stop-opacity="0"/></radialGradient></defs><g transform="translate(-40.15953,145.00469)"><g data-paper-data="{&quot;isPaintingLayer&quot;:true}" fill-rule="nonzero" stroke-width="0" stroke-linejoin="miter" stroke-miterlimit="10" stroke-dasharray="" stroke-dashoffset="0" style="mix-blend-mode: normal"><path d="M237.3,299.6v-239.2h5.4v239.2z" fill="#000000" stroke="none" stroke-linecap="butt"/><g stroke="#000000" stroke-linecap="round"><path d="M245.91996,48.67289l11.58071,-6.20396l-8.27194,17.78465l-19.43903,0.4136l-5.79037,-17.37105l10.33992,5.37677z" fill="url(#color-1)"/><path d="M247.16075,56.11762l-14.47588,0.4136l7.03113,-21.50703z" fill="url(#color-2)"/></g><path d="M439.55893,54.69501c0,110.2911 -89.4086,199.6997 -199.6997,199.6997c-110.2911,0 -199.6997,-89.4086 -199.6997,-199.6997c0,-110.2911 89.4086,-199.6997 199.6997,-199.6997c110.2911,0 199.6997,89.4086 199.6997,199.6997z" fill="url(#color-3)" stroke="none" stroke-linecap="butt"/></g></g></svg>