<svg version="1.1" xmlns="http://www.w3.org/2000/svg" xmlns:xlink="http://www.w3.org/1999/xlink" width="9.96755" height="79.41024" viewBox="0,0,9.96755,79.41024"><g transform="translate(-286.4488,-140.29488)"><g data-paper-data="{&quot;isPaintingLayer&quot;:true}" fill="#0037ff" fill-rule="nonzero" stroke="none" stroke-width="0.5" stroke-linecap="butt" stroke-linejoin="miter" stroke-miterlimit="10" stroke-dasharray="" stroke-dashoffset="0" style="mix-blend-mode: normal"><path d="M290.156,149.11763c0.56921,0.75886 0.98655,3.49645 0.98655,3.49645l0.49899,4.50453c0.8393,2.40624 1.59123,6.43449 2.2714,11.34887l0.31921,-3.05344l1.5106,10.61641c0.41202,2.86069 0.67359,7.13326 0.67359,11.90677c0,7.6659 -0.67456,14.03988 -1.56356,15.34905l-2.13147,3.49531c-1.66127,2.86276 -3.41407,17.93131 -4.89842,11.21673c-1.86531,-8.43797 -1.29053,-47.55261 -1.29053,-62.10818c0,0 0,-15.59525 1.90201,-15.59525c1.03461,0 1.50643,4.61432 1.72161,8.82296z" data-paper-data="{&quot;index&quot;:null}"/></g></g></svg>