<svg version="1.1" xmlns="http://www.w3.org/2000/svg" xmlns:xlink="http://www.w3.org/1999/xlink" width="92.57462" height="93.49505" viewBox="0,0,92.57462,93.49505"><defs><linearGradient x1="198.94595" y1="180" x2="281.05405" y2="180" gradientUnits="userSpaceOnUse" id="color-1"><stop offset="0" stop-color="#ff0000" stop-opacity="0"/><stop offset="1" stop-color="#ff0000"/></linearGradient><linearGradient x1="277.87243" y1="153.79891" x2="260.1789" y2="135.64496" gradientUnits="userSpaceOnUse" id="color-2"><stop offset="0" stop-color="#ff9500"/><stop offset="1" stop-color="#fffb00"/></linearGradient><linearGradient x1="283.89223" y1="169.19844" x2="274.46223" y2="145.66756" gradientUnits="userSpaceOnUse" id="color-3"><stop offset="0" stop-color="#ff9500"/><stop offset="1" stop-color="#fffb00"/></linearGradient><linearGradient x1="281.20152" y1="187.96631" x2="288.92742" y2="163.82221" gradientUnits="userSpaceOnUse" id="color-4"><stop offset="0" stop-color="#ff9500"/><stop offset="1" stop-color="#fffb00"/></linearGradient><linearGradient x1="255.65682" y1="135.34461" x2="230.30834" y2="135.05895" gradientUnits="userSpaceOnUse" id="color-5"><stop offset="0" stop-color="#ff9500"/><stop offset="1" stop-color="#fffb00"/></linearGradient><linearGradient x1="201.10789" y1="195.55255" x2="211.87048" y2="218.50454" gradientUnits="userSpaceOnUse" id="color-6"><stop offset="0" stop-color="#ff9500"/><stop offset="1" stop-color="#fffb00"/></linearGradient><linearGradient x1="228.80343" y1="135.98826" x2="205.35235" y2="145.61498" gradientUnits="userSpaceOnUse" id="color-7"><stop offset="0" stop-color="#ff9500"/><stop offset="1" stop-color="#fffb00"/></linearGradient><linearGradient x1="276.27907" y1="207.47373" x2="286.05878" y2="184.08604" gradientUnits="userSpaceOnUse" id="color-8"><stop offset="0" stop-color="#ff9500"/><stop offset="1" stop-color="#fffb00"/></linearGradient><linearGradient x1="258.16254" y1="220.75658" x2="280.69466" y2="209.14061" gradientUnits="userSpaceOnUse" id="color-9"><stop offset="0" stop-color="#ff9500"/><stop offset="1" stop-color="#fffb00"/></linearGradient><linearGradient x1="233.20526" y1="226.09247" x2="258.31171" y2="222.58633" gradientUnits="userSpaceOnUse" id="color-10"><stop offset="0" stop-color="#ff9500"/><stop offset="1" stop-color="#fffb00"/></linearGradient><linearGradient x1="210.73039" y1="216.44194" x2="234.52053" y2="225.19728" gradientUnits="userSpaceOnUse" id="color-11"><stop offset="0" stop-color="#ff9500"/><stop offset="1" stop-color="#fffb00"/></linearGradient></defs><g transform="translate(-197.94595,-133.25247)"><g data-paper-data="{&quot;isPaintingLayer&quot;:true}" fill-rule="nonzero" stroke-linejoin="miter" stroke-miterlimit="10" stroke-dasharray="" stroke-dashoffset="0" style="mix-blend-mode: normal"><path d="M281.05405,180c0,22.70603 -18.38053,41.11289 -41.05405,41.11289c-22.67352,0 -41.05405,-18.40687 -41.05405,-41.11289c0,-22.70603 18.38053,-41.11289 41.05405,-41.11289c22.67352,0 41.05405,18.40687 41.05405,41.11289z" fill="none" stroke="url(#color-1)" stroke-width="2" stroke-linecap="butt"/><g stroke="#000000" stroke-width="0" stroke-linecap="round"><path d="M258.91926,136.9479l2.85956,-2.25676l16.13933,19.08055z" fill="url(#color-2)"/><path d="M272.80079,146.39144l3.50423,-0.99521l7.63986,23.79449z" fill="url(#color-3)"/><path d="M287.1857,163.32145l3.33487,1.46585l-9.27355,23.20661z" fill="url(#color-4)"/><path d="M230.34181,136.87092l0.42055,-3.61845l24.90746,2.04054z" fill="url(#color-5)"/><path d="M213.48772,217.68667l-3.44146,1.19433l-8.99049,-23.31773z" fill="url(#color-6)"/><path d="M206.09011,147.27029l-1.02452,-3.49577l23.72968,-7.83885z" fill="url(#color-7)"/><path d="M284.36674,183.43691l3.196,1.74804l-11.24072,22.3202z" fill="url(#color-8)"/><path d="M279.8167,207.55519l1.32259,3.39423l-22.96407,9.85884z" fill="url(#color-9)"/><path d="M258.0078,220.79971l0.12499,3.64066l-24.93267,1.70506z" fill="url(#color-10)"/><path d="M235.09561,223.47866l-1.60767,3.26886l-22.78708,-10.26131z" fill="url(#color-11)"/></g></g></g></svg>