<svg version="1.1" xmlns="http://www.w3.org/2000/svg" xmlns:xlink="http://www.w3.org/1999/xlink" width="29.30618" height="29.19574" viewBox="0,0,29.30618,29.19574"><g transform="translate(-225.34691,-165.40213)"><g data-paper-data="{&quot;isPaintingLayer&quot;:true}" fill-rule="evenodd" stroke="none" stroke-width="1" stroke-linecap="butt" stroke-linejoin="miter" stroke-miterlimit="10" stroke-dasharray="" stroke-dashoffset="0" style="mix-blend-mode: normal"><path d="M225.45735,180c0,-0.53625 0.02891,-1.06574 0.08527,-1.587c3.22463,-3.30037 6.76131,-7.45193 9.15388,-11.26555c0.31336,-0.32713 0.60471,-0.6755 0.87168,-1.04275c1.41368,-0.45616 2.92158,-0.70257 4.48704,-0.70257c8.06218,0 14.59787,6.53568 14.59787,14.59787c0,8.06218 -6.53568,14.59787 -14.59787,14.59787c-8.06218,0 -14.59787,-6.53568 -14.59787,-14.59787z" fill="#bfbfbf"/><g fill="#9a9a9a"><path d="M249.66578,170.57145c0.65526,-0.21842 1.38334,0.14562 1.63816,0.29123l0.0364,0.0728c2.07501,2.32983 3.31273,5.35134 3.31273,8.62766c0,0.47325 0,0.9829 -0.0728,1.45614v0.0364c-0.14562,0.54605 -0.54605,1.49255 -1.41974,1.63816c-0.54605,0.0728 -1.09211,-0.36404 -1.41974,-0.69167h-0.0364c-0.14562,0.32763 -0.76447,1.34693 -1.63816,2.36624c-1.52895,1.74738 -4.9509,2.18422 -5.06011,1.09211c-0.10921,-1.05571 1.96579,-1.05571 2.32983,-1.71097c0.36404,-0.65526 -0.94649,-2.0022 0.14562,-3.09431c1.09211,-1.09211 2.07501,-0.50965 2.07501,-0.50965c0,0 0.65526,-0.36404 0.18202,-2.0386c-0.47325,-1.67457 -2.47545,-1.60176 -2.47545,-1.60176c0,0 -0.0728,0.94649 -0.43685,0.9829c-0.36404,0.0364 -0.50965,-0.80088 -0.50965,-0.80088v-0.0364c-0.14562,0.0728 -0.29123,0.14562 -0.50965,0.14562c-0.32763,0 -0.54605,-0.25482 -0.65526,-0.47325c0,0.25482 -0.0728,1.31053 -0.80088,1.78378c-0.87369,0.54605 -1.89299,-0.40044 -1.89299,-0.40044c0,0 -2.76668,3.45835 -4.33204,2.07501c-1.56536,-1.38334 0.43685,-3.82238 0.36404,-4.40484c-0.0728,-0.54605 -1.74738,-1.20132 -1.74738,-2.0022c0,-0.80088 1.05571,-1.27413 1.05571,-1.27413c0,0 -0.43685,-0.32763 -0.43685,-0.80088c0,-0.47325 0.83729,-1.34693 3.67677,-1.0193c2.83948,0.32763 3.34913,1.74738 4.15002,2.54826c0.80088,0.80088 1.89299,-0.0364 1.89299,-0.0364c0,0 -0.54605,-0.36404 -0.50965,-0.94649c0,-0.10921 -0.0728,-0.91009 0.87369,-0.94649c0.50965,-0.0364 0.94649,0.36404 1.23772,0.72807c0.0728,-0.14562 0.43685,-0.87369 0.9829,-1.05571z"/><path d="M233.28414,192.9597c-4.40484,-2.32983 -7.86319,-7.17152 -7.93599,-12.85049c-0.00728,-0.53145 0.01747,-1.05562 0.07221,-1.57134c2.14763,-2.18912 4.44259,-4.76441 6.45143,-7.37192c0.89026,0.12127 1.47302,0.43686 1.52157,0.75243c0.0728,0.47325 -1.16492,0.9829 -1.16492,1.52895c0,0.54605 1.82019,0.54605 1.82019,0.54605c0,0 -0.32763,0.36404 -0.10921,0.65526c0.21842,0.29123 0.69167,0.25482 0.69167,0.25482c0,0 -0.80088,1.12852 -0.14562,1.74738c0.65526,0.61887 0.9829,0.83729 0.69167,1.12852c-0.29123,0.25482 -3.23992,-0.72807 -3.23992,-0.72807c0,0 0.69167,1.96579 0.25482,2.32983c-0.43685,0.36404 -1.82019,-0.0364 -1.82019,-0.0364c0,0 0.65526,1.52895 0.10921,1.85659c-0.54605,0.32763 -0.83729,0 -1.20132,-0.21842c-0.32763,-0.21842 -1.12852,-0.43685 -0.9829,0.43685c0.14562,0.83729 1.05571,1.52895 2.14781,1.27413c1.09211,-0.25482 1.20132,-1.12852 2.25703,-0.94649c1.05571,0.18202 1.38334,1.09211 1.20132,1.60176c-0.18202,0.50965 -1.56536,1.92939 -1.56536,1.92939c0,0 1.67457,0.72807 1.85659,1.20132c0.47325,1.20132 -0.29123,2.51186 -0.29123,2.51186c0,0 1.92939,0.61887 2.0386,0.91009c0.10921,0.29123 -0.72807,0.54605 -0.72807,0.54605c0,0 1.0193,1.63816 0.32763,2.22062c-0.54605,0.47325 -1.38334,0.54605 -1.78378,0.50965z"/></g></g></g></svg>