<svg version="1.1" xmlns="http://www.w3.org/2000/svg" xmlns:xlink="http://www.w3.org/1999/xlink" width="19.15554" height="18.3258" viewBox="0,0,19.15554,18.3258"><g transform="translate(-230.42223,-170.8371)"><g data-paper-data="{&quot;isPaintingLayer&quot;:true}" fill="#fff900" fill-rule="nonzero" stroke="none" stroke-width="0" stroke-linecap="butt" stroke-linejoin="miter" stroke-miterlimit="10" stroke-dasharray="" stroke-dashoffset="0" style="mix-blend-mode: normal"><path d="M241.1034,171.52452l1.7203,3.48291c0.35957,0.72619 1.05051,1.23382 1.85426,1.34663l3.84248,0.55698c1.00821,0.14806 1.41714,1.38893 0.68389,2.10103l-2.77787,2.70736c-0.57814,0.56403 -0.84605,1.38188 -0.71209,2.17858l0.65569,3.82133c0.16921,1.00821 -0.8813,1.77671 -1.79081,1.29728l-3.43356,-1.80491c-0.71914,-0.38072 -1.57225,-0.38072 -2.29139,0l-3.43356,1.80491c-0.90245,0.47238 -1.96002,-0.28907 -1.79081,-1.29728l0.65569,-3.82133c0.13396,-0.7967 -0.12691,-1.61455 -0.71209,-2.17858l-2.77787,-2.70736c-0.73324,-0.71209 -0.32432,-1.95297 0.68389,-2.10103l3.84248,-0.55698c0.80375,-0.11986 1.49469,-0.62044 1.85426,-1.34663l1.7203,-3.48291c0.45123,-0.91656 1.75556,-0.91656 2.20678,0z"/></g></g></svg>