<svg version="1.1" xmlns="http://www.w3.org/2000/svg" xmlns:xlink="http://www.w3.org/1999/xlink" width="9.96755" height="57.34559" viewBox="0,0,9.96755,57.34559"><g transform="translate(-235.01623,-151.3272)"><g data-paper-data="{&quot;isPaintingLayer&quot;:true}" fill="#0037ff" fill-rule="nonzero" stroke="none" stroke-width="0.5" stroke-linecap="butt" stroke-linejoin="miter" stroke-miterlimit="10" stroke-dasharray="" stroke-dashoffset="0" style="mix-blend-mode: normal"><path d="M238.72343,157.69848c0.56921,0.54801 0.98655,2.52494 0.98655,2.52494l0.49899,3.25292c0.8393,1.73765 1.59123,4.64662 2.2714,8.19551l0.31921,-2.20502l1.5106,7.66657c0.41202,2.06583 0.67359,5.15124 0.67359,8.5984c0,5.53588 -0.67456,10.13881 -1.56356,11.08422l-2.13147,2.52412c-1.66127,2.06732 -3.41407,12.94898 -4.89842,8.10009c-1.86531,-6.09342 -1.29053,-34.33981 -1.29053,-44.85102c0,0 0,-11.26201 1.90201,-11.26201c1.03461,0 1.50643,3.3322 1.72161,6.37144z" data-paper-data="{&quot;index&quot;:null}"/></g></g></svg>