<svg version="1.1" xmlns="http://www.w3.org/2000/svg" xmlns:xlink="http://www.w3.org/1999/xlink" width="36.16114" height="30.99011" viewBox="0,0,36.16114,30.99011"><g transform="translate(-221.91943,-164.50496)"><g data-paper-data="{&quot;isPaintingLayer&quot;:true}" fill="#ff0000" fill-rule="nonzero" stroke="none" stroke-width="0.5" stroke-linecap="butt" stroke-linejoin="miter" stroke-miterlimit="10" stroke-dasharray="" stroke-dashoffset="0" style="mix-blend-mode: normal"><path d="M242.31616,193.83367c0.22419,0.1087 0.45188,0.32951 0.45188,0.77799c0,0.88342 -0.88342,0.88342 -0.88342,0.88342l-1.35457,-0.88342c0,-0.69674 0.11328,-1.52918 0.01141,-2.21427c-0.03652,-0.24562 -0.19662,-0.46148 -0.23558,-0.70673c-0.14583,-0.91816 0.16028,-1.91748 0,-2.82693c-0.15977,-0.90656 -0.34014,-1.73717 -0.42825,-2.62052l-0.14152,-0.09346c-0.28209,-0.42835 -0.69313,-0.76472 -0.95874,-1.20348c-0.40543,-0.66973 -0.56325,-1.40386 -1.10959,-2.02456c-1.03843,-1.17977 -2.09729,-2.13749 -2.67133,-3.61104c-0.07285,-0.12081 -0.12026,-0.27806 -0.12026,-0.4827c0,-0.01409 0.00022,-0.02795 0.00067,-0.04159c0.00112,-0.14946 0.03396,-0.32877 0.14957,-0.48686c0.08253,-0.11619 0.1896,-0.19436 0.29629,-0.24693c0.02618,-0.0784 0.05235,-0.1568 0.07853,-0.23521c0.18772,-0.45345 0.32212,-0.93284 0.56316,-1.36034c0.10495,-0.18612 0.34691,-0.26628 0.45719,-0.44928c0.11346,-0.18827 0.09477,-0.43401 0.19347,-0.63042c0.62069,-1.23514 1.60091,-2.62678 2.46618,-3.70561c0.05428,-0.06767 0.11275,-0.13158 0.17377,-0.1932c-0.14437,-0.38761 -0.25794,-0.79 -0.47765,-1.13806c-0.92361,-1.46319 -1.87532,-3.00992 -2.44238,-4.66105c0,0 -0.27936,-0.83808 0.55872,-1.11744c0.83808,-0.27936 1.11744,0.55872 1.11744,0.55872c0.14846,0.46457 0.44412,0.86847 0.66224,1.3047c0.33504,0.67008 0.56074,1.45104 0.93123,2.09833c0.18475,0.32278 0.4799,0.57167 0.6757,0.88787c0.116,0.18733 0.20936,0.38632 0.29347,0.59016c0.72311,-0.99515 1.39611,-2.04547 2.1979,-2.96106c0.06161,-0.07035 1.37917,-1.38698 1.78634,-1.79415c0,0 0.62467,-0.62467 1.24934,0c0.62467,0.62467 0,1.24934 0,1.24934c-0.55025,0.55025 -1.14247,1.06098 -1.65465,1.64684c-0.98413,1.12571 -1.76676,2.45431 -2.70076,3.6293c0.32277,0.39108 0.70195,0.74699 0.96114,1.19427c0.8735,1.50737 1.67156,3.06161 2.9231,4.29471l0.40106,0.70075c0,0 0.39507,0.79015 -0.39507,1.18523c-0.16228,0.08115 -0.30791,0.11229 -0.43686,0.11055c-0.3667,1.18274 -0.88172,2.22862 -1.55972,3.32844c-0.54545,0.8848 -1.24708,1.65082 -1.56523,2.64639l-0.06946,0.20837c0.13176,0.19673 0.20638,0.47994 0.02153,0.84965c-0.01852,0.03704 -0.03791,0.07148 -0.05804,0.10347c0.09579,0.72797 0.25452,1.42531 0.37548,2.18687c0.14583,0.91816 -0.16028,1.91748 0,2.82693c0.0431,0.24455 0.20164,0.46074 0.23558,0.70673c0.07433,0.53889 0.052,1.13813 0.03068,1.71929zM241.83709,181.66616c0.71377,-1.15658 1.22151,-2.22075 1.54626,-3.5236c0,0 0.03157,-0.12628 0.11895,-0.26977c-1.04025,-1.21994 -1.82742,-2.6145 -2.61734,-4.01968c-0.177,-0.31487 -0.39556,-0.57595 -0.61845,-0.83186c-0.73571,0.9412 -1.55056,2.09949 -2.06429,3.13236c-0.12334,0.24796 -0.13559,0.54533 -0.27768,0.78304c-0.1183,0.1979 -0.36935,0.29365 -0.48512,0.49303c-0.17829,0.30706 -0.25277,0.66362 -0.37916,0.99543c-0.07567,0.22741 -0.15134,0.45482 -0.22701,0.68224l-0.00847,0.00476c0.51708,1.04277 1.44559,1.81176 2.20935,2.68946c0.04795,0.05511 1.02816,1.53655 1.05272,1.58541c0.0987,0.19641 0.08138,0.44134 0.19347,0.63042c0.01749,0.02951 0.0357,0.05851 0.05454,0.08707c0.40595,-0.87053 0.98459,-1.59954 1.50223,-2.43831z"/><path d="M241.09446,188.64615c-0.01284,-0.02569 -0.02444,-0.05096 -0.03484,-0.07581c-0.2923,0.78919 -1.10341,0.51881 -1.10341,0.51881l-0.56888,-0.20165c-0.80701,0 -1.72956,-0.17634 -2.44313,-0.59169c-0.19196,-0.11173 -0.28278,-0.35349 -0.47115,-0.47115c-0.39702,-0.24799 -0.89444,-0.277 -1.33715,-0.42905c-0.93971,-0.62647 -2.05272,-1.13767 -3.0625,-1.64904c-0.44307,-0.22438 -0.97079,-0.24602 -1.41347,-0.47115c-0.53595,-0.27258 -1.65337,-1.04601 -1.67317,-1.7359c-0.00862,-0.30051 1.00514,-1.47865 1.36129,-1.69379c0.42509,-0.25679 0.98619,-0.21799 1.41347,-0.47115c0.38216,-0.22644 0.56462,-0.70849 0.94231,-0.94231c0.23547,-0.14578 0.53508,-0.15435 0.78304,-0.27768c0.13295,-0.06612 0.2594,-0.13588 0.38185,-0.20762c-3.68862,0 -7.37724,0 -11.06586,0c0,0 -0.88342,0 -0.88342,-0.88342c0,-0.88342 0.88342,-0.88342 0.88342,-0.88342c4.39745,0 8.79489,0 13.19234,0c5.1827,0 10.36541,0 15.54811,0c1.64904,0 3.29809,0 4.94712,0h0.70673c0,0 0.88342,0 0.88342,0.88342c0,0.88342 -0.88342,0.88342 -0.88342,0.88342c-1.64904,0 -4.00482,0 -5.65386,0c-1.01181,0 -2.02363,0 -3.03544,0c0.15897,0.0806 0.31427,0.1676 0.46297,0.26616c0.401,0.26579 0.72042,0.6878 1.17943,0.83185c0.18854,0.05917 0.39714,-0.0579 0.59224,-0.0265c0.24516,0.03946 0.4714,0.15632 0.70673,0.23558c0.44829,0.15099 1.21811,-0.00077 1.34411,0.45516c0.17404,0.6298 -0.31733,1.30627 -0.71381,1.82564c-0.16733,0.21918 -1.23835,0.40523 -1.56157,0.56269c-0.62175,0.30289 -0.95428,0.88193 -1.4771,1.30306c-0.57718,0.46492 -1.05754,0.82805 -1.58445,1.35495c-0.5427,0.53653 -0.66596,0.72684 -1.41442,1.11123c-0.19554,0.10042 -0.44143,0.08122 -0.63042,0.19347c-0.23002,0.13662 -0.34864,0.43772 -0.59753,0.53585c-0.28065,0.11064 -0.60645,0.00211 -0.90329,0.05584c-0.51643,0.09347 -1.0302,0.23993 -1.55498,0.24698l-0.07608,0.14232c0,0 -0.79015,0.39507 -1.18523,-0.39507zM241.48954,187.46092l0.86623,-0.32885c0.43043,0.00869 0.84606,-0.16126 1.27196,-0.22417c0.16923,-0.025 0.35189,0.12075 0.51017,0.05584c0.16438,-0.06742 0.19288,-0.31432 0.34479,-0.40647c0.68022,-0.41262 1.14241,-0.46039 1.72439,-1.05108c0.55913,-0.55913 1.09909,-0.98412 1.71364,-1.47198c0.5781,-0.45893 0.93234,-0.97399 1.54484,-1.36583c-0.75628,-0.33044 -1.37178,-1.04428 -2.10277,-1.40955c-0.40398,-0.20186 -0.86163,-0.29002 -1.25293,-0.51549c-0.1468,-0.08458 -0.16304,-0.33642 -0.32291,-0.3925c-0.19123,-0.06709 -0.40283,0.04483 -0.60425,0.06725c0,0 -0.58098,0 -0.80064,-0.47115c-2.50081,0 -5.00161,0 -7.50242,0c-0.08161,0.4869 -0.6051,0.6614 -0.6051,0.6614c-0.79779,0.25494 -1.26899,0.7603 -2.01143,1.13339c-0.19641,0.0987 -0.43956,0.08443 -0.63042,0.19347c-0.3857,0.22036 -0.56209,0.71262 -0.94231,0.94231c-0.42509,0.25679 -0.98619,0.21799 -1.41347,0.47115c-0.04926,0.02918 -0.08474,0.07669 -0.11727,0.12765c0.08876,0.07623 0.17392,0.16192 0.27654,0.21191c0.44648,0.21751 0.96835,0.25086 1.41347,0.47115c1.00578,0.49778 2.13237,1.02895 3.0625,1.64904c0.29286,0.09358 1.31679,0.41258 1.48977,0.51326c0.19196,0.11173 0.28278,0.35349 0.47115,0.47115c0.49261,0.3077 1.24705,0.35063 1.79727,0.35063l0.84459,0.2695c0,0 0.38741,0.12914 0.54763,0.47521c0.14213,-0.28485 0.42698,-0.42727 0.42698,-0.42727z"/><path d="M253.77436,164.98303c0.61492,-0.57767 1.22052,0.02794 1.22052,0.02794l-0.38909,1.74366c-0.55159,0 -1.22157,-0.12914 -1.73207,0.14575c-0.53897,0.29022 -1.05562,0.6886 -1.66009,0.78516c-0.53558,0.08555 -2.21496,0.15664 -2.75328,-0.0265c-0.37645,-0.12807 -0.70408,-0.38043 -1.01081,-0.63349c-0.08122,-0.06701 -0.00926,-0.28427 -0.11405,-0.29456c-0.1456,-0.01429 -0.2198,0.21449 -0.36226,0.2478c-0.20948,0.04898 -0.43843,-0.07137 -0.64527,-0.01222c-0.50966,0.14573 -1.33667,0.54206 -1.6985,0.94278c0,0 -0.62467,0.62467 -1.24934,0c-0.62467,-0.62467 0,-1.24934 0,-1.24934c0.67599,-0.64021 1.63207,-1.15321 2.5419,-1.413c0.24626,-0.07031 0.51422,0.02066 0.76819,-0.01222c0.35526,-0.046 0.70178,-0.30225 1.05121,-0.22335c0.50688,0.11446 0.73564,0.79935 1.23092,0.95659c0.40223,0.12769 1.55312,0.02034 1.95827,-0.0265c0.52881,-0.06113 0.6733,-0.39489 1.16684,-0.62831c0.57315,-0.27108 1.11042,-0.3241 1.6769,-0.33018z"/></g></g></svg>