<svg version="1.1" xmlns="http://www.w3.org/2000/svg" xmlns:xlink="http://www.w3.org/1999/xlink" width="118.48894" height="120.74399" viewBox="0,0,118.48894,120.74399"><defs><linearGradient x1="198.94595" y1="180.00003" x2="281.05405" y2="180.00003" gradientUnits="userSpaceOnUse" id="color-1"><stop offset="0" stop-color="#ff0000" stop-opacity="0"/><stop offset="1" stop-color="#ff0000"/></linearGradient><linearGradient x1="277.87243" y1="153.79894" x2="260.1789" y2="135.64499" gradientUnits="userSpaceOnUse" id="color-2"><stop offset="0" stop-color="#ff0000"/><stop offset="1" stop-color="#8000ff"/></linearGradient><linearGradient x1="283.89223" y1="169.19847" x2="274.46223" y2="145.66759" gradientUnits="userSpaceOnUse" id="color-3"><stop offset="0" stop-color="#ff0000"/><stop offset="1" stop-color="#8000ff"/></linearGradient><linearGradient x1="281.20152" y1="187.96634" x2="288.92742" y2="163.82224" gradientUnits="userSpaceOnUse" id="color-4"><stop offset="0" stop-color="#ff0000"/><stop offset="1" stop-color="#8000ff"/></linearGradient><linearGradient x1="255.65682" y1="135.34464" x2="230.30834" y2="135.05898" gradientUnits="userSpaceOnUse" id="color-5"><stop offset="0" stop-color="#ff0000"/><stop offset="1" stop-color="#8000ff"/></linearGradient><linearGradient x1="201.10789" y1="195.55258" x2="211.87048" y2="218.50457" gradientUnits="userSpaceOnUse" id="color-6"><stop offset="0" stop-color="#ff0000"/><stop offset="1" stop-color="#8000ff"/></linearGradient><linearGradient x1="228.80343" y1="135.98828" x2="205.35235" y2="145.615" gradientUnits="userSpaceOnUse" id="color-7"><stop offset="0" stop-color="#ff0000"/><stop offset="1" stop-color="#8000ff"/></linearGradient><linearGradient x1="276.27907" y1="207.47376" x2="286.05878" y2="184.08607" gradientUnits="userSpaceOnUse" id="color-8"><stop offset="0" stop-color="#ff0000"/><stop offset="1" stop-color="#8000ff"/></linearGradient><linearGradient x1="258.16254" y1="220.75661" x2="280.69466" y2="209.14064" gradientUnits="userSpaceOnUse" id="color-9"><stop offset="0" stop-color="#ff0000"/><stop offset="1" stop-color="#8000ff"/></linearGradient><linearGradient x1="233.20526" y1="226.0925" x2="258.31171" y2="222.58636" gradientUnits="userSpaceOnUse" id="color-10"><stop offset="0" stop-color="#ff0000"/><stop offset="1" stop-color="#8000ff"/></linearGradient><linearGradient x1="210.73039" y1="216.44197" x2="234.52053" y2="225.19731" gradientUnits="userSpaceOnUse" id="color-11"><stop offset="0" stop-color="#ff0000"/><stop offset="1" stop-color="#8000ff"/></linearGradient><linearGradient x1="186.98083" y1="180" x2="293.01917" y2="180" gradientUnits="userSpaceOnUse" id="color-12"><stop offset="0" stop-color="#ff0000" stop-opacity="0"/><stop offset="1" stop-color="#ff0000"/></linearGradient><linearGradient x1="288.13536" y1="146.16266" x2="265.28509" y2="122.71778" gradientUnits="userSpaceOnUse" id="color-13"><stop offset="0" stop-color="#ff0000"/><stop offset="1" stop-color="#8000ff"/></linearGradient><linearGradient x1="295.90962" y1="166.05035" x2="283.73126" y2="135.66145" gradientUnits="userSpaceOnUse" id="color-14"><stop offset="0" stop-color="#ff0000"/><stop offset="1" stop-color="#8000ff"/></linearGradient><linearGradient x1="292.4347" y1="190.28808" x2="302.4123" y2="159.10723" gradientUnits="userSpaceOnUse" id="color-15"><stop offset="0" stop-color="#ff0000"/><stop offset="1" stop-color="#8000ff"/></linearGradient><linearGradient x1="259.44505" y1="122.3299" x2="226.70881" y2="121.96098" gradientUnits="userSpaceOnUse" id="color-16"><stop offset="0" stop-color="#ff0000"/><stop offset="1" stop-color="#8000ff"/></linearGradient><linearGradient x1="188.99795" y1="200.08531" x2="202.89728" y2="229.72661" gradientUnits="userSpaceOnUse" id="color-17"><stop offset="0" stop-color="#ff0000"/><stop offset="1" stop-color="#8000ff"/></linearGradient><linearGradient x1="224.7653" y1="123.16114" x2="194.47945" y2="135.59353" gradientUnits="userSpaceOnUse" id="color-18"><stop offset="0" stop-color="#ff0000"/><stop offset="1" stop-color="#8000ff"/></linearGradient><linearGradient x1="286.07762" y1="215.4809" x2="298.7076" y2="185.27691" gradientUnits="userSpaceOnUse" id="color-19"><stop offset="0" stop-color="#ff0000"/><stop offset="1" stop-color="#8000ff"/></linearGradient><linearGradient x1="262.68106" y1="232.63501" x2="291.78012" y2="217.63359" gradientUnits="userSpaceOnUse" id="color-20"><stop offset="0" stop-color="#ff0000"/><stop offset="1" stop-color="#8000ff"/></linearGradient><linearGradient x1="230.45003" y1="239.52603" x2="262.87371" y2="234.99803" gradientUnits="userSpaceOnUse" id="color-21"><stop offset="0" stop-color="#ff0000"/><stop offset="1" stop-color="#8000ff"/></linearGradient><linearGradient x1="201.42491" y1="227.06287" x2="232.14864" y2="238.36994" gradientUnits="userSpaceOnUse" id="color-22"><stop offset="0" stop-color="#ff0000"/><stop offset="1" stop-color="#8000ff"/></linearGradient></defs><g transform="translate(-185.98083,-119.62801)"><g data-paper-data="{&quot;isPaintingLayer&quot;:true}" fill-rule="nonzero" stroke-linejoin="miter" stroke-miterlimit="10" stroke-dasharray="" stroke-dashoffset="0" style="mix-blend-mode: normal"><path d="M281.05405,180.00003c0,22.70603 -18.38053,41.11289 -41.05405,41.11289c-22.67352,0 -41.05405,-18.40687 -41.05405,-41.11289c0,-22.70603 18.38053,-41.11289 41.05405,-41.11289c22.67352,0 41.05405,18.40687 41.05405,41.11289z" fill="none" stroke="url(#color-1)" stroke-width="2" stroke-linecap="butt"/><g stroke="#000000" stroke-width="0" stroke-linecap="round"><path d="M258.91926,136.94793l2.85956,-2.25676l16.13933,19.08055z" fill="url(#color-2)"/><path d="M272.80079,146.39147l3.50423,-0.99521l7.63986,23.79449z" fill="url(#color-3)"/><path d="M287.1857,163.32146l3.33487,1.46585l-9.27355,23.20661z" fill="url(#color-4)"/><path d="M230.34181,136.87095l0.42055,-3.61845l24.90746,2.04054z" fill="url(#color-5)"/><path d="M213.48772,217.6867l-3.44146,1.19433l-8.99049,-23.31773z" fill="url(#color-6)"/><path d="M206.09011,147.27032l-1.02452,-3.49577l23.72968,-7.83885z" fill="url(#color-7)"/><path d="M284.36674,183.43694l3.196,1.74804l-11.24072,22.3202z" fill="url(#color-8)"/><path d="M279.8167,207.55522l1.32259,3.39423l-22.96407,9.85884z" fill="url(#color-9)"/><path d="M258.0078,220.79974l0.12499,3.64066l-24.93267,1.70506z" fill="url(#color-10)"/><path d="M235.09561,223.47869l-1.60767,3.26886l-22.78708,-10.26131z" fill="url(#color-11)"/></g><path d="M293.01917,180c0,29.32366 -23.7375,53.09516 -53.01917,53.09516c-29.28167,0 -53.01916,-23.77152 -53.01916,-53.09516c0,-29.32365 23.73749,-53.09516 53.01916,-53.09516c29.28167,0 53.01917,23.77151 53.01917,53.09516z" fill="none" stroke="url(#color-12)" stroke-width="2" stroke-linecap="butt"/><g stroke="#000000" stroke-width="0" stroke-linecap="round"><path d="M263.65833,124.40046l3.69297,-2.91449l20.8431,24.64153z" fill="url(#color-13)"/><path d="M281.5856,136.5963l4.52553,-1.28527l9.86648,30.72934z" fill="url(#color-14)"/><path d="M300.16296,158.46051l4.30681,1.89307l-11.9763,29.97013z" fill="url(#color-15)"/><path d="M226.75204,124.30105l0.54312,-4.67304l32.16669,2.63525z" fill="url(#color-16)"/><path d="M204.98586,228.67038l-4.44447,1.54242l-11.61075,-30.11364z" fill="url(#color-17)"/><path d="M195.43223,137.73129l-1.32311,-4.51461l30.64565,-10.12346z" fill="url(#color-18)"/><path d="M296.52242,184.4386l4.12746,2.2575l-14.5168,28.82537z" fill="url(#color-19)"/><path d="M290.64628,215.5861l1.70806,4.38348l-29.6569,12.73217z" fill="url(#color-20)"/><path d="M262.48122,232.69071l0.16142,4.70172l-32.19924,2.202z" fill="url(#color-21)"/><path d="M232.89132,236.15043l-2.07622,4.22156l-29.42833,-13.25195z" fill="url(#color-22)"/></g></g></g></svg>