<svg version="1.1" xmlns="http://www.w3.org/2000/svg" xmlns:xlink="http://www.w3.org/1999/xlink" width="16.71116" height="85.6109" viewBox="0,0,16.71116,85.6109"><g transform="translate(-198.61139,-137.19455)"><g data-paper-data="{&quot;isPaintingLayer&quot;:true}" fill-rule="nonzero" stroke-linecap="butt" stroke-linejoin="miter" stroke-miterlimit="10" stroke-dasharray="" stroke-dashoffset="0" style="mix-blend-mode: normal"><path d="M213.82255,180c0,22.81237 -3.06935,41.30545 -6.85558,41.30545c-3.78623,0 -6.85558,-18.49308 -6.85558,-41.30545c0,-22.81236 3.06935,-41.30545 6.85558,-41.30545c3.78623,0 6.85558,18.49308 6.85558,41.30545z" fill="none" stroke="#a000ff" stroke-width="3"/><path d="M207.64425,200.13057c0.06556,0.15819 0.13214,0.47949 0.13214,1.13213c0,1.28554 -0.25833,1.28554 -0.25833,1.28554l-0.3961,-1.28554c0,-1.01389 0.03313,-2.22524 0.00334,-3.22218c-0.01068,-0.35742 -0.0575,-0.67155 -0.06889,-1.02843c-0.04264,-1.33609 0.04687,-2.7903 0,-4.11372c-0.04672,-1.31921 -0.09946,-2.52791 -0.12523,-3.81335l-0.04138,-0.13601c-0.08249,-0.62333 -0.20268,-1.11281 -0.28035,-1.75129c-0.11855,-0.97458 -0.16471,-2.04288 -0.32447,-2.94611c-0.30366,-1.71678 -0.61329,-3.11045 -0.78115,-5.25474c-0.0213,-0.1758 -0.03516,-0.40463 -0.03516,-0.70242c0,-0.02051 0.00007,-0.04066 0.0002,-0.06052c0.00033,-0.21749 0.00993,-0.47843 0.04374,-0.70848c0.02413,-0.16908 0.05544,-0.28282 0.08664,-0.35933c0.00765,-0.11409 0.01531,-0.22818 0.02296,-0.34228c0.05489,-0.65985 0.09419,-1.35747 0.16468,-1.97955c0.03069,-0.27084 0.10144,-0.38749 0.13369,-0.6538c0.03318,-0.27397 0.02771,-0.63157 0.05657,-0.91738c0.1815,-1.79736 0.46814,-3.82245 0.72116,-5.39236c0.01587,-0.09848 0.03297,-0.19147 0.05081,-0.28115c-0.04222,-0.56404 -0.07543,-1.1496 -0.13967,-1.65609c-0.27008,-2.12921 -0.54838,-4.38 -0.7142,-6.78271c0,0 -0.08169,-1.21956 0.16338,-1.62609c0.24507,-0.40653 0.32676,0.81304 0.32676,0.81304c0.04341,0.67604 0.12987,1.26378 0.19365,1.89858c0.09797,0.9751 0.16397,2.11153 0.27231,3.05346c0.05402,0.46971 0.14033,0.83189 0.19759,1.29202c0.03392,0.2726 0.06122,0.56217 0.08582,0.8588c0.21145,-1.44814 0.40825,-2.97654 0.64271,-4.30891c0.01802,-0.10237 0.4033,-2.01832 0.52236,-2.61083c0,0 0.18267,-0.90901 0.36533,0c0.18267,0.90901 0,1.81802 0,1.81802c-0.1609,0.80071 -0.33408,1.54393 -0.48385,2.39646c-0.28778,1.63812 -0.51663,3.57148 -0.78975,5.28132c0.09438,0.5691 0.20526,1.08701 0.28106,1.73789c0.25543,2.1935 0.4888,4.45522 0.85477,6.24962l0.11728,1.01972c0,0 0.11553,1.14982 -0.11553,1.72473c-0.04746,0.11809 -0.09004,0.16341 -0.12775,0.16088c-0.10723,1.7211 -0.25783,3.24307 -0.45609,4.84351c-0.1595,1.28755 -0.36467,2.40225 -0.4577,3.85099l-0.02031,0.30321c0.03853,0.28627 0.06035,0.69841 0.00629,1.23641c-0.00541,0.0539 -0.01109,0.10401 -0.01697,0.15057c0.02801,1.05934 0.07443,2.0741 0.1098,3.18231c0.04264,1.33609 -0.04687,2.7903 0,4.11372c0.0126,0.35586 0.05896,0.67047 0.06889,1.02843c0.02174,0.78419 0.01521,1.65619 0.00897,2.50188zM207.50417,182.42454c0.20872,-1.68303 0.35719,-3.23161 0.45216,-5.1275c0,0 0.00923,-0.18376 0.03478,-0.39257c-0.30419,-1.77524 -0.53437,-3.8046 -0.76536,-5.84939c-0.05176,-0.45819 -0.11567,-0.83812 -0.18085,-1.21052c-0.21514,1.36963 -0.45341,3.05515 -0.60364,4.55818c-0.03607,0.36083 -0.03965,0.79356 -0.0812,1.13948c-0.03459,0.28798 -0.10801,0.42731 -0.14186,0.71745c-0.05214,0.44682 -0.07391,0.9657 -0.11087,1.44855c-0.02213,0.33093 -0.04425,0.66185 -0.06638,0.99278l-0.00248,0.00693c0.1512,1.51743 0.42272,2.63646 0.64606,3.91368c0.01402,0.08019 0.30065,2.23596 0.30783,2.30707c0.02886,0.28581 0.0238,0.64224 0.05657,0.91739c0.00511,0.04295 0.01044,0.08514 0.01595,0.12671c0.11871,-1.26678 0.28791,-2.32764 0.43928,-3.54821z" fill="#9f00ff" stroke="none" stroke-width="0.5"/><path d="M207.28701,192.58175c-0.00376,-0.03739 -0.00715,-0.07415 -0.01019,-0.11032c-0.08547,1.14842 -0.32266,0.75498 -0.32266,0.75498l-0.16635,-0.29344c-0.23599,0 -0.50576,-0.25661 -0.71442,-0.86101c-0.05613,-0.16259 -0.08269,-0.5144 -0.13777,-0.68562c-0.1161,-0.36086 -0.26155,-0.40309 -0.39101,-0.62435c-0.27479,-0.91163 -0.60025,-1.65553 -0.89553,-2.39966c-0.12956,-0.32652 -0.28388,-0.358 -0.41332,-0.68562c-0.15672,-0.39665 -0.48348,-1.52215 -0.48927,-2.52606c-0.00252,-0.4373 0.29392,-2.15171 0.39807,-2.46478c0.12431,-0.37368 0.28838,-0.31722 0.41332,-0.68562c0.11175,-0.32951 0.1651,-1.03098 0.27555,-1.37124c0.06886,-0.21213 0.15647,-0.22461 0.22898,-0.40408c0.03888,-0.09622 0.07585,-0.19773 0.11166,-0.30212c-1.07862,0 -2.15725,0 -3.23587,0c0,0 -0.25833,0 -0.25833,-1.28554c0,-1.28554 0.25833,-1.28554 0.25833,-1.28554c1.2859,0 2.57179,0 3.85769,0c1.51552,0 3.03104,0 4.54657,0c0.48221,0 0.96442,0 1.44663,0h0.20666c0,0 0.25833,0 0.25833,1.28554c0,1.28554 -0.25833,1.28554 -0.25833,1.28554c-0.48221,0 -1.17109,0 -1.6533,0c-0.29587,0 -0.59175,0 -0.88762,0c0.04649,0.1173 0.0919,0.24389 0.13538,0.38732c0.11726,0.38678 0.21066,1.00088 0.34489,1.2105c0.05513,0.0861 0.11613,-0.08425 0.17318,-0.03856c0.07169,0.05742 0.13785,0.22746 0.20666,0.34281c0.13109,0.21972 0.3562,-0.00113 0.39304,0.66235c0.05089,0.91647 -0.09279,1.90087 -0.20873,2.65664c-0.04893,0.31895 -0.36212,0.58969 -0.45663,0.81882c-0.18181,0.44076 -0.27905,1.28338 -0.43193,1.89621c-0.16878,0.67655 -0.30925,1.20497 -0.46332,1.97171c-0.1587,0.78076 -0.19474,1.05768 -0.4136,1.61704c-0.05718,0.14613 -0.12908,0.11819 -0.18435,0.28154c-0.06726,0.1988 -0.10195,0.63697 -0.17473,0.77976c-0.08207,0.161 -0.17734,0.00307 -0.26414,0.08126c-0.15101,0.13602 -0.30125,0.34914 -0.4547,0.35941l-0.02225,0.20709c0,0 -0.23106,0.57491 -0.34658,-0.57491zM207.40254,190.85702l0.2533,-0.47853c0.12587,0.01264 0.2474,-0.23467 0.37194,-0.32621c0.04949,-0.03637 0.1029,0.17571 0.14918,0.08126c0.04807,-0.09811 0.0564,-0.45739 0.10082,-0.59148c0.19891,-0.60045 0.33406,-0.66996 0.50425,-1.52952c0.1635,-0.81364 0.3214,-1.43208 0.5011,-2.142c0.16905,-0.66783 0.27263,-1.41735 0.45174,-1.98754c-0.22115,-0.48085 -0.40113,-1.51963 -0.61489,-2.05116c-0.11813,-0.29375 -0.25196,-0.42204 -0.36638,-0.75013c-0.04293,-0.12309 -0.04768,-0.48955 -0.09442,-0.57115c-0.05592,-0.09762 -0.11779,0.06524 -0.17669,0.09786c0,0 -0.16989,0 -0.23412,-0.68562c-0.73128,0 -1.46257,0 -2.19385,0c-0.02386,0.70854 -0.17694,0.96246 -0.17694,0.96246c-0.23329,0.37098 -0.37108,1.10638 -0.58818,1.6493c-0.05743,0.14362 -0.12854,0.12285 -0.18435,0.28153c-0.11279,0.32066 -0.16437,1.037 -0.27555,1.37125c-0.12431,0.37368 -0.28838,0.31721 -0.41332,0.68561c-0.0144,0.04247 -0.02478,0.1116 -0.03429,0.18576c0.02595,0.11093 0.05086,0.23562 0.08087,0.30837c0.13056,0.31652 0.28317,0.36505 0.41332,0.68562c0.29411,0.72436 0.62354,1.49731 0.89553,2.39966c0.08564,0.13619 0.38506,0.60038 0.43564,0.74689c0.05613,0.16259 0.08269,0.51439 0.13777,0.68561c0.14405,0.44776 0.36466,0.51023 0.52555,0.51023l0.24697,0.39218c0,0 0.11328,0.18791 0.16014,0.69151c0.04156,-0.4145 0.12486,-0.62176 0.12486,-0.62176z" fill="#9f00ff" stroke="none" stroke-width="0.5"/><path d="M210.99486,158.14744c0.17981,-0.84062 0.3569,0.04065 0.3569,0.04065l-0.11378,2.53735c-0.1613,0 -0.35721,-0.18793 -0.50649,0.21209c-0.1576,0.42232 -0.30868,1.00204 -0.48544,1.14256c-0.15661,0.12449 -0.6477,0.22794 -0.80511,-0.03856c-0.11008,-0.18636 -0.20589,-0.5536 -0.29558,-0.92184c-0.02375,-0.09751 -0.00271,-0.41367 -0.03335,-0.42863c-0.04258,-0.02079 -0.06427,0.31213 -0.10593,0.3606c-0.06126,0.07127 -0.12821,-0.10385 -0.18869,-0.01779c-0.14903,0.21206 -0.39087,0.7888 -0.49667,1.37192c0,0 -0.18267,0.90901 -0.36533,0c-0.18267,-0.90901 0,-1.81803 0,-1.81803c0.19767,-0.93163 0.47725,-1.67813 0.7433,-2.05618c0.07201,-0.10232 0.15037,0.03007 0.22463,-0.01779c0.10389,-0.06694 0.20521,-0.43984 0.30739,-0.32502c0.14822,0.16655 0.21511,1.16321 0.35994,1.39201c0.11762,0.18581 0.45416,0.0296 0.57263,-0.03855c0.15463,-0.08895 0.19689,-0.57464 0.34121,-0.91431c0.1676,-0.39446 0.32471,-0.47163 0.49036,-0.48047z" fill="#9f00ff" stroke="none" stroke-width="0.5"/></g></g></svg>