<svg version="1.1" xmlns="http://www.w3.org/2000/svg" xmlns:xlink="http://www.w3.org/1999/xlink" width="43.82967" height="18.82942" viewBox="0,0,43.82967,18.82942"><g transform="translate(-234.33517,-180.08529)"><g data-paper-data="{&quot;isPaintingLayer&quot;:true}" fill="#000000" fill-rule="nonzero" stroke="none" stroke-width="0.5" stroke-linecap="butt" stroke-linejoin="miter" stroke-miterlimit="10" stroke-dasharray="" stroke-dashoffset="0" style="mix-blend-mode: normal"><path d="M243.49782,198.06783c0.139,0.15118 0.19555,0.36392 -0.14823,0.60437c-0.67717,0.47363 -1.55326,0.10754 -1.55326,0.10754l-0.66617,-1.03497c0.53408,-0.37355 1.28451,-0.7729 1.70862,-1.18242c0.15205,-0.14682 0.15875,-0.3289 0.30811,-0.47653c0.55917,-0.55269 1.62876,-0.96161 2.16693,-1.51562c0.53645,-0.55224 0.99427,-1.07231 1.584,-1.58242l-0.0687,-0.10875c0.04859,-0.34655 -0.1012,-0.69723 -0.02829,-1.04253c0.1113,-0.52707 0.51752,-0.98607 0.45149,-1.54525c-0.12549,-1.06284 -0.44145,-2.0151 0.1188,-3.043c0.02036,-0.09496 0.09388,-0.19891 0.25074,-0.30862c0.0108,-0.00755 0.02164,-0.01489 0.03254,-0.02202c0.11568,-0.07966 0.28569,-0.1622 0.52152,-0.19904c0.17092,-0.02809 0.33701,-0.02563 0.48312,-0.00961c0.08606,-0.03119 0.17211,-0.06237 0.25818,-0.09356c0.53374,-0.16532 1.0345,-0.36664 1.60123,-0.49595c0.24674,-0.05629 0.54814,0.001 0.79779,-0.05142c0.25683,-0.05392 0.42667,-0.19342 0.6751,-0.25782c1.56231,-0.40499 3.60114,-0.74489 5.28619,-0.96472c0.1057,-0.01379 0.21267,-0.02382 0.32043,-0.03157c0.15394,-0.26763 0.34976,-0.53044 0.39867,-0.80809c0.20562,-1.16721 0.44743,-2.39085 1.15071,-3.51107c0,0 0.36536,-0.56509 1.41064,-0.36757c1.04527,0.19752 0.6799,0.76262 0.6799,0.76262c-0.20888,0.31059 -0.22527,0.64966 -0.34334,0.97393c-0.18137,0.4981 -0.55617,1.01032 -0.68492,1.51089c-0.0642,0.24962 0.03772,0.50536 -0.01048,0.75603c-0.02855,0.1485 -0.0885,0.29388 -0.16134,0.43802c1.47993,-0.23388 2.95244,-0.5181 4.44941,-0.67672c0.11502,-0.01219 2.43089,-0.17208 3.1468,-0.22165c0,0 1.09832,-0.07604 1.23898,0.51773c0.14066,0.59377 -0.95765,0.66981 -0.95765,0.66981c-0.96747,0.06698 -1.94627,0.09539 -2.90327,0.19724c-1.83885,0.19571 -3.63341,0.5837 -5.46032,0.8266c0.02031,0.34343 0.12354,0.69138 0.03773,1.03859c-0.28919,1.17013 -0.68912,2.33413 -0.39317,3.51388l-0.13941,0.54189c0,0 -0.21388,0.58735 -1.30031,0.47172c-0.22314,-0.02375 -0.39143,-0.06739 -0.51798,-0.12176c-1.27026,0.48214 -2.58271,0.82946 -4.09814,1.13814c-1.21915,0.24834 -2.50214,0.36827 -3.58078,0.77019l-0.2286,0.08293c-0.02013,0.16007 -0.16322,0.34284 -0.62994,0.46445c-0.04676,0.01219 -0.09239,0.02261 -0.13687,0.03142c-0.46302,0.42998 -0.84014,0.86963 -1.30394,1.32806c-0.55917,0.55269 -1.62876,0.96161 -2.16693,1.51562c-0.14471,0.14897 -0.1532,0.33058 -0.30811,0.47653c-0.33936,0.31972 -0.82084,0.63174 -1.28745,0.93448zM252.34949,191.34588c1.5944,-0.32429 2.91365,-0.68443 4.23438,-1.24835c0,0 0.1281,-0.05462 0.32475,-0.09534c-0.09651,-1.08513 0.19183,-2.15901 0.48557,-3.23971c0.06582,-0.24216 0.0492,-0.4727 0.02433,-0.70227c-1.45107,0.19973 -3.14702,0.48306 -4.44822,0.82393c-0.31238,0.08183 -0.55248,0.23618 -0.87561,0.30475c-0.26902,0.05708 -0.59138,0.00437 -0.85902,0.0633c-0.41218,0.09074 -0.75935,0.25104 -1.13904,0.37656c-0.24936,0.09056 -0.49872,0.18113 -0.74809,0.2717l-0.01205,-0.00096c-0.28652,0.77334 0.04484,1.5704 0.12947,2.35747c0.00531,0.04941 -0.15818,1.24986 -0.17128,1.28624c-0.05267,0.1462 -0.2576,0.27034 -0.29137,0.41817c-0.00528,0.02307 -0.00944,0.04617 -0.01266,0.06928c1.06987,-0.29849 2.20252,-0.44956 3.35881,-0.68474z"/><path d="M246.26265,194.78035c0.00695,-0.0191 0.01483,-0.03745 0.02356,-0.05508c-0.89481,0.30198 -1.49195,-0.1791 -1.49195,-0.1791l-0.40959,-0.34385c-0.80032,-0.33443 -1.58005,-0.81127 -1.96933,-1.32966c-0.10472,-0.13945 -0.00947,-0.3067 -0.10609,-0.44785c-0.20364,-0.29748 -0.67469,-0.51917 -0.99718,-0.78415c-0.45171,-0.72529 -1.16364,-1.46059 -1.77307,-2.15321c-0.2674,-0.30391 -0.77416,-0.53419 -1.04059,-0.83834c-0.32257,-0.36824 -0.83786,-1.24596 -0.32868,-1.62404c0.22179,-0.16469 2.13023,-0.37622 2.64834,-0.34398c0.61841,0.03848 1.14511,0.29181 1.7629,0.33314c0.55257,0.03697 1.10301,-0.14587 1.65681,-0.11471c0.34526,0.01942 0.64896,0.13898 0.9894,0.17562c0.18253,0.01964 0.36141,0.03464 0.53783,0.04693c-3.65803,-1.52856 -7.31606,-3.05713 -10.97409,-4.58569c0,0 -0.87609,-0.36609 -0.19893,-0.83972c0.67717,-0.47363 1.55326,-0.10754 1.55326,-0.10754c4.36098,1.8223 8.72195,3.6446 13.08293,5.4669c5.13972,2.14771 10.27945,4.29542 15.41917,6.44313c1.63536,0.68336 3.27073,1.36673 4.9061,2.05009l0.70087,0.29287c0,0 0.87609,0.36609 0.19893,0.83972c-0.67717,0.47363 -1.55326,0.10754 -1.55326,0.10754c-1.63536,-0.68336 -3.97161,-1.6596 -5.60697,-2.34296c-1.00342,-0.41929 -2.00685,-0.83859 -3.01027,-1.25789c0.09587,0.10909 0.18319,0.22009 0.25511,0.33455c0.19394,0.30868 0.18722,0.66729 0.53202,0.93474c0.14162,0.10985 0.43823,0.13353 0.60764,0.23122c0.21288,0.12275 0.34767,0.27915 0.52029,0.41917c0.32883,0.26672 1.2086,0.50437 0.98407,0.80103c-0.31016,0.40978 -1.31599,0.56884 -2.10729,0.68298c-0.33394,0.04817 -1.5387,-0.29592 -1.97993,-0.34544c-0.84877,-0.09526 -1.6224,0.07738 -2.46369,0.08651c-0.92877,0.01008 -1.6835,0.0057 -2.60992,0.06984c-0.94947,0.06276 -1.21758,0.11371 -2.25448,0.00963c-0.27089,-0.02719 -0.50002,-0.13938 -0.77349,-0.15752c-0.33283,-0.02207 -0.68128,0.0902 -1.00332,0.03967c-0.36313,-0.05698 -0.60303,-0.25018 -0.9386,-0.34439c-0.5838,-0.16389 -1.20557,-0.29828 -1.7314,-0.51197l-0.18454,0.04477c0,0 -1.08644,-0.11563 -0.87256,-0.70297zM247.56296,194.30863l1.11112,0.18266c0.4202,0.18303 0.96265,0.26415 1.43324,0.40691c0.18699,0.05673 0.25642,0.21056 0.46314,0.24135c0.2147,0.03198 0.43221,-0.08859 0.65349,-0.07504c0.99087,0.06066 1.48584,0.22658 2.51578,0.15107c0.98308,-0.06807 1.84433,-0.07216 2.82774,-0.07905c0.92509,-0.00648 1.6712,-0.13583 2.57898,-0.09209c-0.49671,-0.49056 -0.55993,-1.12834 -1.00488,-1.6271c-0.2459,-0.27564 -0.63217,-0.51255 -0.8474,-0.79558c-0.08074,-0.10618 0.09618,-0.24793 -0.01937,-0.34424c-0.13822,-0.11521 -0.43385,-0.1429 -0.65078,-0.21434c0,0 -0.57616,-0.24076 -0.43285,-0.58439c-2.48007,-1.03633 -4.96014,-2.07267 -7.4402,-3.109c-0.45416,0.22723 -1.10706,0.10385 -1.10706,0.10385c-0.98659,-0.19392 -1.84126,-0.11825 -2.86353,-0.22589c-0.27043,-0.02848 -0.50063,-0.13689 -0.77349,-0.15752c-0.55141,-0.04169 -1.10367,0.14913 -1.65681,0.11471c-0.61841,-0.03848 -1.14511,-0.29181 -1.7629,-0.33314c-0.07122,-0.00477 -0.14283,0.006 -0.21415,0.01984c0.02959,0.07765 0.04837,0.15888 0.11181,0.22821c0.27605,0.30163 0.76803,0.53578 1.04059,0.83834c0.61588,0.68367 1.32596,1.43531 1.77307,2.15321c0.2187,0.17154 0.98962,0.76688 1.08398,0.89254c0.10472,0.13945 0.00947,0.3067 0.10609,0.44785c0.25266,0.3691 0.96794,0.70476 1.5136,0.93277l0.631,0.49449c0,0 0.28521,0.22977 0.17883,0.48171c0.3593,-0.09382 0.75095,-0.05214 0.75095,-0.05214z"/><path d="M276.97586,187.34827c1.05262,-0.05489 1.18898,0.52076 1.18898,0.52076l-1.72243,0.7736c-0.54701,-0.22858 -1.11244,-0.57545 -1.82942,-0.63963c-0.75696,-0.06775 -1.5747,-0.06827 -2.24817,-0.26699c-0.59671,-0.17608 -2.31666,-0.8339 -2.71013,-1.15516c-0.27516,-0.22466 -0.40663,-0.49574 -0.51684,-0.75851c-0.02918,-0.06958 0.20872,-0.15625 0.11268,-0.20518c-0.13344,-0.068 -0.38239,0.02391 -0.5492,-0.01726c-0.24529,-0.06055 -0.38009,-0.21995 -0.63055,-0.27395c-0.61714,-0.13307 -1.74108,-0.2633 -2.40708,-0.1984c0,0 -1.09832,0.07604 -1.23898,-0.51773c-0.14066,-0.59377 0.95765,-0.66981 0.95765,-0.66981c1.16113,-0.06311 2.5025,0.05805 3.60393,0.2958c0.29811,0.06435 0.49412,0.22417 0.77119,0.31178c0.38758,0.12256 0.92765,0.12877 1.21369,0.31587c0.41494,0.27141 0.11681,0.73341 0.48746,1.02295c0.30101,0.23514 1.52465,0.65451 1.96233,0.7973c0.57128,0.18637 0.97041,0.0673 1.63878,0.14668c0.77618,0.09218 1.34964,0.2864 1.91608,0.51789z"/></g></g></svg>