<svg version="1.1" xmlns="http://www.w3.org/2000/svg" xmlns:xlink="http://www.w3.org/1999/xlink" width="99.9832" height="85.68569" viewBox="0,0,99.9832,85.68569"><g transform="translate(-190.0084,-137.15716)"><g data-paper-data="{&quot;isPaintingLayer&quot;:true}" fill="#002dff" fill-rule="nonzero" stroke="none" stroke-width="0.5" stroke-linecap="butt" stroke-linejoin="miter" stroke-miterlimit="10" stroke-dasharray="" stroke-dashoffset="0" style="mix-blend-mode: normal"><path d="M246.404,218.24917c0.61986,0.30056 1.24941,0.91107 1.24941,2.1511c0,2.44259 -2.44259,2.44259 -2.44259,2.44259l-3.7453,-2.44259c0,-1.92645 0.31322,-4.22809 0.03154,-6.12231c-0.10099,-0.67911 -0.54365,-1.27597 -0.65136,-1.95407c-0.40322,-2.53864 0.44317,-5.30171 0,-7.81628c-0.44176,-2.50657 -0.94047,-4.80317 -1.18409,-7.24557l-0.39129,-0.25842c-0.77997,-1.18436 -1.91646,-2.1144 -2.65086,-3.32754c-1.12098,-1.85176 -1.55736,-3.88158 -3.06795,-5.59777c-2.87118,-3.26198 -5.79888,-5.91002 -7.38604,-9.98429c-0.20142,-0.33404 -0.3325,-0.76881 -0.3325,-1.33463c0,-0.03896 0.00062,-0.07727 0.00185,-0.11499c0.00311,-0.41324 0.09388,-0.90904 0.41354,-1.34614c0.2282,-0.32127 0.52424,-0.53738 0.81923,-0.68275c0.07238,-0.21678 0.14475,-0.43355 0.21713,-0.65035c0.51903,-1.25376 0.89064,-2.57925 1.55709,-3.76125c0.29017,-0.5146 0.95918,-0.73625 1.2641,-1.24224c0.3137,-0.52055 0.26204,-1.20002 0.53494,-1.74307c1.71616,-3.41507 4.42642,-7.26286 6.81883,-10.24578c0.15007,-0.18711 0.31174,-0.3638 0.48047,-0.53419c-0.39916,-1.0717 -0.7132,-2.1843 -1.32066,-3.14666c-2.55373,-4.04562 -5.18513,-8.32223 -6.75301,-12.8875c0,0 -0.77243,-2.31723 1.54483,-3.08966c2.31723,-0.77243 3.08966,1.54483 3.08966,1.54483c0.41048,1.28451 1.22797,2.40126 1.83105,3.60741c0.92638,1.85273 1.55041,4.01202 2.5748,5.80175c0.51083,0.89247 1.32691,1.58063 1.86826,2.4549c0.32074,0.51795 0.57888,1.06815 0.81143,1.63176c1.99936,-2.75153 3.86014,-5.65558 6.07705,-8.18714c0.17034,-0.19452 3.81331,-3.83491 4.93912,-4.96072c0,0 1.72717,-1.72717 3.45434,0c1.72717,1.72717 0,3.45434 0,3.45434c-1.5214,1.5214 -3.15886,2.93354 -4.57499,4.5534c-2.72105,3.11251 -4.88497,6.78601 -7.46742,10.03478c0.89243,1.08132 1.94086,2.06538 2.6575,3.30209c2.41517,4.16778 4.62176,8.46516 8.08219,11.87461l1.10889,1.93753c0,0 1.09235,2.18472 -1.09235,3.27707c-0.44871,0.22436 -0.85135,0.31048 -1.2079,0.30567c-1.01391,3.27019 -2.4379,6.162 -4.31253,9.20293c-1.50812,2.44641 -3.4481,4.5644 -4.32775,7.31708l-0.19205,0.57612c0.36431,0.54394 0.57063,1.32702 0.05952,2.34924c-0.0512,0.10242 -0.10483,0.19763 -0.16048,0.28609c0.26484,2.01279 0.70373,3.9409 1.03817,6.04656c0.40322,2.53864 -0.44317,5.30171 0,7.81628c0.11916,0.67616 0.55752,1.27392 0.65136,1.95407c0.20553,1.48999 0.14378,3.14686 0.08484,4.75372zM245.07941,184.60678c1.97353,-3.19786 3.3774,-6.14023 4.27532,-9.74252c0,0 0.08729,-0.34915 0.32888,-0.74591c-2.87623,-3.37305 -5.05271,-7.22894 -7.23677,-11.11416c-0.48941,-0.87059 -1.0937,-1.59245 -1.70996,-2.30005c-2.03419,2.60237 -4.28719,5.80495 -5.70762,8.66078c-0.34101,0.6856 -0.3749,1.50781 -0.76777,2.16507c-0.32709,0.54718 -1.02123,0.81191 -1.34133,1.36319c-0.49296,0.84899 -0.69888,1.83486 -1.04834,2.75231c-0.20923,0.62878 -0.41844,1.25755 -0.62767,1.88635l-0.02343,0.01317c1.42968,2.88318 3.99697,5.0094 6.1087,7.43618c0.13258,0.15236 2.84279,4.24845 2.91069,4.38356c0.27289,0.54305 0.225,1.22027 0.53494,1.74307c0.04835,0.0816 0.09871,0.16178 0.1508,0.24075c1.12244,-2.40695 2.72233,-4.42263 4.15357,-6.74178z"/><path d="M243.02609,203.90601c-0.03552,-0.07103 -0.06757,-0.14089 -0.09633,-0.20961c-0.80818,2.18205 -3.05085,1.43449 -3.05085,1.43449l-1.57291,-0.55755c-2.23133,0 -4.78213,-0.48757 -6.7551,-1.63598c-0.53074,-0.30892 -0.78187,-0.97738 -1.30271,-1.30271c-1.09773,-0.68567 -2.47306,-0.7659 -3.69715,-1.1863c-2.59824,-1.73216 -5.67564,-3.14558 -8.46763,-4.55948c-1.22506,-0.62039 -2.68416,-0.68022 -3.90814,-1.30271c-1.48187,-0.75365 -4.57146,-2.89216 -4.62621,-4.79964c-0.02385,-0.83088 2.77915,-4.08837 3.76387,-4.68321c1.17536,-0.71002 2.72676,-0.60272 3.90814,-1.30271c1.05666,-0.62608 1.56113,-1.95892 2.60544,-2.60544c0.65106,-0.40307 1.47947,-0.42678 2.16507,-0.76777c0.36759,-0.18283 0.71723,-0.37571 1.0558,-0.57405c-10.19879,0 -20.3976,0 -30.59639,0c0,0 -2.44259,0 -2.44259,-2.44259c0,-2.44259 2.44259,-2.44259 2.44259,-2.44259c12.15866,0 24.3173,0 36.47596,0c14.32984,0 28.65968,0 42.98952,0c4.55948,0 9.11899,0 13.67847,0h1.95407c0,0 2.44259,0 2.44259,2.44259c0,2.44259 -2.44259,2.44259 -2.44259,2.44259c-4.55948,0 -11.07306,0 -15.63255,0c-2.79759,0 -5.59521,0 -8.3928,0c0.43955,0.22286 0.86893,0.4634 1.28007,0.73592c1.10874,0.7349 1.9919,1.90172 3.26106,2.3c0.5213,0.16359 1.09806,-0.16008 1.6375,-0.07326c0.67786,0.1091 1.30339,0.43221 1.95407,0.65136c1.23948,0.41747 3.368,-0.00214 3.71638,1.2585c0.48122,1.74135 -0.87738,3.61175 -1.97364,5.04776c-0.46265,0.60601 -3.42396,1.12043 -4.31763,1.55579c-1.7191,0.83748 -2.63852,2.43849 -4.08409,3.60289c-1.59587,1.28548 -2.92404,2.2895 -4.38089,3.74636c-1.50053,1.48348 -1.84133,2.00966 -3.91079,3.07247c-0.54065,0.27766 -1.22051,0.22456 -1.74307,0.53494c-0.63599,0.37774 -0.96397,1.21028 -1.65212,1.48158c-0.77598,0.30592 -1.67679,0.00582 -2.49754,0.15439c-1.42789,0.25845 -2.84844,0.66339 -4.29941,0.68289l-0.21036,0.39349c0,0 -2.18472,1.09235 -3.27707,-1.09235zM244.11847,200.62894l2.39508,-0.90924c1.19012,0.02402 2.33929,-0.44588 3.51688,-0.61982c0.46792,-0.06911 0.97297,0.33387 1.4106,0.15439c0.45451,-0.1864 0.5333,-0.86907 0.95331,-1.12385c1.88077,-1.14088 3.15868,-1.27295 4.76783,-2.90617c1.54595,-1.54595 3.03892,-2.72103 4.7381,-4.06992c1.59841,-1.26891 2.57786,-2.69303 4.27139,-3.77643c-2.09106,-0.91365 -3.79288,-2.88737 -5.81404,-3.89731c-1.11699,-0.55814 -2.38235,-0.8019 -3.46427,-1.42529c-0.40589,-0.23387 -0.4508,-0.93017 -0.89282,-1.08522c-0.52874,-0.1855 -1.11379,0.12395 -1.6707,0.18594c0,0 -1.60637,0 -2.21373,-1.30271c-6.91457,0 -13.82914,0 -20.74371,0c-0.22564,1.34625 -1.67306,1.82873 -1.67306,1.82873c-2.20583,0.70488 -3.50867,2.10218 -5.56148,3.13375c-0.54305,0.27289 -1.21535,0.23343 -1.74307,0.53494c-1.06643,0.60928 -1.55414,1.97035 -2.60544,2.60544c-1.17536,0.71002 -2.72676,0.60272 -3.90814,1.30271c-0.13619,0.08069 -0.23431,0.21206 -0.32425,0.35295c0.24541,0.21078 0.48089,0.44769 0.76462,0.58591c1.23448,0.6014 2.67744,0.69361 3.90814,1.30271c2.78092,1.37632 5.89585,2.84498 8.46763,4.55948c0.80975,0.25875 3.64085,1.14075 4.11912,1.41914c0.53074,0.30892 0.78187,0.97738 1.30271,1.30271c1.36202,0.85076 3.44801,0.96946 4.96932,0.96946l2.33523,0.74516c0,0 1.07115,0.35705 1.51417,1.31391c0.39298,-0.78758 1.18056,-1.18138 1.18056,-1.18138z"/><path d="M280.00347,138.82348c1.73001,-1.62521 3.4338,0.07861 3.4338,0.07861l-1.09466,4.90559c-1.55183,0 -3.43674,-0.36333 -4.87297,0.41004c-1.51632,0.81649 -2.96987,1.93729 -4.67047,2.20895c-1.50678,0.24069 -6.23155,0.44068 -7.74603,-0.07454c-1.0591,-0.3603 -1.98086,-1.0703 -2.84379,-1.78224c-0.2285,-0.18852 -0.02606,-0.79976 -0.32086,-0.8287c-0.40964,-0.0402 -0.61838,0.60345 -1.01917,0.69717c-0.58936,0.13779 -1.23348,-0.20078 -1.81539,-0.03439c-1.43386,0.40999 -3.76056,1.52501 -4.77852,2.65239c0,0 -1.75744,1.75744 -3.51487,0c-1.75744,-1.75744 0,-3.51487 0,-3.51487c1.90183,-1.80116 4.59164,-3.24442 7.15135,-3.97532c0.69281,-0.19781 1.4467,0.05813 2.16121,-0.03439c0.99949,-0.12942 1.97437,-0.85036 2.95745,-0.62837c1.42605,0.32201 2.06963,2.24889 3.46304,2.69125c1.13163,0.35924 4.36952,0.05721 5.50936,-0.07454c1.48775,-0.17198 1.89427,-1.11098 3.28278,-1.76767c1.61248,-0.76264 3.12405,-0.91181 4.71776,-0.92892z"/></g></g></svg>