<svg version="1.1" xmlns="http://www.w3.org/2000/svg" xmlns:xlink="http://www.w3.org/1999/xlink" width="9.96755" height="57.34559" viewBox="0,0,9.96755,57.34559"><g transform="translate(-235.01623,-151.3272)"><g data-paper-data="{&quot;isPaintingLayer&quot;:true}" fill="#ff0000" fill-rule="nonzero" stroke="none" stroke-width="0.5" stroke-linecap="butt" stroke-linejoin="miter" stroke-miterlimit="10" stroke-dasharray="" stroke-dashoffset="0" style="mix-blend-mode: normal"><path d="M241.27659,157.69864c0.21518,-3.03924 0.687,-6.37144 1.72161,-6.37144c1.90201,0 1.90201,11.26201 1.90201,11.26201c0,10.51121 0.57478,38.7576 -1.29053,44.85102c-1.48435,4.84889 -3.23715,-6.03277 -4.89842,-8.10009l-2.13147,-2.52412c-0.889,-0.94541 -1.56356,-5.54834 -1.56356,-11.08422c0,-3.44716 0.26157,-6.53257 0.67359,-8.5984l1.5106,-7.66657l0.31921,2.20502c0.68017,-3.54889 1.4321,-6.45786 2.2714,-8.19551l0.49899,-3.25292c0,0 0.41734,-1.97693 0.98655,-2.52494z" data-paper-data="{&quot;index&quot;:null}"/></g></g></svg>