<svg version="1.1" xmlns="http://www.w3.org/2000/svg" xmlns:xlink="http://www.w3.org/1999/xlink" width="45.32493" height="38.8435" viewBox="0,0,45.32493,38.8435"><g transform="translate(-217.33757,-160.57825)"><g data-paper-data="{&quot;isPaintingLayer&quot;:true}" fill="#002dff" fill-rule="nonzero" stroke="none" stroke-width="0.5" stroke-linecap="butt" stroke-linejoin="miter" stroke-miterlimit="10" stroke-dasharray="" stroke-dashoffset="0" style="mix-blend-mode: normal"><path d="M242.90313,197.33931c0.281,0.13625 0.56639,0.41301 0.56639,0.97515c0,1.10729 -1.10729,1.10729 -1.10729,1.10729l-1.69784,-1.10729c0,-0.87331 0.14199,-1.9167 0.0143,-2.7754c-0.04578,-0.30786 -0.24645,-0.57843 -0.29528,-0.88583c-0.18279,-1.15083 0.2009,-2.4034 0,-3.54332c-0.20026,-1.13629 -0.42634,-2.1774 -0.53678,-3.2846l-0.17738,-0.11715c-0.35358,-0.5369 -0.86878,-0.95851 -1.2017,-1.50846c-0.50817,-0.83945 -0.70599,-1.75962 -1.39078,-2.53761c-1.30158,-1.47874 -2.62878,-2.67916 -3.34828,-4.52613c-0.09131,-0.15143 -0.15073,-0.34852 -0.15073,-0.60502c0,-0.01766 0.00028,-0.03503 0.00084,-0.05213c0.00141,-0.18733 0.04256,-0.41209 0.18747,-0.61024c0.10345,-0.14564 0.23765,-0.24361 0.37138,-0.30951c0.03281,-0.09827 0.06562,-0.19654 0.09843,-0.29482c0.23529,-0.56836 0.40375,-1.16924 0.70587,-1.70507c0.13154,-0.23328 0.43482,-0.33376 0.57305,-0.56314c0.14221,-0.23598 0.11879,-0.544 0.2425,-0.79018c0.77798,-1.54814 2.00661,-3.29244 3.09115,-4.64467c0.06803,-0.08482 0.14132,-0.16492 0.21781,-0.24216c-0.18095,-0.48583 -0.32331,-0.9902 -0.59869,-1.42646c-1.15767,-1.83398 -2.35055,-3.77268 -3.06131,-5.84223c0,0 -0.35016,-1.05046 0.70031,-1.40062c1.05046,-0.35016 1.40062,0.70031 1.40062,0.70031c0.18608,0.5823 0.55667,1.08855 0.83006,1.63533c0.41995,0.83989 0.70284,1.81875 1.16722,2.63008c0.23157,0.40458 0.60152,0.71654 0.84693,1.11287c0.1454,0.2348 0.26242,0.48422 0.36784,0.73972c0.90636,-1.24734 1.7499,-2.56382 2.75488,-3.71144c0.07722,-0.08818 1.72867,-1.73846 2.23903,-2.24882c0,0 0.78297,-0.78297 1.56594,0c0.78297,0.78297 0,1.56594 0,1.56594c-0.68969,0.68969 -1.43199,1.32985 -2.07396,2.06417c-1.23352,1.41098 -2.21448,3.07627 -3.38517,4.54902c0.40456,0.49019 0.87984,0.93629 1.20471,1.49692c1.09486,1.88936 2.09516,3.83747 3.66386,5.38306l0.50269,0.87833c0,0 0.49519,0.99039 -0.49519,1.48558c-0.20341,0.10171 -0.38594,0.14075 -0.54757,0.13857c-0.45963,1.48246 -1.10516,2.79339 -1.95498,4.17192c-0.68367,1.10902 -1.56311,2.06916 -1.96188,3.31702l-0.08706,0.26117c0.16515,0.24658 0.25868,0.60157 0.02698,1.06497c-0.02321,0.04643 -0.04752,0.08959 -0.07275,0.12969c0.12006,0.91245 0.31902,1.78651 0.47063,2.74106c0.18279,1.15083 -0.2009,2.4034 0,3.54332c0.05402,0.30652 0.25274,0.5775 0.29528,0.88583c0.09317,0.67545 0.06518,1.42655 0.03846,2.15498zM242.30266,182.08836c0.89465,-1.44967 1.53106,-2.78352 1.93811,-4.41653c0,0 0.03957,-0.15828 0.14909,-0.33814c-1.30387,-1.52909 -2.29052,-3.27706 -3.28061,-5.03833c-0.22186,-0.39466 -0.4958,-0.7219 -0.77517,-1.04267c-0.92215,1.17972 -1.94349,2.63153 -2.58741,3.92615c-0.15459,0.3108 -0.16995,0.68353 -0.34805,0.98148c-0.14828,0.24805 -0.46295,0.36806 -0.60806,0.61797c-0.22347,0.38487 -0.31682,0.83179 -0.47524,1.24769c-0.09485,0.28504 -0.18969,0.57008 -0.28454,0.85513l-0.01062,0.00597c0.64811,1.30702 1.81193,2.27089 2.76923,3.37101c0.0601,0.06907 1.28871,1.92593 1.31949,1.98718c0.12371,0.24618 0.102,0.55318 0.2425,0.79018c0.02192,0.03699 0.04475,0.07334 0.06836,0.10914c0.50883,-1.09113 1.2341,-2.00489 1.88292,-3.05622z"/><path d="M241.37184,190.83719c-0.0161,-0.0322 -0.03063,-0.06387 -0.04367,-0.09502c-0.36637,0.98918 -1.38303,0.65029 -1.38303,0.65029l-0.71304,-0.25275c-1.01152,0 -2.16786,-0.22103 -3.06226,-0.74163c-0.2406,-0.14004 -0.35444,-0.44307 -0.59055,-0.59055c-0.49763,-0.31083 -1.1211,-0.3472 -1.67601,-0.53778c-1.17785,-0.78523 -2.57291,-1.42597 -3.83859,-2.06693c-0.55535,-0.28124 -1.2168,-0.30836 -1.77166,-0.59055c-0.67177,-0.34165 -2.07236,-1.31109 -2.09718,-2.1758c-0.01081,-0.37666 1.25986,-1.85336 1.70626,-2.12302c0.53282,-0.32187 1.23611,-0.27323 1.77166,-0.59055c0.47901,-0.28382 0.7077,-0.88803 1.18111,-1.18111c0.29514,-0.18272 0.67068,-0.19347 0.98148,-0.34805c0.16664,-0.08288 0.32514,-0.17032 0.47862,-0.26023c-4.62337,0 -9.24675,0 -13.87012,0c0,0 -1.10729,0 -1.10729,-1.10729c0,-1.10729 1.10729,-1.10729 1.10729,-1.10729c5.51183,0 11.02365,0 16.53548,0c6.49608,0 12.99216,0 19.48824,0c2.06693,0 4.13387,0 6.2008,0h0.88583c0,0 1.10729,0 1.10729,1.10729c0,1.10729 -1.10729,1.10729 -1.10729,1.10729c-2.06693,0 -5.0197,0 -7.08663,0c-1.26822,0 -2.53645,0 -3.80467,0c0.19926,0.10103 0.39391,0.21007 0.58029,0.33361c0.50262,0.33315 0.90298,0.8621 1.47832,1.04265c0.23632,0.07416 0.49778,-0.07257 0.74232,-0.03321c0.30729,0.04946 0.59086,0.19593 0.88583,0.29528c0.56189,0.18925 1.5268,-0.00097 1.68473,0.57051c0.21815,0.7894 -0.39774,1.6373 -0.8947,2.28828c-0.20973,0.27472 -1.55217,0.50792 -1.95729,0.70528c-0.77931,0.37965 -1.19611,1.10543 -1.85142,1.63328c-0.72345,0.58274 -1.32554,1.03789 -1.98597,1.69832c-0.68023,0.6725 -0.83472,0.91103 -1.77286,1.39283c-0.24509,0.12587 -0.55329,0.1018 -0.79018,0.2425c-0.28831,0.17124 -0.43699,0.54865 -0.74895,0.67164c-0.35177,0.13868 -0.76013,0.00264 -1.1322,0.06999c-0.6473,0.11716 -1.29127,0.30073 -1.94903,0.30957l-0.09536,0.17838c0,0 -0.99039,0.49519 -1.48558,-0.49519zM241.86704,189.35161l1.08575,-0.41218c0.53951,0.01089 1.06046,-0.20213 1.59429,-0.28098c0.21212,-0.03133 0.44107,0.15135 0.63946,0.06999c0.20604,-0.0845 0.24176,-0.39397 0.43216,-0.50947c0.8526,-0.51719 1.43191,-0.57706 2.16138,-1.31744c0.70082,-0.70082 1.37762,-1.23351 2.1479,-1.845c0.7246,-0.57523 1.16861,-1.22082 1.93633,-1.71195c-0.94793,-0.41418 -1.71941,-1.30892 -2.63565,-1.76675c-0.50636,-0.25302 -1.07998,-0.36352 -1.57044,-0.64612c-0.184,-0.10602 -0.20436,-0.42167 -0.40474,-0.49196c-0.23969,-0.08409 -0.50491,0.05619 -0.75737,0.08429c0,0 -0.72821,0 -1.00354,-0.59055c-3.13455,0 -6.2691,0 -9.40365,0c-0.10229,0.61029 -0.75844,0.82901 -0.75844,0.82901c-0.99996,0.31954 -1.59057,0.95297 -2.52116,1.42061c-0.24618,0.12371 -0.55095,0.10582 -0.79018,0.2425c-0.48344,0.2762 -0.70453,0.89321 -1.18111,1.18111c-0.53282,0.32187 -1.23611,0.27323 -1.77166,0.59055c-0.06174,0.03658 -0.10622,0.09613 -0.14699,0.16c0.11125,0.09555 0.218,0.20295 0.34662,0.26561c0.55962,0.27263 1.21375,0.31443 1.77166,0.59055c1.26066,0.62392 2.67274,1.2897 3.83859,2.06693c0.36708,0.1173 1.65049,0.51713 1.8673,0.64333c0.2406,0.14004 0.35444,0.44307 0.59055,0.59055c0.61744,0.38567 1.56307,0.43948 2.25272,0.43948l1.05862,0.3378c0,0 0.48558,0.16186 0.68641,0.59563c0.17815,-0.35703 0.53518,-0.53555 0.53518,-0.53555z"/><path d="M257.265,161.17747c0.77075,-0.72406 1.52982,0.03502 1.52982,0.03502l-0.48769,2.18553c-0.69137,0 -1.53113,-0.16187 -2.171,0.18268c-0.67555,0.36376 -1.32313,0.8631 -2.08078,0.98413c-0.6713,0.10723 -2.77627,0.19633 -3.451,-0.03321c-0.47185,-0.16052 -0.88251,-0.47684 -1.26696,-0.79402c-0.1018,-0.08399 -0.01161,-0.35631 -0.14295,-0.3692c-0.1825,-0.01791 -0.2755,0.26885 -0.45406,0.3106c-0.26257,0.06139 -0.54954,-0.08945 -0.80879,-0.01532c-0.63881,0.18266 -1.6754,0.67942 -2.12892,1.18169c0,0 -0.78297,0.78297 -1.56594,0c-0.78297,-0.78297 0,-1.56594 0,-1.56594c0.8473,-0.80245 2.04566,-1.44545 3.18606,-1.77108c0.30866,-0.08813 0.64453,0.0259 0.96286,-0.01532c0.44529,-0.05766 0.87962,-0.37885 1.3176,-0.27995c0.63533,0.14346 0.92206,1.00192 1.54285,1.199c0.50416,0.16005 1.9467,0.02549 2.45452,-0.03321c0.66282,-0.07662 0.84393,-0.49496 1.46254,-0.78753c0.71839,-0.33977 1.39182,-0.40623 2.10185,-0.41385z"/></g></g></svg>