<svg version="1.1" xmlns="http://www.w3.org/2000/svg" xmlns:xlink="http://www.w3.org/1999/xlink" width="149.04168" height="149.04168" viewBox="0,0,149.04168,149.04168"><defs><radialGradient cx="240.07381" cy="180" r="19.51138" gradientUnits="userSpaceOnUse" id="color-1"><stop offset="0" stop-color="#ffffff"/><stop offset="1" stop-color="#fffb00"/></radialGradient><radialGradient cx="240" cy="180" r="74.52084" gradientUnits="userSpaceOnUse" id="color-2"><stop offset="0" stop-color="#fffb00"/><stop offset="1" stop-color="#fffb00" stop-opacity="0"/></radialGradient></defs><g transform="translate(-165.47916,-105.47916)"><g data-paper-data="{&quot;isPaintingLayer&quot;:true}" stroke="none" stroke-linecap="butt" stroke-linejoin="miter" stroke-miterlimit="10" stroke-dasharray="" stroke-dashoffset="0" style="mix-blend-mode: normal"><path d="M220.56243,180c0,-10.77584 8.73553,-19.51138 19.51138,-19.51138c10.77584,0 19.51138,8.73553 19.51138,19.51138c0,10.77584 -8.73553,19.51138 -19.51138,19.51138c-10.77584,0 -19.51138,-8.73553 -19.51138,-19.51138z" fill="url(#color-1)" fill-rule="evenodd" stroke-width="1"/><path d="M314.52084,180c0,41.15674 -33.3641,74.52084 -74.52084,74.52084c-41.15674,0 -74.52084,-33.3641 -74.52084,-74.52084c0,-41.15674 33.3641,-74.52084 74.52084,-74.52084c41.15674,0 74.52084,33.3641 74.52084,74.52084z" fill="url(#color-2)" fill-rule="nonzero" stroke-width="0"/></g></g></svg>