<svg version="1.1" xmlns="http://www.w3.org/2000/svg" xmlns:xlink="http://www.w3.org/1999/xlink" width="27.26244" height="25.5853" viewBox="0,0,27.26244,25.5853"><g transform="translate(-227.39066,-169.01257)"><g data-paper-data="{&quot;isPaintingLayer&quot;:true}" stroke="none" stroke-width="1" stroke-linecap="butt" stroke-linejoin="miter" stroke-miterlimit="10" stroke-dasharray="" stroke-dashoffset="0" style="mix-blend-mode: normal"><path d="M254.6531,180c0,8.06218 -6.53568,14.59787 -14.59787,14.59787c-5.4064,0 -10.12635,-2.93901 -12.64931,-7.3065c7.58871,-5.8429 15.00749,-11.81976 22.26077,-18.2788c3.05631,2.67574 4.98641,6.60618 4.98641,10.98743z" fill="#bfbfbf" fill-rule="evenodd"/><g fill="#9a9a9a"><path d="M249.66579,170.57145c0.65526,-0.21842 1.38334,0.14562 1.63816,0.29123l0.0364,0.0728c2.07501,2.32983 3.31273,5.35134 3.31273,8.62766c0,0.47325 0,0.9829 -0.0728,1.45614v0.0364c-0.14562,0.54605 -0.54605,1.49255 -1.41974,1.63816c-0.54605,0.0728 -1.09211,-0.36404 -1.41974,-0.69167h-0.0364c-0.14562,0.32763 -0.76447,1.34693 -1.63816,2.36624c-1.52895,1.74738 -4.9509,2.18422 -5.06011,1.09211c-0.10921,-1.05571 1.96579,-1.05571 2.32983,-1.71097c0.36404,-0.65526 -0.94649,-2.0022 0.14562,-3.09431c1.09211,-1.09211 2.07501,-0.50965 2.07501,-0.50965c0,0 0.65526,-0.36404 0.18202,-2.0386c-0.47325,-1.67457 -2.47545,-1.60176 -2.47545,-1.60176c0,0 -0.0728,0.94649 -0.43685,0.9829c-0.36404,0.0364 -0.50965,-0.80088 -0.50965,-0.80088v-0.0364c-0.14562,0.0728 -0.29123,0.14562 -0.50965,0.14562c-0.32763,0 -0.54605,-0.25482 -0.65526,-0.47325c0,0.25482 -0.0728,1.31053 -0.80088,1.78378c-0.87369,0.54605 -1.89299,-0.40044 -1.89299,-0.40044c0,0 -2.76668,3.45835 -4.33204,2.07501c-0.20705,-0.18297 -0.35168,-0.38441 -0.44696,-0.59758c2.54034,-2.06291 5.06108,-4.15998 7.56239,-6.30513c0.79516,0.71416 1.83986,-0.08678 1.83986,-0.08678c0,0 -0.54605,-0.36404 -0.50965,-0.94649c0,-0.0191 -0.00223,-0.05937 -0.00084,-0.113c0.32028,-0.27768 0.64024,-0.55619 0.95988,-0.83557c0.47301,0.01064 0.87753,0.38661 1.15237,0.73015c0.0728,-0.14562 0.43685,-0.87369 0.9829,-1.05571z" fill-rule="evenodd"/><path d="M233.28415,192.9597c-2.36201,-1.24933 -4.45187,-3.22092 -5.89349,-5.65658c2.12399,-1.63526 4.23467,-3.281 6.33214,-4.94484c0.22891,0.32948 0.27777,0.71769 0.1802,0.99086c-0.18202,0.50965 -1.56536,1.92939 -1.56536,1.92939c0,0 1.67457,0.72807 1.85659,1.20132c0.47325,1.20132 -0.29123,2.51186 -0.29123,2.51186c0,0 1.92939,0.61887 2.0386,0.91009c0.10921,0.29123 -0.72807,0.54605 -0.72807,0.54605c0,0 1.0193,1.63816 0.32763,2.22062c-0.54605,0.47325 -1.38334,0.54605 -1.78378,0.50965z" fill-rule="nonzero"/><path d="" fill-rule="nonzero"/><path d="" fill-rule="nonzero"/></g></g></g></svg>