<svg version="1.1" xmlns="http://www.w3.org/2000/svg" xmlns:xlink="http://www.w3.org/1999/xlink" width="21.90679" height="26.32439" viewBox="0,0,21.90679,26.32439"><g transform="translate(-232.74631,-168.27348)"><g data-paper-data="{&quot;isPaintingLayer&quot;:true}" fill-rule="evenodd" stroke="none" stroke-width="1" stroke-linecap="butt" stroke-linejoin="miter" stroke-miterlimit="10" stroke-dasharray="" stroke-dashoffset="0" style="mix-blend-mode: normal"><path d="M254.6531,180c0,8.06218 -6.53568,14.59787 -14.59787,14.59787c-2.65004,0 -5.13516,-0.70614 -7.27745,-1.94053c7.98622,-0.68325 17.66545,-8.2799 17.66545,-15.77642c0,-2.76463 -0.55047,-5.8296 -1.69242,-8.60744c3.58155,2.6602 5.90228,6.92234 5.90228,11.72652z" fill="#bfbfbf"/><g fill="#9a9a9a"><path d="M249.66579,170.57145c0.65526,-0.21842 1.38334,0.14562 1.63816,0.29123l0.0364,0.0728c2.07501,2.32983 3.31273,5.35134 3.31273,8.62766c0,0.47325 0,0.9829 -0.0728,1.45614v0.0364c-0.14562,0.54605 -0.54605,1.49255 -1.41974,1.63816c-0.54605,0.0728 -1.09211,-0.36404 -1.41974,-0.69167h-0.0364c-0.14562,0.32763 -0.76447,1.34693 -1.63816,2.36624c-1.03324,1.18085 -2.93097,1.76319 -4.08662,1.67964c2.6745,-2.70265 4.46361,-5.94414 4.46361,-9.16713c0,-2.00536 -0.28963,-4.16874 -0.88454,-6.26594c0.03487,-0.01672 0.07058,-0.03134 0.1071,-0.04352z"/><path d="M233.28415,192.9597c-0.18093,-0.0957 -0.36027,-0.19564 -0.53784,-0.2997c0.99253,-0.0827 2.01146,-0.27245 3.03494,-0.55575c-0.0067,0.22403 -0.07416,0.4245 -0.24008,0.56422c-0.54605,0.47325 -1.38334,0.54605 -1.78378,0.50965z"/></g></g></g></svg>